<svg width="80" height="80" viewBox="0 0 80 80" fill="none" xmlns="http://www.w3.org/2000/svg">
<path d="M16.25 38.75H21.25V78.75H16.25V38.75Z" fill="#7A838B"/>
<path d="M16.25 38.75H21.25V41.25H16.25V38.75Z" fill="#5D6972"/>
<path d="M16.25 71.25H21.25V73.75H16.25V71.25Z" fill="#5D6972"/>
<path d="M54.9762 1.23389C58.9544 1.23389 62.7698 2.81424 65.5828 5.62729C68.3958 8.44033 69.9762 12.2556 69.9762 16.2339V46.2339H39.9762V16.2339C39.9762 12.2556 41.5565 8.44033 44.3696 5.62729C47.1826 2.81424 50.9979 1.23389 54.9762 1.23389Z" fill="#7A838B"/>
<path d="M43.75 16.25H66.25V27.5C66.25 30.4837 65.0647 33.3452 62.955 35.455C60.8452 37.5647 57.9837 38.75 55 38.75C52.0163 38.75 49.1548 37.5647 47.045 35.455C44.9353 33.3452 43.75 30.4837 43.75 27.5V16.25Z" fill="#5D6972"/>
<path d="M57.4762 38.7339V33.7339H52.4762V38.7339C52.4762 39.3969 52.2128 40.0328 51.744 40.5017C51.2751 40.9705 50.6392 41.2339 49.9762 41.2339H46.2262V46.2339H63.7262V41.2339H59.9762C59.3132 41.2339 58.6773 40.9705 58.2084 40.5017C57.7396 40.0328 57.4762 39.3969 57.4762 38.7339Z" fill="#FFD3B6"/>
<path d="M52.5 38.4612C54.1444 38.8462 55.8556 38.8462 57.5 38.4612V33.75H52.5V38.4612Z" fill="#F9B995"/>
<path d="M43.7262 13.7339H66.2262V24.9839C66.2262 27.9676 65.0409 30.8291 62.9311 32.9388C60.8214 35.0486 57.9599 36.2339 54.9762 36.2339C51.9925 36.2339 49.131 35.0486 47.0212 32.9388C44.9115 30.8291 43.7262 27.9676 43.7262 24.9839V13.7339Z" fill="#FFD3B6"/>
<path d="M58.75 32.5C55.7663 32.5 52.9048 31.3147 50.7951 29.205C48.6853 27.0952 47.5 24.2337 47.5 21.25V13.75H43.75V25C43.748 27.4537 44.5489 29.8407 46.0304 31.7967C47.512 33.7526 49.5928 35.1701 51.9554 35.8328C54.3179 36.4954 56.8324 36.3669 59.115 35.4667C61.3977 34.5666 63.3231 32.9443 64.5975 30.8475C62.8383 31.9276 60.8144 32.4996 58.75 32.5Z" fill="#F9B995"/>
<path d="M42.4762 18.7339H43.7262V23.7339H42.4762C41.8132 23.7339 41.1773 23.4705 40.7084 23.0017C40.2396 22.5328 39.9762 21.8969 39.9762 21.2339C39.9762 20.5708 40.2396 19.935 40.7084 19.4661C41.1773 18.9973 41.8132 18.7339 42.4762 18.7339Z" fill="#F9B995"/>
<path d="M67.4775 23.7324H66.2275V18.7324H67.4775C68.1406 18.7324 68.7765 18.9958 69.2453 19.4647C69.7141 19.9335 69.9775 20.5694 69.9775 21.2324C69.9775 21.8955 69.7141 22.5313 69.2453 23.0002C68.7765 23.469 68.1406 23.7324 67.4775 23.7324Z" fill="#FFD3B6"/>
<path d="M42.4762 11.2339V18.7339H55.4062C56.7322 18.7336 58.0037 18.2066 58.9412 17.2689L59.9762 16.2339L61.0124 17.2689C61.9499 18.2066 63.2215 18.7336 64.5474 18.7339H67.4762V11.2339H42.4762Z" fill="#7A838B"/>
<path d="M76.2262 51.2339V78.7339L41.2499 78.7501L41.2262 58.7501H33.7262V51.2339C33.7262 48.5817 34.7798 46.0382 36.6551 44.1628C38.5305 42.2875 41.074 41.2339 43.7262 41.2339H48.8512C49.1381 42.6467 49.9046 43.917 51.0209 44.8294C52.1371 45.7417 53.5345 46.2402 54.9762 46.2402C56.4179 46.2402 57.8153 45.7417 58.9315 44.8294C60.0478 43.917 60.8143 42.6467 61.1012 41.2339H66.2262C68.8784 41.2339 71.4219 42.2875 73.2973 44.1628C75.1726 46.0382 76.2262 48.5817 76.2262 51.2339Z" fill="#A7D0E1"/>
<path d="M66.2499 74.9899V58.7499L62.4999 51.2499H42.9899C42.8427 51.25 42.6984 51.2911 42.5732 51.3686C42.448 51.4461 42.3469 51.5569 42.2812 51.6887C42.0607 52.1338 41.7125 52.5032 41.2812 52.7496C40.8499 52.996 40.3549 53.1084 39.8594 53.0723C39.364 53.0362 38.8905 52.8533 38.4994 52.547C38.1084 52.2407 37.8174 51.8248 37.6637 51.3524C37.5396 50.9123 37.4766 50.4572 37.4762 49.9999V47.4837C37.4755 45.7511 37.928 44.0485 38.7887 42.5449C37.2519 43.4162 35.9737 44.6794 35.0843 46.2058C34.195 47.7322 33.7263 49.4671 33.7262 51.2337V58.7499H41.2262L41.2499 78.7499L76.2262 78.7337V74.9837L66.2499 74.9899Z" fill="#80BBCE"/>
<path d="M41.2262 66.2337C41.2262 67.5598 40.6994 68.8316 39.7617 69.7693C38.824 70.707 37.5523 71.2337 36.2262 71.2337H16.2262C15.5632 71.2337 14.9273 70.9704 14.4584 70.5015C13.9896 70.0327 13.7262 69.3968 13.7262 68.7337V63.7337C13.7262 63.0707 13.9896 62.4348 14.4584 61.966C14.9273 61.4971 15.5632 61.2337 16.2262 61.2337H21.2262C21.8892 61.2337 22.5251 61.4971 22.994 61.966C23.4628 62.4348 23.7262 63.0707 23.7262 63.7337H33.7262V58.75H41.2262V66.2337Z" fill="#FFD3B6"/>
<path d="M40 67.5H23.75C22.0924 67.5 20.5027 66.8415 19.3306 65.6694C18.1585 64.4973 17.5 62.9076 17.5 61.25H16.25C15.587 61.25 14.9511 61.5134 14.4822 61.9822C14.0134 62.4511 13.75 63.087 13.75 63.75V68.75C13.75 69.413 14.0134 70.0489 14.4822 70.5178C14.9511 70.9866 15.587 71.25 16.25 71.25H36.25C37.3807 71.2479 38.4774 70.8627 39.361 70.1571C40.2445 69.4515 40.8628 68.4673 41.115 67.365C40.7496 67.452 40.3756 67.4973 40 67.5Z" fill="#F9B995"/>
<path d="M68.7262 58.75H76.2262V78.7337H68.7262V58.75Z" fill="#FFD3B6"/>
<path d="M72.4999 70.9V58.75H68.7262V78.7337H76.2262V74.625C75.2383 74.6247 74.2908 74.2321 73.5921 73.5337C72.8934 72.8352 72.5006 71.8879 72.4999 70.9Z" fill="#F9B995"/>
<path d="M46.875 38.75C47.3723 38.75 47.8492 38.9475 48.2008 39.2992C48.5525 39.6508 48.75 40.1277 48.75 40.625V51.25H45V40.625C45 40.1277 45.1975 39.6508 45.5492 39.2992C45.9008 38.9475 46.3777 38.75 46.875 38.75Z" fill="#F8C460"/>
<path d="M63.125 38.75C63.6223 38.75 64.0992 38.9475 64.4508 39.2992C64.8025 39.6508 65 40.1277 65 40.625V51.25H61.25V40.625C61.25 40.1277 61.4475 39.6508 61.7992 39.2992C62.1508 38.9475 62.6277 38.75 63.125 38.75Z" fill="#F8C460"/>
<path d="M68.75 78.75H41.25V58.75L45 51.25H65L68.75 58.75V78.75Z" fill="#F8C460"/>
<path d="M45 56.18C45.0004 55.4038 45.181 54.6383 45.5275 53.9437L46.875 51.25H45L41.25 58.75V78.75H68.75V75H63.82C58.8286 75 54.0417 73.0172 50.5123 69.4877C46.9828 65.9583 45 61.1714 45 56.18Z" fill="#EAAC47"/>
<path d="M13.75 33.75H23.75V36.25C23.75 36.913 23.4866 37.5489 23.0178 38.0178C22.5489 38.4866 21.913 38.75 21.25 38.75H16.25C15.587 38.75 14.9511 38.4866 14.4822 38.0178C14.0134 37.5489 13.75 36.913 13.75 36.25V33.75Z" fill="#7A838B"/>
<path d="M17.5 36.25V33.75H13.75V36.25C13.75 36.913 14.0134 37.5489 14.4822 38.0178C14.9511 38.4866 15.587 38.75 16.25 38.75H20C19.337 38.75 18.7011 38.4866 18.2322 38.0178C17.7634 37.5489 17.5 36.913 17.5 36.25Z" fill="#5D6972"/>
<path d="M33.75 18.75C23.75 12.0833 13.75 12.0833 3.75 18.75L13.75 33.75H23.75L33.75 18.75Z" fill="#F8C460"/>
<path d="M7.3475 16.645C6.10755 17.2745 4.90625 17.9774 3.75 18.75L13.75 33.75H23.75L26.25 30C23.1739 29.9998 20.1454 29.2404 17.4333 27.789C14.7211 26.3376 12.4091 24.2392 10.7025 21.68L7.3475 16.645Z" fill="#EAAC47"/>
<path d="M45 48.75H48.75V51.25H45V48.75Z" fill="#EAAC47"/>
<path d="M61.25 48.75H65V51.25H61.25V48.75Z" fill="#EAAC47"/>
<path d="M63.75 55H61.25C60.9185 55 60.6005 54.8683 60.3661 54.6339C60.1317 54.3995 60 54.0815 60 53.75C60 53.4185 60.1317 53.1005 60.3661 52.8661C60.6005 52.6317 60.9185 52.5 61.25 52.5H63.75C64.0815 52.5 64.3995 52.6317 64.6339 52.8661C64.8683 53.1005 65 53.4185 65 53.75C65 54.0815 64.8683 54.3995 64.6339 54.6339C64.3995 54.8683 64.0815 55 63.75 55Z" fill="white"/>
<path d="M60 21.25C59.6685 21.25 59.3505 21.3817 59.1161 21.6161C58.8817 21.8505 58.75 22.1685 58.75 22.5V23.75C58.75 24.0815 58.8817 24.3995 59.1161 24.6339C59.3505 24.8683 59.6685 25 60 25C60.3315 25 60.6495 24.8683 60.8839 24.6339C61.1183 24.3995 61.25 24.0815 61.25 23.75V22.5C61.25 22.1685 61.1183 21.8505 60.8839 21.6161C60.6495 21.3817 60.3315 21.25 60 21.25Z" fill="#7A838B"/>
<path d="M50 21.25C49.6685 21.25 49.3505 21.3817 49.1161 21.6161C48.8817 21.8505 48.75 22.1685 48.75 22.5V23.75C48.75 24.0815 48.8817 24.3995 49.1161 24.6339C49.3505 24.8683 49.6685 25 50 25C50.3315 25 50.6495 24.8683 50.8839 24.6339C51.1183 24.3995 51.25 24.0815 51.25 23.75V22.5C51.25 22.1685 51.1183 21.8505 50.8839 21.6161C50.6495 21.3817 50.3315 21.25 50 21.25Z" fill="#7A838B"/>
<path d="M13.0625 22.3624C12.8895 22.4547 12.6961 22.502 12.5 22.4999C12.2686 22.502 12.0413 22.4385 11.8445 22.3168C11.6476 22.1952 11.4892 22.0203 11.3875 21.8124L8.52502 16.0749C9.30002 15.7249 10.0625 15.4124 10.8375 15.1499L13.6125 20.6874C13.6871 20.8334 13.7321 20.9926 13.7448 21.1561C13.7575 21.3195 13.7377 21.4838 13.6866 21.6395C13.6354 21.7952 13.554 21.9393 13.4468 22.0634C13.3397 22.1874 13.2091 22.2891 13.0625 22.3624Z" fill="#EAAC47"/>
<path d="M28.9749 16.0749L26.1124 21.8124C26.0108 22.0203 25.8524 22.1952 25.6555 22.3168C25.4586 22.4385 25.2314 22.502 24.9999 22.4999C24.8039 22.502 24.6104 22.4547 24.4374 22.3624C24.2909 22.2891 24.1602 22.1874 24.0531 22.0634C23.946 21.9393 23.8645 21.7952 23.8134 21.6395C23.7623 21.4838 23.7425 21.3195 23.7552 21.1561C23.7679 20.9926 23.8129 20.8334 23.8874 20.6874L26.6624 15.1499C27.4374 15.4124 28.1999 15.7249 28.9749 16.0749Z" fill="#EAAC47"/>
<path d="M20 13.7875V21.25C20 21.5815 19.8683 21.8995 19.6339 22.1339C19.3995 22.3683 19.0815 22.5 18.75 22.5C18.4185 22.5 18.1005 22.3683 17.8661 22.1339C17.6317 21.8995 17.5 21.5815 17.5 21.25V13.7875C18.3326 13.7375 19.1674 13.7375 20 13.7875Z" fill="#EAAC47"/>
</svg>
