<svg width="80" height="80" viewBox="0 0 80 80" fill="none" xmlns="http://www.w3.org/2000/svg">
<path d="M6.3158 37.8945H73.6842V46.3156H6.3158V37.8945Z" fill="#ECAB2C"/>
<path d="M63.5503 80.0001H16.4498C15.2176 80.0001 14.0304 79.5371 13.1236 78.7027C12.2168 77.8684 11.6567 76.7237 11.5544 75.4958L9.12283 46.3159H70.8772L68.4456 75.4958C68.3433 76.7237 67.7832 77.8684 66.8764 78.7027C65.9697 79.5371 64.7825 80.0001 63.5503 80.0001Z" fill="#D78E0C"/>
<path d="M34.536 38.8388C34.9655 38.4894 35.4597 38.2281 35.9904 38.0699C36.5211 37.9118 37.0777 37.8598 37.6285 37.9171C38.1792 37.9744 38.7133 38.1397 39.2001 38.4036C39.6868 38.6676 40.1168 39.0249 40.4653 39.4553L60.3039 62.5024C60.6709 62.9287 60.9487 63.4243 61.1209 63.9599C61.293 64.4955 61.3561 65.0601 61.3064 65.6205C61.2566 66.1808 61.095 66.7255 60.8311 67.2223C60.5673 67.7192 60.2065 68.1581 59.7701 68.5131C58.9199 69.2048 57.8334 69.5375 56.7417 69.4406C55.65 69.3436 54.6391 68.8246 53.9241 67.9939L33.9209 44.7548C33.2192 43.8882 32.8899 42.7787 33.0052 41.6696C33.1205 40.5606 33.671 39.5425 34.536 38.8388Z" fill="#D6D5D0"/>
<path d="M14.7368 5.61377H18.9474V11.2278H14.7368V5.61377Z" fill="#D78E0C"/>
<path d="M18.9474 5.61377H32.605C33.8218 5.61377 34.9888 6.09715 35.8492 6.95756C36.7096 7.81797 37.193 8.98494 37.193 10.2018V12.6313H18.9474V5.61377Z" fill="#ECAB2C"/>
<path d="M16.1403 22.4559L16.259 22.3373C18.9365 19.6598 20.836 16.3049 21.7544 12.6313H25.9649C25.9649 14.4112 25.6143 16.1737 24.9332 17.818C24.2521 19.4624 23.2537 20.9565 21.9952 22.2151L21.7544 22.4559H16.1403Z" fill="#B97A0A"/>
<path d="M34.3859 19.6494H25.9649C25.9649 22.3949 25.1522 25.0789 23.6293 27.3633L23.465 27.6098C21.4344 30.6557 20.3509 34.2344 20.3509 37.895H40C40 34.2344 38.9165 30.6557 36.8859 27.6098L36.7216 27.3633C35.1987 25.0789 34.386 22.3949 34.3859 19.6494Z" fill="#007AF6"/>
<path d="M25.9649 12.6313H34.386V19.6489H25.9649V12.6313Z" fill="#D78E0C"/>
<path d="M18.9474 35.0874C17.8307 35.0874 16.7597 35.531 15.9701 36.3206C15.1805 37.1103 14.7368 38.1812 14.7368 39.2979V45.5296C14.7368 47.4322 16.2163 49.0526 18.1177 49.1202C18.5889 49.1374 19.0588 49.0594 19.4992 48.891C19.9396 48.7225 20.3416 48.467 20.6811 48.1397C21.0205 47.8124 21.2905 47.42 21.4749 46.986C21.6594 46.552 21.7544 46.0853 21.7544 45.6137V46.9331C21.7544 48.8357 23.2338 50.4561 25.1352 50.5237C25.6065 50.5409 26.0763 50.4629 26.5168 50.2945C26.9572 50.126 27.3591 49.8705 27.6986 49.5432C28.0381 49.2159 28.3081 48.8235 28.4925 48.3895C28.6769 47.9555 28.7719 47.4888 28.7719 47.0172C28.7719 47.9478 29.1416 48.8403 29.7996 49.4983C30.4577 50.1563 31.3501 50.526 32.2807 50.526C33.2113 50.526 34.1038 50.1563 34.7618 49.4983C35.4198 48.8403 35.7895 47.9478 35.7895 47.0172C35.7895 47.4888 35.8845 47.9555 36.0689 48.3895C36.2533 48.8235 36.5233 49.2159 36.8628 49.5432C37.2023 49.8705 37.6042 50.126 38.0447 50.2945C38.4851 50.4629 38.955 50.5409 39.4262 50.5237C41.3276 50.4561 42.807 48.8357 42.807 46.9331V39.2979C42.807 38.1812 42.3634 37.1103 41.5738 36.3206C40.7842 35.531 39.7132 35.0874 38.5965 35.0874H18.9474Z" fill="#F08B24"/>
<path d="M21.7544 68.7715H44.2105V79.9996H21.7544V68.7715Z" fill="#FF8AA0"/>
<path d="M40 64.561H25.9649C23.6395 64.561 21.7544 66.4462 21.7544 68.7716C21.7544 71.097 23.6395 72.9821 25.9649 72.9821H40C42.3254 72.9821 44.2105 71.097 44.2105 68.7716C44.2105 66.4462 42.3254 64.561 40 64.561Z" fill="#FFA6B7"/>
<path d="M45.614 21.0527H65.2631V37.8948H45.614V21.0527Z" fill="#D6D5D0"/>
<path d="M62.4561 12.6314H59.6491V8.4209H51.228V12.6314H48.421L45.614 21.0525H65.2631L62.4561 12.6314Z" fill="#007AF6"/>
<path d="M49.8245 0H61.0526V8.42105H49.8245V0Z" fill="#D6D5D0"/>
<path d="M21.7544 68.7717C23.3046 68.7717 24.5614 67.515 24.5614 65.9647C24.5614 64.4145 23.3046 63.1577 21.7544 63.1577C20.2041 63.1577 18.9474 64.4145 18.9474 65.9647C18.9474 67.515 20.2041 68.7717 21.7544 68.7717Z" fill="#FF8AA0"/>
<path d="M28.772 60.3509C30.3222 60.3509 31.579 59.0941 31.579 57.5438C31.579 55.9936 30.3222 54.7368 28.772 54.7368C27.2217 54.7368 25.9649 55.9936 25.9649 57.5438C25.9649 59.0941 27.2217 60.3509 28.772 60.3509Z" fill="#FF8AA0"/>
<path d="M23.1579 42.1057V49.8057C22.7205 49.4656 22.3667 49.03 22.1234 48.5323C21.8802 48.0345 21.7539 47.4877 21.7544 46.9337V45.6144C21.7548 46.1592 21.6282 46.6966 21.3845 47.1839C21.1409 47.6712 20.787 48.0949 20.3509 48.4214V42.1057C20.3509 41.7334 20.4987 41.3764 20.7619 41.1132C21.0251 40.85 21.3821 40.7021 21.7544 40.7021C22.1266 40.7021 22.4836 40.85 22.7468 41.1132C23.01 41.3764 23.1579 41.7334 23.1579 42.1057Z" fill="#DA7E21"/>
<path d="M30.1754 42.1057V49.825C29.7393 49.4984 29.3853 49.0747 29.1417 48.5874C28.898 48.1001 28.7714 47.5627 28.7719 47.0179C28.7723 47.5627 28.6457 48.1001 28.402 48.5874C28.1584 49.0747 27.8045 49.4984 27.3683 49.825V42.1057C27.3683 41.7334 27.5162 41.3764 27.7794 41.1132C28.0426 40.85 28.3996 40.7021 28.7719 40.7021C29.1441 40.7021 29.5011 40.85 29.7643 41.1132C30.0275 41.3764 30.1754 41.7334 30.1754 42.1057Z" fill="#DA7E21"/>
<path d="M37.1929 42.1057V49.825C36.7568 49.4984 36.4029 49.0747 36.1593 48.5874C35.9156 48.1001 35.789 47.5627 35.7894 47.0179C35.7899 47.5627 35.6633 48.1001 35.4196 48.5874C35.176 49.0747 34.822 49.4984 34.3859 49.825V42.1057C34.3859 41.7334 34.5338 41.3764 34.797 41.1132C35.0602 40.85 35.4172 40.7021 35.7894 40.7021C36.1617 40.7021 36.5187 40.85 36.7819 41.1132C37.0451 41.3764 37.1929 41.7334 37.1929 42.1057Z" fill="#DA7E21"/>
<path d="M51.2281 8.4209H59.6491V10.3507H51.2281V8.4209Z" fill="#005DBB"/>
</svg>
