<svg width="80" height="80" viewBox="0 0 80 80" fill="none" xmlns="http://www.w3.org/2000/svg">
<rect width="80" height="80" fill="#FAFAFA"/>
<g clip-path="url(#clip0_5_797)">
<path d="M19.3549 64.5161C23.6258 64.5161 27.0968 67.9871 27.0968 72.258C27.0968 76.529 23.6258 80 19.3549 80C15.0839 80 11.6129 76.529 11.6129 72.258C11.6129 67.9871 15.0839 64.5161 19.3549 64.5161ZM21.9355 72.258C21.9355 70.8387 20.7742 69.6774 19.3549 69.6774C17.9355 69.6774 16.7742 70.8387 16.7742 72.258C16.7742 73.6774 17.9355 74.8387 19.3549 74.8387C20.7742 74.8387 21.9355 73.6774 21.9355 72.258Z" fill="#656D78"/>
<path d="M19.3548 69.6772C20.7742 69.6772 21.9355 70.8385 21.9355 72.2579C21.9355 73.6772 20.7742 74.8385 19.3548 74.8385C17.9355 74.8385 16.7742 73.6772 16.7742 72.2579C16.7742 70.8385 17.9355 69.6772 19.3548 69.6772Z" fill="#CCD1D9"/>
<path d="M61.9355 69.6772C63.3549 69.6772 64.5161 70.8385 64.5161 72.2579C64.5161 73.6772 63.3549 74.8385 61.9355 74.8385C60.5161 74.8385 59.3549 73.6772 59.3549 72.2579C59.3549 70.8385 60.5161 69.6772 61.9355 69.6772Z" fill="#CCD1D9"/>
<path d="M54.1936 72.258C54.1936 67.9871 57.6646 64.5161 61.9355 64.5161C66.2065 64.5161 69.6775 67.9871 69.6775 72.258C69.6775 76.529 66.2065 80 61.9355 80C57.6646 80 54.1936 76.529 54.1936 72.258ZM64.5162 72.258C64.5162 70.8387 63.3549 69.6774 61.9355 69.6774C60.5162 69.6774 59.3549 70.8387 59.3549 72.258C59.3549 73.6774 60.5162 74.8387 61.9355 74.8387C63.3549 74.8387 64.5162 73.6774 64.5162 72.258Z" fill="#656D78"/>
<path d="M80 67.0969V72.2582H69.6774C69.6774 67.9873 66.2065 64.5163 61.9355 64.5163C57.6645 64.5163 54.1935 67.9873 54.1935 72.2582H27.0968C27.0968 67.9873 23.6258 64.5163 19.3548 64.5163C15.0839 64.5163 11.6129 67.9873 11.6129 72.2582L2.58065 72.284V67.0969H0V50.3227H5.16129H24.5161H32.2581H51.6129V34.8389H58.0645V46.4518C58.0645 49.3034 60.3742 51.6131 63.2258 51.6131H78.7097V60.6453V67.0969H80Z" fill="#FFCE54"/>
<path d="M70.9677 34.8389L78.7096 51.6131H63.2257C60.3741 51.6131 58.0645 49.3034 58.0645 46.4518V34.8389H70.9677Z" fill="#5D9CEC"/>
<path d="M78.7096 67.0967V60.6451V51.6128H73.5483V60.6451V72.258H80V67.0967H78.7096Z" fill="#F6BB42"/>
<path d="M78.7096 51.6131L70.9677 34.8389H65.8064L73.5483 51.6131H78.7096Z" fill="#4A89DC"/>
<path d="M55.4838 19.3548V24.5161L51.6129 21.7548L28.3871 5.16129L5.16125 21.7548L1.29028 24.5161V19.3548L28.3871 0L55.4838 19.3548Z" fill="#ED5565"/>
<path d="M46.4516 28.3872H37.4193V37.4195H46.4516V28.3872Z" fill="#5D9CEC"/>
<path d="M28.3871 16.7744C30.529 16.7744 32.258 18.5034 32.258 20.6454C32.258 22.7873 30.529 24.5163 28.3871 24.5163C26.2451 24.5163 24.5161 22.7873 24.5161 20.6454C24.5161 18.5034 26.2451 16.7744 28.3871 16.7744Z" fill="#5D9CEC"/>
<path d="M32.258 34.8389H24.5161V50.3227H32.258V34.8389Z" fill="#ED5565"/>
<path d="M19.3549 28.3872H10.3226V37.4195H19.3549V28.3872Z" fill="#5D9CEC"/>
<path d="M51.6129 34.8386V50.3224H32.258V34.8386H24.5161V50.3224H5.16125V21.7547L28.3871 5.16113L51.6129 21.7547V34.8386ZM46.4516 37.4192V28.3869H37.4193V37.4192H46.4516ZM32.258 20.645C32.258 18.5031 30.529 16.774 28.3871 16.774C26.2451 16.774 24.5161 18.5031 24.5161 20.645C24.5161 22.7869 26.2451 24.516 28.3871 24.516C30.529 24.516 32.258 22.7869 32.258 20.645ZM19.3548 37.4192V28.3869H10.3225V37.4192H19.3548Z" fill="#E6E9ED"/>
<path d="M46.4517 18.0684V25.9355V28.3871V37.4193V50.3226H51.613V34.8387V21.7548L46.4517 18.0684Z" fill="#CCD1D9"/>
<path d="M50.3226 20.8336L51.613 21.7549L55.4839 24.5162V19.3549L50.3226 15.6685V20.8336Z" fill="#DA4453"/>
<path d="M78.7097 59.355H77.4194C76.7058 59.355 76.129 59.9318 76.129 60.6453C76.129 61.3589 76.7058 61.9356 77.4194 61.9356H78.7097V59.355Z" fill="#E6E9ED"/>
</g>
<defs>
<clipPath id="clip0_5_797">
<rect width="80" height="80" fill="white"/>
</clipPath>
</defs>
</svg>
