<svg width="80" height="80" viewBox="0 0 80 80" fill="none" xmlns="http://www.w3.org/2000/svg">
<rect width="80" height="80" fill="#FAFAFA"/>
<path d="M40.054 40.8312C39.3859 40.8312 38.8444 40.2896 38.8444 39.6215V34.1976C38.8444 32.0737 40.3628 30.2666 42.4547 29.9005L71.8464 24.756C72.7783 24.593 73.4545 23.788 73.4545 22.8421V13.5396C73.4545 12.4682 72.5828 11.5966 71.5114 11.5966H68.3254C67.6573 11.5966 67.1158 11.0551 67.1158 10.3869C67.1158 9.71881 67.6573 9.17725 68.3254 9.17725H71.5114C73.9169 9.17725 75.8739 11.1341 75.8739 13.5396V22.8419C75.8739 24.9658 74.3554 26.7729 72.2634 27.139L42.8717 32.2835C41.9398 32.4465 41.2637 33.2515 41.2637 34.1974V39.6213C41.2636 40.2896 40.7222 40.8312 40.054 40.8312Z" fill="#8C808A"/>
<path d="M4.93269 4.93311H8.94519V15.8404H4.93269C4.48722 15.8404 4.12628 15.4794 4.12628 15.034V5.73951C4.12613 5.2942 4.48722 4.93311 4.93269 4.93311Z" fill="#E6E2E6"/>
<path d="M4.93266 15.8406H8.94516V12.9375H4.1261V15.0342C4.1261 15.4797 4.48719 15.8406 4.93266 15.8406Z" fill="#D8D1D7"/>
<path d="M45.3606 45.375H34.7473C34.3019 45.375 33.9409 45.7361 33.9409 46.1814V73.887C33.9409 77.2633 36.6778 80.0002 40.054 80.0002C43.4303 80.0002 46.1672 77.2633 46.1672 73.887V46.1814C46.167 45.7361 45.8059 45.375 45.3606 45.375Z" fill="#8C808A"/>
<path d="M40.0539 77.0965C36.6777 77.0965 33.9408 74.3596 33.9408 70.9834V73.8867C33.9408 77.2629 36.6777 79.9998 40.0539 79.9998C43.4302 79.9998 46.167 77.2629 46.167 73.8867V70.9834C46.167 74.3596 43.4302 77.0965 40.0539 77.0965Z" fill="#7B7179"/>
<path d="M44.6949 45.3749H35.4131V40.428C35.4131 39.9827 35.7742 39.6216 36.2196 39.6216H43.8883C44.3336 39.6216 44.6947 39.9827 44.6947 40.428V45.3749H44.6949Z" fill="#E6E2E6"/>
<path d="M35.4131 42.4717H44.6949V45.375H35.4131V42.4717Z" fill="#D8D1D7"/>
<path d="M65.1725 20.7741H12.0978C10.3566 20.7741 8.94501 19.3625 8.94501 17.6213V3.15281C8.94516 1.41156 10.3567 0 12.0978 0H65.1725C66.9138 0 68.3253 1.41156 68.3253 3.15281V17.6213C68.3253 19.3625 66.9138 20.7741 65.1725 20.7741Z" fill="#FFE9C8"/>
<path d="M65.1725 17.8706H12.0978C10.3566 17.8706 8.94519 16.459 8.94519 14.7178V17.6211C8.94519 19.3623 10.3568 20.7739 12.0978 20.7739H65.1725C66.9138 20.7739 68.3254 19.3623 68.3254 17.6211V14.7178C68.3254 16.459 66.9138 17.8706 65.1725 17.8706Z" fill="#FFDCA7"/>
<path d="M21.235 0V28.0058C21.235 29.9777 22.8334 31.5761 24.8053 31.5761C26.7772 31.5761 28.3756 29.9777 28.3756 28.0058V9.55891C28.3756 7.58703 29.9742 5.98859 31.9459 5.98859C33.9178 5.98859 35.5162 7.58703 35.5162 9.55891V12.2703C35.5162 14.2422 37.1147 15.8406 39.0865 15.8406C41.0584 15.8406 42.6569 14.2422 42.6569 12.2703V0H21.235Z" fill="#FF656B"/>
<path d="M39.0869 12.9375C37.115 12.9375 35.5166 11.339 35.5166 9.36717V6.65576C35.5166 4.68389 33.9181 3.08545 31.9461 3.08545C29.9742 3.08545 28.3758 4.68389 28.3758 6.65576V9.55904C28.3758 7.58717 29.9744 5.98873 31.9461 5.98873C33.918 5.98873 35.5166 7.58717 35.5166 9.55904V12.2703C35.5166 14.2422 37.115 15.8406 39.0869 15.8406C41.0588 15.8406 42.6572 14.2422 42.6572 12.2703V9.36701C42.6572 11.3389 41.0588 12.9375 39.0869 12.9375Z" fill="#FF3E4C"/>
<path d="M24.8053 28.6729C22.8334 28.6729 21.235 27.0744 21.235 25.1025V28.0058C21.235 29.9777 22.8334 31.5761 24.8053 31.5761C26.7772 31.5761 28.3756 29.9777 28.3756 28.0058V25.1025C28.3758 27.0744 26.7772 28.6729 24.8053 28.6729Z" fill="#FF3E4C"/>
</svg>
