<svg width="80" height="80" viewBox="0 0 80 80" fill="none" xmlns="http://www.w3.org/2000/svg">
<rect width="80" height="80" fill="#FAFAFA"/>
<g clip-path="url(#clip0_5_683)">
<path d="M19.8094 18.2513C17.6549 16.9361 14.7349 17.7961 13.2031 19.6694V14.3899C15.4622 12.1452 15.1833 7.43363 12.0722 6.04004C9.05705 7.50848 8.67471 11.9444 10.8594 14.2688V19.65C9.32705 17.7946 6.41236 16.9355 4.26893 18.2513C3.77799 21.6847 7.7158 24.4586 10.8594 23.6443V29.0869H13.2031V23.64C16.3411 24.4641 20.3131 21.6916 19.8094 18.2513Z" fill="#B3E59F"/>
<path d="M25.8594 46.9141H0V59.4141H25.8594V46.9141Z" fill="#FFE09F"/>
<path d="M25.8594 59.4141H0V71.6016H25.8594V59.4141Z" fill="#FFE09F"/>
<path d="M25.8594 46.9141H19.6094V59.4141H25.8594V46.9141Z" fill="#F6D190"/>
<path d="M25.8594 59.4141H19.6094V71.6016H25.8594V59.4141Z" fill="#F6D190"/>
<path d="M26.7853 2.52094C26.7853 1.45219 27.6515 0.585938 28.7201 0.585938H72.4403C73.509 0.585938 74.3751 1.45219 74.3751 2.52094V31.0436C74.3751 32.1122 73.509 32.9784 72.4403 32.9784H28.7201C27.6515 32.9784 26.7853 32.1122 26.7853 31.0436V2.52094Z" fill="#857E87"/>
<path d="M72.4401 0.585938H66.1901C67.2588 0.585938 68.1249 1.45219 68.1249 2.52094V31.0436C68.1249 32.1122 67.2588 32.9784 66.1901 32.9784H72.4401C73.5088 32.9784 74.3749 32.1122 74.3749 31.0436V2.52094C74.3749 1.45219 73.5088 0.585938 72.4401 0.585938Z" fill="#5D5360"/>
<path d="M55.5267 32.666H45.6335V39.5898H55.5267V32.666Z" fill="#DFDDE0"/>
<path d="M55.5267 32.666H52.4017V39.5898H55.5267V32.666Z" fill="#C8C5C9"/>
<path d="M26.7853 31.0437C26.7853 32.1123 27.6515 32.9785 28.7201 32.9785H72.4403C73.509 32.9785 74.3751 32.1123 74.3751 31.0437V26.416H26.7853V31.0437Z" fill="#F0EEF0"/>
<path d="M68.1249 26.416V31.0437C68.1249 32.1123 67.2588 32.9785 66.1901 32.9785H72.4401C73.5088 32.9785 74.3749 32.1123 74.3749 31.0437V26.416H68.1249Z" fill="#DFDDE0"/>
<path d="M18.7427 28.2275C19.1788 28.2275 19.5324 28.5849 19.5243 29.0208C19.4208 34.5579 18.1365 39.3994 11.7971 39.3994C5.30786 39.3994 4.15958 34.5569 4.06896 29.0194C4.06177 28.5839 4.41489 28.2275 4.85052 28.2275H18.7427Z" fill="#FF8086"/>
<path d="M18.7426 28.2275H14.0551C14.4912 28.2275 14.8448 28.5849 14.8367 29.021C14.7473 33.8021 13.7745 38.0616 9.4303 39.1364C10.128 39.3064 10.9112 39.3996 11.797 39.3996C18.1365 39.3996 19.4208 34.558 19.5242 29.021C19.5323 28.5849 19.1787 28.2275 18.7426 28.2275Z" fill="#E5646E"/>
<path d="M78.8281 38.376H1.17188C0.524531 38.376 0 38.9007 0 39.5479V48.3986H77.6562V78.2424C77.6562 79.7538 80 79.7538 80 78.2424V39.5479C80 38.9007 79.4755 38.376 78.8281 38.376Z" fill="#E2A975"/>
<path d="M78.8281 38.376H72.5781C73.2255 38.376 73.75 38.9007 73.75 39.5479V46.0549V48.3986H77.6562V78.2424C77.6562 79.7538 80 79.7538 80 78.2424V39.5479C80 38.9007 79.4755 38.376 78.8281 38.376Z" fill="#C38C66"/>
<path d="M25.8594 58.2422H0V60.5859H25.8594V58.2422Z" fill="#E2A975"/>
<path d="M25.8594 58.2422H19.6094V60.5859H25.8594V58.2422Z" fill="#C38C66"/>
<path d="M0 70.4297V72.7734V78.1931C0 79.7252 2.34375 79.7819 2.34375 78.2422V72.7734H23.5156V78.2805C23.5156 79.7825 25.8594 79.7245 25.8594 78.2422V70.4297H0Z" fill="#E2A975"/>
<path d="M19.6094 70.4297V72.7734H23.5156V78.2662C23.5156 79.7783 25.8594 79.7322 25.8594 78.2422V70.4297H19.6094Z" fill="#C38C66"/>
<path d="M17.4219 54.4922H8.51563C7.00423 54.4922 7.00423 52.1484 8.51563 52.1484H17.4219C18.9333 52.1484 18.9333 54.4922 17.4219 54.4922Z" fill="#C38C66"/>
<path d="M17.4219 66.6797H8.51563C7.00423 66.6797 7.00423 64.3359 8.51563 64.3359H17.4219C18.9333 64.3359 18.9333 66.6797 17.4219 66.6797Z" fill="#C38C66"/>
<path d="M68.4542 12.7588V46.4307C68.4542 46.4307 60.798 43.2275 60.798 29.4775C60.798 15.7275 68.4542 12.7588 68.4542 12.7588Z" fill="#B3E59F"/>
<path d="M68.5199 52.8775C68.4591 58.2075 67.5537 61.5869 61.5793 61.5869H36.2668C36.2668 61.5869 35.3293 52.8369 47.5168 52.8369C56.5793 52.8369 68.4543 52.8369 68.4543 52.8369" fill="#B3E59F"/>
<path d="M68.75 77.0701H53.75V62.7586H61.5791C64.2694 62.7586 66.2141 62.11 67.5247 60.7757C69.8214 58.4375 69.7515 54.5223 69.6629 49.5653C69.6447 48.5568 69.6261 12.7586 69.6261 12.7586C69.6261 11.2471 67.2824 11.2471 67.2824 12.7586C67.2824 12.7586 67.3013 48.5886 67.3194 49.6073C67.3983 54.015 67.4607 57.4965 65.8527 59.1334C65.0057 59.9957 63.6079 60.4148 61.5791 60.4148H36.2666C34.7552 60.4148 34.7552 62.7586 36.2666 62.7586H51.4063V64.8679H46.7969C45.2855 64.8679 45.2855 67.2117 46.7969 67.2117H51.4063V77.0701H36.4063C34.8949 77.0701 34.8949 79.4139 36.4063 79.4139H68.75C70.2615 79.4139 70.2615 77.0701 68.75 77.0701Z" fill="#95D6A4"/>
</g>
<defs>
<clipPath id="clip0_5_683">
<rect width="80" height="80" fill="white"/>
</clipPath>
</defs>
</svg>
