<svg width="80" height="80" viewBox="0 0 80 80" fill="none" xmlns="http://www.w3.org/2000/svg">
<path d="M23.4483 0H56.5517C57.2833 0 57.985 0.29064 58.5023 0.807981C59.0197 1.32532 59.3103 2.02699 59.3103 2.75862V12.4138H20.6896V2.75862C20.6896 2.02699 20.9803 1.32532 21.4976 0.807981C22.015 0.29064 22.7166 0 23.4483 0Z" fill="#3B97D3"/>
<path d="M9.65516 73.1035C9.28934 73.1035 8.93851 72.9582 8.67984 72.6995C8.42117 72.4408 8.27585 72.09 8.27585 71.7242V67.5863C8.27585 66.8546 8.56649 66.153 9.08383 65.6356C9.60117 65.1183 10.3028 64.8276 11.0345 64.8276H15.1724C15.5382 64.8276 15.889 64.973 16.1477 65.2316C16.4064 65.4903 16.5517 65.8411 16.5517 66.2069C16.5517 66.5728 16.4064 66.9236 16.1477 67.1823C15.889 67.4409 15.5382 67.5863 15.1724 67.5863H11.0345V71.7242C11.0345 72.09 10.8891 72.4408 10.6305 72.6995C10.3718 72.9582 10.021 73.1035 9.65516 73.1035Z" fill="#3F5C6C"/>
<path d="M31.7241 73.1035C31.3583 73.1035 31.0075 72.9582 30.7488 72.6995C30.4901 72.4408 30.3448 72.09 30.3448 71.7242V67.5863H26.2069C25.8411 67.5863 25.4902 67.4409 25.2316 67.1823C24.9729 66.9236 24.8276 66.5728 24.8276 66.2069C24.8276 65.8411 24.9729 65.4903 25.2316 65.2316C25.4902 64.973 25.8411 64.8276 26.2069 64.8276H30.3448C31.0764 64.8276 31.7781 65.1183 32.2955 65.6356C32.8128 66.153 33.1034 66.8546 33.1034 67.5863V71.7242C33.1034 72.09 32.9581 72.4408 32.6994 72.6995C32.4408 72.9582 32.0899 73.1035 31.7241 73.1035Z" fill="#3F5C6C"/>
<path d="M20.6896 73.1035C20.3238 73.1035 19.973 72.9582 19.7143 72.6995C19.4557 72.4408 19.3103 72.09 19.3103 71.7242V66.2069C19.3103 65.8411 19.4557 65.4903 19.7143 65.2316C19.973 64.973 20.3238 64.8276 20.6896 64.8276C21.0555 64.8276 21.4063 64.973 21.665 65.2316C21.9236 65.4903 22.069 65.8411 22.069 66.2069V71.7242C22.069 72.09 21.9236 72.4408 21.665 72.6995C21.4063 72.9582 21.0555 73.1035 20.6896 73.1035Z" fill="#3F5C6C"/>
<path d="M48.2759 73.1035C47.91 73.1035 47.5592 72.9582 47.3005 72.6995C47.0419 72.4408 46.8965 72.09 46.8965 71.7242V67.5863C46.8965 66.8546 47.1872 66.153 47.7045 65.6356C48.2219 65.1183 48.9235 64.8276 49.6552 64.8276H53.7931C54.1589 64.8276 54.5097 64.973 54.7684 65.2316C55.0271 65.4903 55.1724 65.8411 55.1724 66.2069C55.1724 66.5728 55.0271 66.9236 54.7684 67.1823C54.5097 67.4409 54.1589 67.5863 53.7931 67.5863H49.6552V71.7242C49.6552 72.09 49.5098 72.4408 49.2512 72.6995C48.9925 72.9582 48.6417 73.1035 48.2759 73.1035Z" fill="#3F5C6C"/>
<path d="M70.3448 73.1035C69.979 73.1035 69.6282 72.9582 69.3695 72.6995C69.1108 72.4408 68.9655 72.09 68.9655 71.7242V67.5863H64.8276C64.4618 67.5863 64.1109 67.4409 63.8523 67.1823C63.5936 66.9236 63.4483 66.5728 63.4483 66.2069C63.4483 65.8411 63.5936 65.4903 63.8523 65.2316C64.1109 64.973 64.4618 64.8276 64.8276 64.8276H68.9655C69.6971 64.8276 70.3988 65.1183 70.9162 65.6356C71.4335 66.153 71.7241 66.8546 71.7241 67.5863V71.7242C71.7241 72.09 71.5788 72.4408 71.3201 72.6995C71.0615 72.9582 70.7106 73.1035 70.3448 73.1035Z" fill="#3F5C6C"/>
<path d="M59.3103 73.1035C58.9445 73.1035 58.5937 72.9582 58.335 72.6995C58.0763 72.4408 57.931 72.09 57.931 71.7242V66.2069C57.931 65.8411 58.0763 65.4903 58.335 65.2316C58.5937 64.973 58.9445 64.8276 59.3103 64.8276C59.6762 64.8276 60.027 64.973 60.2857 65.2316C60.5443 65.4903 60.6897 65.8411 60.6897 66.2069V71.7242C60.6897 72.09 60.5443 72.4408 60.2857 72.6995C60.027 72.9582 59.6762 73.1035 59.3103 73.1035Z" fill="#3F5C6C"/>
<path d="M2.75862 71.7241H77.2414C77.973 71.7241 78.6747 72.0148 79.192 72.5321C79.7094 73.0494 80 73.7511 80 74.4827V78.6207C80 78.9865 79.8547 79.3373 79.596 79.596C79.3373 79.8547 78.9865 80 78.6207 80H1.37931C1.01349 80 0.662661 79.8547 0.403991 79.596C0.14532 79.3373 0 78.9865 0 78.6207V74.4827C0 73.7511 0.29064 73.0494 0.807981 72.5321C1.32532 72.0148 2.02699 71.7241 2.75862 71.7241Z" fill="#95A5A5"/>
<path d="M77.2414 19.3105H2.75862C1.23508 19.3105 0 20.5456 0 22.0692V35.8623C0 37.3858 1.23508 38.6209 2.75862 38.6209H77.2414C78.7649 38.6209 80 37.3858 80 35.8623V22.0692C80 20.5456 78.7649 19.3105 77.2414 19.3105Z" fill="#3B97D3"/>
<path d="M59.3103 11.0347H20.6896L8.27585 19.3105H71.7241L59.3103 11.0347Z" fill="#2980BA"/>
<path d="M8.27586 30.3447H71.7241C72.4558 30.3447 73.1574 30.6354 73.6748 31.1527C74.1921 31.6701 74.4827 32.3717 74.4827 33.1033V38.6206H5.51724V33.1033C5.51724 32.3717 5.80788 31.6701 6.32522 31.1527C6.84257 30.6354 7.54423 30.3447 8.27586 30.3447Z" fill="#285680"/>
<path d="M71.7241 26.2069H70.3448C69.979 26.2069 69.6282 26.0615 69.3695 25.8029C69.1108 25.5442 68.9655 25.1934 68.9655 24.8276C68.9655 24.4617 69.1108 24.1109 69.3695 23.8522C69.6282 23.5936 69.979 23.4482 70.3448 23.4482H71.7241C72.09 23.4482 72.4408 23.5936 72.6995 23.8522C72.9581 24.1109 73.1034 24.4617 73.1034 24.8276C73.1034 25.1934 72.9581 25.5442 72.6995 25.8029C72.4408 26.0615 72.09 26.2069 71.7241 26.2069Z" fill="#D1D4D1"/>
<path d="M64.8276 26.2069H63.4483C63.0825 26.2069 62.7316 26.0615 62.473 25.8029C62.2143 25.5442 62.069 25.1934 62.069 24.8276C62.069 24.4617 62.2143 24.1109 62.473 23.8522C62.7316 23.5936 63.0825 23.4482 63.4483 23.4482H64.8276C65.1934 23.4482 65.5442 23.5936 65.8029 23.8522C66.0616 24.1109 66.2069 24.4617 66.2069 24.8276C66.2069 25.1934 66.0616 25.5442 65.8029 25.8029C65.5442 26.0615 65.1934 26.2069 64.8276 26.2069Z" fill="#D1D4D1"/>
<path d="M9.65517 26.2069H8.27586C7.91004 26.2069 7.55921 26.0615 7.30054 25.8029C7.04187 25.5442 6.89655 25.1934 6.89655 24.8276C6.89655 24.4617 7.04187 24.1109 7.30054 23.8522C7.55921 23.5936 7.91004 23.4482 8.27586 23.4482H9.65517C10.021 23.4482 10.3718 23.5936 10.6305 23.8522C10.8892 24.1109 11.0345 24.4617 11.0345 24.8276C11.0345 25.1934 10.8892 25.5442 10.6305 25.8029C10.3718 26.0615 10.021 26.2069 9.65517 26.2069Z" fill="#D1D4D1"/>
<path d="M23.4483 57.9309C23.1987 57.9307 22.9538 57.8627 22.7398 57.7343C22.5258 57.6059 22.3506 57.4218 22.2329 57.2017C22.1153 56.9816 22.0596 56.7336 22.0718 56.4843C22.0839 56.235 22.1635 55.9937 22.3021 55.7861L24.04 53.1792C24.1909 52.9527 24.2715 52.6865 24.2715 52.4143C24.2715 52.1421 24.1909 51.876 24.04 51.6495L23.3228 50.5709C22.8674 49.8918 22.6243 49.0926 22.6243 48.275C22.6243 47.4574 22.8674 46.6583 23.3228 45.9792L25.0607 43.3723C25.2637 43.0679 25.5793 42.8567 25.9381 42.785C26.2969 42.7134 26.6694 42.7872 26.9738 42.9902C27.2781 43.1932 27.4894 43.5088 27.561 43.8676C27.6327 44.2264 27.5589 44.5989 27.3559 44.9033L25.6179 47.5102C25.467 47.7367 25.3865 48.0028 25.3865 48.275C25.3865 48.5472 25.467 48.8133 25.6179 49.0399L26.3352 50.1185C26.7905 50.7976 27.0336 51.5967 27.0336 52.4143C27.0336 53.232 26.7905 54.0311 26.3352 54.7102L24.5972 57.3171C24.4711 57.5061 24.3002 57.6611 24.0998 57.7682C23.8993 57.8753 23.6755 57.9312 23.4483 57.9309Z" fill="#BDC3C7"/>
<path d="M15.1724 57.9309C14.9228 57.9307 14.678 57.8627 14.4639 57.7343C14.2499 57.6059 14.0747 57.4218 13.9571 57.2017C13.8395 56.9816 13.7838 56.7336 13.7959 56.4843C13.8081 56.235 13.8877 55.9937 14.0262 55.7861L15.7641 53.1792C15.9151 52.9527 15.9956 52.6865 15.9956 52.4143C15.9956 52.1421 15.9151 51.876 15.7641 51.6495L15.0469 50.5709C14.5916 49.8918 14.3485 49.0926 14.3485 48.275C14.3485 47.4574 14.5916 46.6583 15.0469 45.9792L16.7848 43.3723C16.9879 43.0679 17.3035 42.8567 17.6623 42.785C18.021 42.7134 18.3936 42.7872 18.6979 42.9902C19.0023 43.1932 19.2135 43.5088 19.2852 43.8676C19.3568 44.2264 19.283 44.5989 19.08 44.9033L17.3421 47.5102C17.1911 47.7367 17.1106 48.0028 17.1106 48.275C17.1106 48.5472 17.1911 48.8133 17.3421 49.0399L18.0593 50.1185C18.5146 50.7976 18.7577 51.5967 18.7577 52.4143C18.7577 53.232 18.5146 54.0311 18.0593 54.7102L16.3214 57.3171C16.1953 57.5061 16.0244 57.6611 15.8239 57.7682C15.6235 57.8753 15.3997 57.9312 15.1724 57.9309Z" fill="#BDC3C7"/>
<path d="M62.069 57.9309C61.8194 57.9307 61.5745 57.8627 61.3605 57.7343C61.1464 57.6059 60.9713 57.4218 60.8536 57.2017C60.736 56.9815 60.6803 56.7336 60.6925 56.4843C60.7046 56.235 60.7842 55.9937 60.9228 55.7861L62.6621 53.1792C62.8133 52.9525 62.894 52.6861 62.894 52.4136C62.894 52.1412 62.8133 51.8748 62.6621 51.6481L61.9448 50.5709C61.4895 49.8918 61.2464 49.0926 61.2464 48.275C61.2464 47.4574 61.4895 46.6583 61.9448 45.9792L63.6828 43.3723C63.7833 43.2216 63.9125 43.0921 64.0631 42.9914C64.2136 42.8906 64.3825 42.8205 64.5602 42.785C64.7378 42.7495 64.9207 42.7494 65.0984 42.7846C65.2761 42.8198 65.4452 42.8897 65.5959 42.9902C65.7466 43.0907 65.876 43.22 65.9767 43.3705C66.0775 43.5211 66.1476 43.69 66.1831 43.8676C66.2186 44.0453 66.2187 44.2282 66.1835 44.4059C66.1483 44.5836 66.0785 44.7526 65.9779 44.9033L64.24 47.5102C64.0891 47.7367 64.0085 48.0028 64.0085 48.275C64.0085 48.5472 64.0891 48.8133 64.24 49.0399L64.96 50.1185C65.4131 50.7982 65.6549 51.5968 65.6549 52.4136C65.6549 53.2305 65.4131 54.0291 64.96 54.7088L63.2207 57.3171C63.0943 57.5065 62.923 57.6617 62.722 57.7688C62.521 57.8759 62.2967 57.9316 62.069 57.9309Z" fill="#BDC3C7"/>
<path d="M53.7931 57.9309C53.5435 57.9307 53.2986 57.8627 53.0846 57.7343C52.8706 57.6059 52.6954 57.4218 52.5778 57.2017C52.4601 56.9815 52.4044 56.7336 52.4166 56.4843C52.4288 56.235 52.5083 55.9937 52.6469 55.7861L54.3848 53.1792C54.5357 52.9526 54.6163 52.6865 54.6163 52.4143C54.6163 52.1421 54.5357 51.876 54.3848 51.6495L53.6676 50.5709C53.2123 49.8918 52.9692 49.0926 52.9692 48.275C52.9692 47.4574 53.2123 46.6583 53.6676 45.9792L55.4055 43.3723C55.506 43.2216 55.6353 43.0921 55.7858 42.9914C55.9364 42.8906 56.1053 42.8205 56.2829 42.785C56.4606 42.7495 56.6435 42.7494 56.8212 42.7846C56.9989 42.8198 57.1679 42.8897 57.3186 42.9902C57.4693 43.0907 57.5987 43.22 57.6995 43.3705C57.8003 43.5211 57.8704 43.69 57.9059 43.8676C57.9413 44.0453 57.9415 44.2282 57.9063 44.4059C57.8711 44.5836 57.8012 44.7526 57.7007 44.9033L55.9627 47.5102C55.8118 47.7367 55.7313 48.0028 55.7313 48.275C55.7313 48.5472 55.8118 48.8133 55.9627 49.0399L56.68 50.1185C57.1353 50.7976 57.3784 51.5967 57.3784 52.4143C57.3784 53.2319 57.1353 54.0311 56.68 54.7102L54.942 57.3171C54.8159 57.5061 54.645 57.6611 54.4446 57.7682C54.2441 57.8752 54.0203 57.9311 53.7931 57.9309Z" fill="#BDC3C7"/>
</svg>
