<svg width="80" height="80" viewBox="0 0 80 80" fill="none" xmlns="http://www.w3.org/2000/svg">
<g clip-path="url(#clip0_5_995)">
<path d="M51.5625 37.5V43.75C51.5625 45.4759 50.1634 46.875 48.4375 46.875V50H42.1875V46.875C40.4616 46.875 39.0625 45.4759 39.0625 43.75V37.5H51.5625Z" fill="#D5DCED"/>
<path d="M51.5625 37.5V43.75C51.5625 45.4759 50.1634 46.875 48.4375 46.875V48.4375H43.75V46.875C45.4759 46.875 46.875 45.4759 46.875 43.75V37.5H51.5625Z" fill="#AFB9D2"/>
<path d="M73.0469 21.875V26.5625C73.0469 28.0702 71.8202 29.2969 70.3125 29.2969H57.8125C56.3048 29.2969 55.0781 28.0702 55.0781 26.5625V21.875C55.0781 21.2278 55.6027 20.7031 56.25 20.7031C56.8973 20.7031 57.4219 21.2278 57.4219 21.875V26.5625C57.4219 26.7778 57.597 26.9531 57.8125 26.9531H70.3125C70.528 26.9531 70.7031 26.7778 70.7031 26.5625V21.875C70.7031 21.2278 71.2277 20.7031 71.875 20.7031C72.5223 20.7031 73.0469 21.2278 73.0469 21.875ZM51.9531 36.3281H46.4844V35.9375C46.4844 35.2903 45.9598 34.7656 45.3125 34.7656C44.6652 34.7656 44.1406 35.2903 44.1406 35.9375V36.3281H38.6719C38.0247 36.3281 37.5 36.8528 37.5 37.5C37.5 38.1472 38.0247 38.6719 38.6719 38.6719H51.9531C52.6005 38.6719 53.125 38.1472 53.125 37.5C53.125 36.8528 52.6005 36.3281 51.9531 36.3281Z" fill="#8A90A7"/>
<path d="M25.7812 51.198H5.46875C5.03734 51.198 4.6875 50.8481 4.6875 50.4167V21.0938C4.6875 20.6623 5.03734 20.3125 5.46875 20.3125H25.7812C26.2127 20.3125 26.5625 20.6623 26.5625 21.0938V50.4167C26.5625 50.8481 26.2127 51.198 25.7812 51.198Z" fill="#B16F52"/>
<path d="M75.3125 49.2188V75.7812C75.3125 76.2127 74.9627 76.5625 74.5312 76.5625H5.46875C5.03734 76.5625 4.6875 76.2127 4.6875 75.7812V49.2188C4.6875 48.7873 5.03734 48.4375 5.46875 48.4375H74.5312C74.9627 48.4375 75.3125 48.7873 75.3125 49.2188ZM74.5312 0H5.46875C5.03734 0 4.6875 0.349844 4.6875 0.78125V21.0938C4.6875 21.5252 5.03734 21.875 5.46875 21.875H74.5312C74.9627 21.875 75.3125 21.5252 75.3125 21.0938V0.78125C75.3125 0.349844 74.9627 0 74.5312 0Z" fill="#EBC9A0"/>
<path d="M75.3125 49.2188V75.7812C75.3125 76.2127 74.9627 76.5625 74.5313 76.5625H69.0105C69.4419 76.5625 69.7917 76.2127 69.7917 75.7812V49.2188C69.7917 48.7873 69.4419 48.4375 69.0105 48.4375H74.5313C74.9627 48.4375 75.3125 48.7873 75.3125 49.2188ZM74.5313 0H69.0105C69.4419 0 69.7917 0.349844 69.7917 0.78125V21.0938C69.7917 21.5252 69.4419 21.875 69.0105 21.875H74.5313C74.9627 21.875 75.3125 21.5252 75.3125 21.0938V0.78125C75.3125 0.349844 74.9627 0 74.5313 0Z" fill="#E1B894"/>
<path d="M25.3906 0H27.7344V21.875H25.3906V0ZM52.2656 0V21.875H54.6094V0H52.2656ZM40 50.3906C39.3528 50.3906 38.8281 50.9153 38.8281 51.5625V75C38.8281 75.6472 39.3528 76.1719 40 76.1719C40.6473 76.1719 41.1719 75.6472 41.1719 75V51.5625C41.1719 50.9153 40.6473 50.3906 40 50.3906Z" fill="#D7AF87"/>
<path d="M67.1875 39.0625H60.9375C60.0745 39.0625 59.375 38.363 59.375 37.5V28.125C59.375 27.262 60.0745 26.5625 60.9375 26.5625H67.1875C68.0505 26.5625 68.75 27.262 68.75 28.125V37.5C68.75 38.363 68.0505 39.0625 67.1875 39.0625Z" fill="#FF5050"/>
<path d="M68.75 28.125V37.5C68.75 38.363 68.0505 39.0625 67.1875 39.0625H60.9375C60.0745 39.0625 59.375 38.363 59.375 37.5V35.6697C59.8639 35.8425 60.3895 35.9375 60.9375 35.9375C63.5264 35.9375 65.625 33.8389 65.625 31.25V26.5625H67.1875C68.0505 26.5625 68.75 27.262 68.75 28.125Z" fill="#E95050"/>
<path d="M17.1875 32.0308H14.0625C11.9052 32.0308 10.1562 30.2819 10.1562 28.1245C10.1562 27.6931 10.5061 27.3433 10.9375 27.3433H20.3125C20.7439 27.3433 21.0938 27.6931 21.0938 28.1245C21.0938 30.2819 19.3448 32.0308 17.1875 32.0308Z" fill="#F7C295"/>
<path d="M21.0938 41.4062C21.0938 44.4266 18.6453 46.875 15.625 46.875C12.6047 46.875 10.1562 44.4266 10.1562 41.4062C10.1562 40.9748 10.5061 40.625 10.9375 40.625H20.3125C20.7439 40.625 21.0938 40.9748 21.0938 41.4062ZM20.3125 31.25H10.9375C10.5061 31.25 10.1562 31.5998 10.1562 32.0312C10.1562 34.1886 11.9052 35.9375 14.0625 35.9375H17.1875C19.3448 35.9375 21.0938 34.1886 21.0938 32.0312C21.0938 31.5998 20.7439 31.25 20.3125 31.25Z" fill="#F7A676"/>
<path d="M26.5625 34.7656V37.1094H4.6875V34.7656H26.5625Z" fill="#EBC9A0"/>
<path d="M80 0.78125V5.46875C80 5.90016 79.6502 6.25 79.2188 6.25H0.78125C0.349844 6.25 0 5.90016 0 5.46875V0.78125C0 0.349844 0.349844 0 0.78125 0H79.2188C79.6502 0 80 0.349844 80 0.78125ZM79.2188 46.875H0.78125C0.349844 46.875 0 47.2248 0 47.6562V52.3438C0 52.7752 0.349844 53.125 0.78125 53.125H79.2188C79.6502 53.125 80 52.7752 80 52.3438V47.6562C80 47.2248 79.6502 46.875 79.2188 46.875ZM79.2188 73.75H0.78125C0.349844 73.75 0 74.0998 0 74.5312V79.2188C0 79.6502 0.349844 80 0.78125 80H79.2188C79.6502 80 80 79.6502 80 79.2188V74.5312C80 74.0998 79.6502 73.75 79.2188 73.75Z" fill="#D7AF87"/>
<path d="M80 0.78125V5.46875C80 5.90016 79.6502 6.25 79.2188 6.25H74.5312C74.9627 6.25 75.3125 5.90016 75.3125 5.46875V0.78125C75.3125 0.349844 74.9627 0 74.5312 0H79.2188C79.6502 0 80 0.349844 80 0.78125ZM79.2188 46.875H74.5312C74.9627 46.875 75.3125 47.2248 75.3125 47.6562V52.3438C75.3125 52.7752 74.9627 53.125 74.5312 53.125H79.2188C79.6502 53.125 80 52.7752 80 52.3438V47.6562C80 47.2248 79.6502 46.875 79.2188 46.875ZM79.2188 73.75H74.5312C74.9627 73.75 75.3125 74.0998 75.3125 74.5312V79.2188C75.3125 79.6502 74.9627 80 74.5312 80H79.2188C79.6502 80 80 79.6502 80 79.2188V74.5312C80 74.0998 79.6502 73.75 79.2188 73.75Z" fill="#C49D7A"/>
<path d="M35.5469 59.375V65.625C35.5469 66.2722 35.0222 66.7969 34.375 66.7969C33.7278 66.7969 33.2031 66.2722 33.2031 65.625V59.375C33.2031 58.7278 33.7278 58.2031 34.375 58.2031C35.0222 58.2031 35.5469 58.7278 35.5469 59.375ZM45.3125 58.2031C44.6652 58.2031 44.1406 58.7278 44.1406 59.375V65.625C44.1406 66.2722 44.6652 66.7969 45.3125 66.7969C45.9598 66.7969 46.4844 66.2722 46.4844 65.625V59.375C46.4844 58.7278 45.9598 58.2031 45.3125 58.2031ZM46.25 16.0156H33.75C33.1028 16.0156 32.5781 16.5403 32.5781 17.1875C32.5781 17.8347 33.1028 18.3594 33.75 18.3594H46.25C46.8973 18.3594 47.4219 17.8347 47.4219 17.1875C47.4219 16.5403 46.8973 16.0156 46.25 16.0156ZM18.75 16.0156H12.5C11.8528 16.0156 11.3281 16.5403 11.3281 17.1875C11.3281 17.8347 11.8528 18.3594 12.5 18.3594H18.75C19.3972 18.3594 19.9219 17.8347 19.9219 17.1875C19.9219 16.5403 19.3972 16.0156 18.75 16.0156ZM67.1875 16.0156H60.9375C60.2902 16.0156 59.7656 16.5403 59.7656 17.1875C59.7656 17.8347 60.2902 18.3594 60.9375 18.3594H67.1875C67.8348 18.3594 68.3594 17.8347 68.3594 17.1875C68.3594 16.5403 67.8348 16.0156 67.1875 16.0156Z" fill="#57676E"/>
</g>
<defs>
<clipPath id="clip0_5_995">
<rect width="80" height="80" fill="white"/>
</clipPath>
</defs>
</svg>
