<svg width="80" height="80" viewBox="0 0 80 80" fill="none" xmlns="http://www.w3.org/2000/svg">
<g clip-path="url(#clip0_7_2)">
<path d="M67.2711 80H12.8851C12.5403 80 12.2601 79.7205 12.2601 79.375V69.9341H67.8961V79.375C67.8961 79.7205 67.616 80 67.2711 80Z" fill="#7FCBCA"/>
<path d="M67.2711 80H63.0719V69.9341H67.8961V79.375C67.8961 79.7205 67.616 80 67.2711 80Z" fill="#62B5B4"/>
<path d="M32.8345 0H47.3218V74.0442H32.8345V0Z" fill="#50536E"/>
<path d="M37.666 74.0442H10.3125C9.96704 74.0442 9.6875 73.7646 9.6875 73.4192V0.625C9.6875 0.279541 9.96704 0 10.3125 0H37.666V74.0442Z" fill="#CFE0E9"/>
<path d="M69.8438 74.0442H42.4902V0H69.8438C70.1892 0 70.4688 0.279541 70.4688 0.625V73.4192C70.4688 73.7646 70.1892 74.0442 69.8438 74.0442Z" fill="#CFE0E9"/>
<path d="M69.8438 74.0442H65.6451V0H69.8438C70.1892 0 70.4688 0.279541 70.4688 0.625V73.4192C70.4688 73.7646 70.1892 74.0442 69.8438 74.0442Z" fill="#ABBFCF"/>
<path d="M32.8424 0H37.666V74.0442H32.8424V0Z" fill="#ABBFCF"/>
<path d="M58.9069 27.6055C58.9069 28.9391 57.8259 30.02 56.4923 30.02C55.1587 30.02 54.0778 28.9391 54.0778 27.6055C54.0778 26.2719 55.1587 25.1909 56.4923 25.1909C57.8259 25.1909 58.9069 26.2719 58.9069 27.6055Z" fill="#FFD659"/>
<path d="M60.0787 27.6055C60.0787 25.6279 58.4698 24.019 56.4923 24.019C54.5148 24.019 52.9059 25.6279 52.9059 27.6055C52.9059 29.1729 53.9166 30.5071 55.3204 30.9941V39.7527C55.3204 40.4003 55.8453 40.9246 56.4923 40.9246C57.1393 40.9246 57.6642 40.4003 57.6642 39.7527V30.9941C59.068 30.5077 60.0787 29.1729 60.0787 27.6055ZM56.4923 28.8481C55.8075 28.8481 55.2496 28.2909 55.2496 27.6055C55.2496 26.92 55.8069 26.3628 56.4923 26.3628C57.1777 26.3628 57.735 26.92 57.735 27.6055C57.735 28.2909 57.1777 28.8481 56.4923 28.8481Z" fill="#50536E"/>
<path d="M32.2174 53.6644H15.1361C14.7913 53.6644 14.5111 53.3843 14.5111 53.0394V15.9795C14.5111 15.6346 14.7913 15.3545 15.1361 15.3545H32.2174C32.5623 15.3545 32.8424 15.6346 32.8424 15.9795V53.0394C32.8424 53.3843 32.5623 53.6644 32.2174 53.6644Z" fill="#BDF9FF"/>
<path d="M65.047 53.6647H47.9468C47.6013 53.6647 47.3218 53.3845 47.3218 53.0397V40.3779C47.3218 40.0331 47.6013 39.7529 47.9468 39.7529H65.047C65.3918 39.7529 65.672 40.0331 65.672 40.3779V53.0397C65.672 53.3845 65.3918 53.6647 65.047 53.6647Z" fill="#50536E"/>
<path d="M61.3214 53.6647H51.6632V49.4819C51.6632 49.1365 51.9434 48.8569 52.2882 48.8569H60.6964C61.0413 48.8569 61.3214 49.1365 61.3214 49.4819V53.6647Z" fill="#8CF2FF"/>
<path d="M19.7656 24.1406H27.5781C28.2251 24.1406 28.75 23.6157 28.75 22.9688C28.75 22.3218 28.2251 21.7969 27.5781 21.7969H19.7656C19.1187 21.7969 18.5938 22.3218 18.5938 22.9688C18.5938 23.6157 19.1187 24.1406 19.7656 24.1406Z" fill="#FF663B"/>
<path d="M27.5781 26.3281H19.7656C19.1187 26.3281 18.5938 26.853 18.5938 27.5C18.5938 28.147 19.1187 28.6719 19.7656 28.6719H27.5781C28.2251 28.6719 28.75 28.147 28.75 27.5C28.75 26.853 28.2251 26.3281 27.5781 26.3281Z" fill="#FF663B"/>
</g>
<defs>
<clipPath id="clip0_7_2">
<rect width="80" height="80" fill="white"/>
</clipPath>
</defs>
</svg>
