<svg width="78" height="80" viewBox="0 0 78 80" fill="none" xmlns="http://www.w3.org/2000/svg">
<path d="M10.6666 0H72V74.6667H10.6666V0Z" fill="#CCCCCC"/>
<path d="M13.3334 0H72V74.6667H13.3334V0Z" fill="#E6E6E6"/>
<path d="M16 5.3335H66.6667V69.3322H16V5.3335Z" fill="#66C3E9"/>
<path d="M20 5.3335H66.6667V69.3322H20V5.3335Z" fill="#8ADEF9"/>
<path d="M32 59.9998L33.724 61.7238C34.0229 62.0227 34.3777 62.2598 34.7682 62.4215C35.1588 62.5833 35.5773 62.6665 36 62.6665C36.4227 62.6665 36.8412 62.5833 37.2318 62.4215C37.6223 62.2598 37.9771 62.0227 38.276 61.7238L59.0573 40.9425C59.3562 40.6436 59.5933 40.2888 59.755 39.8983C59.9168 39.5077 60 39.0892 60 38.6665C60 38.2438 59.9168 37.8253 59.755 37.4347C59.5933 37.0442 59.3562 36.6894 59.0573 36.3905L57.3333 34.6665L32 59.9998Z" fill="#4C4C4C"/>
<path d="M34 58.0002L30.6666 54.6668L52 33.3335L55.3333 36.6668" fill="#F3CA4C"/>
<path d="M44.6666 55.3335L48 58.6668L56 50.6668L52.6666 47.3335" fill="#43B6E5"/>
<path d="M49.3334 57.3333L70.896 78.896C71.2463 79.2461 71.662 79.5238 72.1196 79.7132C72.5771 79.9027 73.0675 80.0001 73.5627 80C74.0579 80 74.5482 79.9025 75.0057 79.713C75.4632 79.5235 75.8788 79.2457 76.229 78.8956C76.5791 78.5455 76.8569 78.1298 77.0464 77.6723C77.2358 77.2148 77.3334 76.7245 77.3334 76.2293C77.3335 75.7341 77.236 75.2437 77.0466 74.7862C76.8572 74.3286 76.5795 73.9129 76.2294 73.5627L54.6667 52" fill="#F3CA4C"/>
<path d="M44 17.3337C45.2258 17.7424 46.3287 18.4538 47.2066 19.4018C48.0845 20.3499 48.7091 21.5041 49.0227 22.7577L49.3333 24.0003L49.644 22.7577C49.9575 21.5041 50.5821 20.3499 51.4601 19.4018C52.338 18.4538 53.4409 17.7424 54.6667 17.3337C53.4409 16.9249 52.338 16.2136 51.4601 15.2655C50.5821 14.3174 49.9575 13.1632 49.644 11.9097L49.3333 10.667L49.0227 11.9097C48.7091 13.1632 48.0845 14.3174 47.2066 15.2655C46.3287 16.2136 45.2258 16.9249 44 17.3337Z" fill="#FCDE6E"/>
<path d="M34.6666 29.3337C35.8924 29.7424 36.9953 30.4538 37.8732 31.4018C38.7511 32.3499 39.3758 33.5041 39.6893 34.7577L40 36.0003L40.3106 34.7577C40.6241 33.5041 41.2488 32.3499 42.1267 31.4018C43.0046 30.4538 44.1075 29.7424 45.3333 29.3337C44.1075 28.9249 43.0046 28.2136 42.1267 27.2655C41.2488 26.3174 40.6241 25.1632 40.3106 23.9097L40 22.667L39.6893 23.9097C39.3758 25.1632 38.7511 26.3174 37.8732 27.2655C36.9953 28.2136 35.8924 28.9249 34.6666 29.3337Z" fill="#FCDE6E"/>
<path d="M52 54.6672L70.896 73.5632C71.6033 74.2702 72.5625 74.6674 73.5627 74.6674C74.5628 74.6674 75.522 74.2702 76.2293 73.5632L54.6667 52.0005L52 54.6672Z" fill="#FCDE6E"/>
<path d="M57.3334 34.6665L33.3334 58.6665L33.724 59.0572C34.0229 59.3561 34.3778 59.5932 34.7683 59.7549C35.1588 59.9167 35.5773 60 36 60C36.4227 60 36.8413 59.9167 37.2318 59.7549C37.6223 59.5932 37.9772 59.3561 38.276 59.0572L59.0574 38.2758C59.3266 38.0026 59.5447 37.6833 59.7014 37.3332C59.5447 36.983 59.3266 36.6637 59.0574 36.3905L57.3334 34.6665Z" fill="#595959"/>
<path d="M52.6666 47.3335L47.6666 52.3335L47.912 52.5788C48.1861 52.8531 48.5116 53.0707 48.8699 53.2192C49.2281 53.3677 49.6121 53.4441 50 53.4441C50.3878 53.4441 50.7718 53.3677 51.13 53.2192C51.4883 53.0707 51.8138 52.8531 52.088 52.5788L55 49.6668L52.6666 47.3335Z" fill="#66C3E9"/>
<path d="M25.724 13.7241L16 23.4481V27.2188L27.6093 15.6095L25.724 13.7241Z" fill="white"/>
<path d="M30.276 12.9428L37.8853 5.3335H34.1146L28.3906 11.0575L30.276 12.9428Z" fill="white"/>
<path d="M56.9427 28.9429L66.6667 19.2189V15.4482L55.0574 27.0576L56.9427 28.9429Z" fill="white"/>
<path d="M14.8694 36.5652C15.739 38.8363 17.1999 40.8337 19.1009 42.3505C21.0019 43.8672 23.2738 44.8482 25.6814 45.1918L26.6667 45.3332L25.104 43.7705C23.9085 42.5749 22.9602 41.1556 22.3133 39.5935C21.6663 38.0315 21.3333 36.3573 21.3334 34.6665H16.0001L14.8694 36.5652Z" fill="#F3CA4C"/>
<path d="M14.1067 42.7482L13.3333 37.3335L18.6667 34.6668H26.6667L29.3333 33.3335V30.6668L26.6667 29.3335H6.828C6.07808 29.3338 5.35897 29.6319 4.82869 30.1622C4.29842 30.6925 4.00035 31.4116 4 32.1615C3.99985 32.5329 4.0729 32.9007 4.21497 33.2439C4.35704 33.5871 4.56536 33.8989 4.828 34.1615L8 37.3335L7.15333 43.2588" fill="#3693CF"/>
<path d="M6.82796 31.4082C6.26091 31.409 5.70719 31.5803 5.23876 31.8998C4.77034 32.2194 4.40886 32.6725 4.20129 33.2002C4.34246 33.56 4.55572 33.8872 4.82796 34.1615L7.99996 37.3335L7.15329 43.2589L14.1066 42.7469L13.3333 37.3335L18.6666 34.6669H26.6666L29.3333 33.3335V32.7415L26.6666 31.4082H6.82796Z" fill="#43B6E5"/>
<path d="M24 34.6668V29.3335H26.6667L29.3333 30.6668V33.3335L26.6667 34.6668H24Z" fill="#595959"/>
<path d="M13.3333 37.3335H7.99996L6.66663 46.6668H14.6666L13.3333 37.3335Z" fill="#595959"/>
<path d="M5.47467 45.0518L4.13333 47.7332C1.41484 53.1681 -0.000328156 59.1616 2.50074e-07 65.2385C-0.000292447 68.8522 0.256355 72.4613 0.768 76.0385C0.924651 77.1378 1.47262 78.1436 2.31128 78.8713C3.14994 79.599 4.22298 79.9997 5.33333 79.9998H17.3333C18.3942 79.9998 19.4116 79.5784 20.1618 78.8283C20.9119 78.0781 21.3333 77.0607 21.3333 75.9998V59.9998C21.3334 59.2126 21.0975 58.4434 20.6562 57.7915C20.2149 57.1396 19.5883 56.6349 18.8573 56.3425L16.8267 55.5305C16.189 55.2755 15.6424 54.8352 15.2574 54.2664C14.8723 53.6977 14.6666 53.0266 14.6667 52.3398C14.6668 52.1138 14.6891 51.8882 14.7333 51.6665L15.9533 45.5692C15.9842 45.4124 15.9998 45.253 16 45.0932C16 44.4496 15.7443 43.8323 15.2892 43.3773C14.8342 42.9222 14.2169 42.6665 13.5733 42.6665H9.33333C8.53211 42.6666 7.74674 42.8898 7.06521 43.3111C6.38369 43.7324 5.83294 44.3352 5.47467 45.0518Z" fill="#3693CF"/>
<path d="M20 77.3332C20.3893 77.3274 20.7756 77.2645 21.1466 77.1465C21.2646 76.7755 21.3275 76.3891 21.3333 75.9998V59.9998C21.3334 59.2126 21.0975 58.4434 20.6562 57.7915C20.2148 57.1396 19.5882 56.6349 18.8573 56.3425L16.8266 55.5305C16.0807 55.2323 15.4629 54.6822 15.0805 53.9758C14.6981 53.2695 14.5752 52.4514 14.7333 51.6638L15.9533 45.5665C15.984 45.4106 15.9996 45.2521 16 45.0932C16 44.4496 15.7443 43.8323 15.2892 43.3773C14.8341 42.9222 14.2169 42.6665 13.5733 42.6665H9.33329C8.8326 42.6693 8.33625 42.7595 7.86663 42.9332L6.79996 45.0665C4.08147 50.5015 2.6663 56.4949 2.66663 62.5718C2.66633 66.1855 2.92298 69.7946 3.43463 73.3718C3.59128 74.4711 4.13925 75.4769 4.9779 76.2046C5.81656 76.9323 6.8896 77.333 7.99996 77.3332H20Z" fill="#43B6E5"/>
<path d="M21.3333 61.3335H0.209333C0.0741752 62.6309 0.0043092 63.9344 0 65.2388C0 67.4962 0.112 69.7508 0.312 71.9988H21.3333V61.3335Z" fill="#F3CA4C"/>
<path d="M2.66663 62.5722C2.67045 65.7241 2.8695 68.8728 3.26263 72.0002H21.3333V61.3335H2.70263C2.68929 61.7468 2.66663 62.1588 2.66663 62.5722Z" fill="#FCDE6E"/>
</svg>
