<svg width="25" height="22" viewBox="0 0 25 22" fill="none" xmlns="http://www.w3.org/2000/svg">
<path fill-rule="evenodd" clip-rule="evenodd" d="M18.9777 21.3992C20.4755 22.0544 21.0371 20.6815 21.0371 20.6815L25 0.773537C24.9688 -0.568222 23.159 0.243074 23.159 0.243074L0.973164 8.9489C0.973164 8.9489 -0.0877615 9.32335 0.00584953 9.97862C0.0994606 10.6339 0.94196 10.9459 0.94196 10.9459L6.52742 12.8182C6.52742 12.8182 8.21242 18.3412 8.55566 19.4021C8.8677 20.4319 9.14853 20.4631 9.14853 20.4631C9.46057 20.5879 9.7414 20.3695 9.7414 20.3695L13.361 17.0931L18.9777 21.3992ZM19.945 4.29952C19.945 4.29952 20.7251 3.83146 20.6939 4.29952C20.6939 4.29952 20.8187 4.36192 20.4131 4.79877C20.0386 5.17322 11.208 13.099 10.0223 14.1599C9.92865 14.2223 9.86624 14.3159 9.86624 14.4407L9.523 17.3739C9.46059 17.6859 9.05494 17.7171 8.96133 17.4363L7.49476 12.6309C7.43235 12.4437 7.49476 12.2253 7.68198 12.1004L19.945 4.29952Z" fill="white"/>
</svg>
