<svg width="24" height="24" viewBox="0 0 24 24" fill="none" xmlns="http://www.w3.org/2000/svg">
<path d="M11.985 0C5.3633 0 0 4.98618 0 11.1438C0 14.6582 1.73783 17.7821 4.46442 19.8246L4.52434 23.7294C4.52434 23.9397 4.76405 24.0598 4.94382 23.9697L8.68914 21.8671C9.73783 22.1375 10.8464 22.2876 12.015 22.2876C18.6367 22.2876 24 17.3015 24 11.1438C24 4.98618 18.5768 0 11.985 0ZM12.8539 14.7783L10.3071 12.105C10.1573 11.9548 9.9176 11.9248 9.73783 12.0149L5.24345 14.4479C5.06367 14.538 4.91386 14.3278 5.03371 14.1776L10.3371 8.53058C10.4869 8.38039 10.7566 8.38039 10.9064 8.53058L13.4532 11.264C13.603 11.4142 13.8427 11.4742 14.0225 11.3541L18.427 8.9511C18.6067 8.86099 18.7566 9.07125 18.6367 9.22144L13.4232 14.7783C13.2734 14.9285 13.0037 14.9285 12.8539 14.7783Z" fill="white"/>
</svg>
