<svg width="30" height="30" viewBox="0 0 30 30" fill="none" xmlns="http://www.w3.org/2000/svg">
<path d="M27.061 24.8437C25.2762 21.7582 22.5258 19.5457 19.3161 18.4969C20.9038 17.5517 22.1373 16.1115 22.8272 14.3974C23.5172 12.6833 23.6254 10.7902 23.1353 9.00862C22.6451 7.22708 21.5837 5.65569 20.1141 4.53577C18.6444 3.41585 16.8478 2.80931 15 2.80931C13.1523 2.80931 11.3557 3.41585 9.88601 4.53577C8.41636 5.65569 7.35496 7.22708 6.86482 9.00862C6.37467 10.7902 6.48289 12.6833 7.17284 14.3974C7.86279 16.1115 9.09633 17.5517 10.684 18.4969C7.47426 19.5445 4.72387 21.757 2.93911 24.8437C2.87365 24.9505 2.83024 25.0692 2.81143 25.193C2.79261 25.3168 2.79878 25.443 2.82956 25.5644C2.86035 25.6857 2.91512 25.7997 2.99066 25.8995C3.06619 25.9994 3.16096 26.0831 3.26937 26.1457C3.37778 26.2083 3.49763 26.2486 3.62185 26.2641C3.74607 26.2797 3.87215 26.2702 3.99265 26.2362C4.11314 26.2022 4.22561 26.1445 4.32343 26.0663C4.42124 25.9882 4.50241 25.8913 4.56215 25.7812C6.76996 21.9656 10.6723 19.6875 15 19.6875C19.3278 19.6875 23.2301 21.9656 25.4379 25.7812C25.4977 25.8913 25.5788 25.9882 25.6767 26.0663C25.7745 26.1445 25.8869 26.2022 26.0074 26.2362C26.1279 26.2702 26.254 26.2797 26.3782 26.2641C26.5025 26.2486 26.6223 26.2083 26.7307 26.1457C26.8391 26.0831 26.9339 25.9994 27.0094 25.8995C27.085 25.7997 27.1397 25.6857 27.1705 25.5644C27.2013 25.443 27.2075 25.3168 27.1887 25.193C27.1698 25.0692 27.1264 24.9505 27.061 24.8437ZM8.43754 11.25C8.43754 9.95206 8.82243 8.68327 9.54352 7.60407C10.2646 6.52487 11.2895 5.68374 12.4887 5.18704C13.6878 4.69034 15.0073 4.56038 16.2803 4.8136C17.5533 5.06681 18.7226 5.69183 19.6404 6.60961C20.5582 7.52739 21.1832 8.69672 21.4364 9.96972C21.6897 11.2427 21.5597 12.5622 21.063 13.7614C20.5663 14.9605 19.7252 15.9854 18.646 16.7065C17.5668 17.4276 16.298 17.8125 15 17.8125C13.2601 17.8106 11.592 17.1186 10.3617 15.8883C9.13141 14.658 8.4394 12.9899 8.43754 11.25Z" fill="#212121"/>
</svg>
