<svg width="65" height="20" viewBox="0 0 65 20" fill="none" xmlns="http://www.w3.org/2000/svg">
<path d="M22.0618 19.4032H17.809V11.5619C17.809 10.6582 17.6405 9.99369 17.3039 9.56841C16.9671 9.14312 16.5331 8.93047 16.0015 8.93047C15.4343 8.93047 14.8762 9.16076 14.3269 9.62157C13.7774 10.0824 13.3876 10.6758 13.1574 11.4025V19.4032H8.90448V11.5619C8.90448 10.6406 8.73605 9.97605 8.39945 9.56841C8.0626 9.14312 7.62862 8.93047 7.09701 8.93047C6.54751 8.93047 5.99826 9.16076 5.44901 9.62157C4.89952 10.0824 4.50081 10.6758 4.25289 11.4025V19.4032H0V5.44842H3.8276V7.78751C4.34133 6.95457 5.03242 6.31664 5.90088 5.87371C6.78674 5.4129 7.81468 5.18262 8.98422 5.18262C10.1359 5.18262 11.022 5.45736 11.6423 6.00661C12.2623 6.53822 12.661 7.16722 12.8384 7.89383C13.37 7.02561 14.0698 6.3611 14.9383 5.90029C15.8241 5.42184 16.8165 5.18262 17.9153 5.18262C18.8011 5.18262 19.5188 5.35104 20.0683 5.68765C20.6176 6.00662 21.0339 6.4319 21.3176 6.96351C21.601 7.49513 21.796 8.07095 21.9024 8.69125C22.0087 9.29366 22.0618 9.88737 22.0618 10.4721V19.4032Z" fill="white"/>
<path d="M24.8414 19.403V5.44824H29.0943V19.403H24.8414Z" fill="white"/>
<path d="M41.043 18.6592C40.6532 18.8187 40.219 18.9782 39.7405 19.1377C39.2797 19.2972 38.7926 19.4211 38.2786 19.5098C37.7646 19.6161 37.2596 19.6693 36.7635 19.6693C36.0548 19.6693 35.399 19.554 34.7966 19.3237C34.2118 19.0756 33.7423 18.6769 33.3878 18.1276C33.0512 17.5784 32.8828 16.8518 32.8828 15.948V8.66496H31.1019V5.44871H32.8828V1.00977H37.1357V5.44871H39.9798V8.66496H37.1357V14.4861C37.1357 14.9469 37.2509 15.2835 37.4812 15.4962C37.7115 15.6912 38.0039 15.7885 38.3584 15.7885C38.6597 15.7885 38.9786 15.7354 39.3152 15.6291C39.6697 15.5227 39.9708 15.4075 40.219 15.2835L41.043 18.6592Z" fill="white"/>
<path d="M42.647 0H46.8999V14.4332C46.8999 15.018 47.0062 15.4343 47.2189 15.6825C47.4315 15.9307 47.7326 16.0546 48.1226 16.0546C48.3884 16.0546 48.6542 16.0191 48.92 15.9483C49.2035 15.8596 49.4516 15.7623 49.6643 15.6559L50.2225 18.8456C49.6909 19.0938 49.0795 19.2885 48.3884 19.4304C47.6973 19.5722 47.0505 19.643 46.448 19.643C45.243 19.643 44.3037 19.324 43.6305 18.6861C42.9747 18.0305 42.647 17.1089 42.647 15.9217V0Z" fill="white"/>
<path d="M50.7263 15.2301C50.7263 14.3087 50.9834 13.5023 51.4971 12.8112C52.0111 12.1201 52.7198 11.5796 53.6235 11.1898C54.5273 10.7822 55.5639 10.5785 56.7335 10.5785C57.3006 10.5785 57.8588 10.6316 58.408 10.7379C58.9575 10.8266 59.436 10.9595 59.8434 11.1367V10.5253C59.8434 9.76341 59.6131 9.17864 59.1523 8.77099C58.6917 8.36334 57.9917 8.15964 57.0524 8.15964C56.2729 8.15964 55.5373 8.29254 54.8462 8.55834C54.173 8.82415 53.4554 9.20522 52.6932 9.70131L51.4173 6.9901C52.339 6.38768 53.2959 5.93582 54.288 5.63449C55.2983 5.33316 56.3613 5.18262 57.4777 5.18262C59.5689 5.18262 61.1903 5.68765 62.3419 6.69771C63.5115 7.69013 64.0965 9.13418 64.0965 11.0303V14.6719C64.0965 15.0972 64.1584 15.3985 64.2823 15.5756C64.4242 15.7351 64.6634 15.8325 65 15.868V19.4032C64.6458 19.474 64.3091 19.5272 63.9902 19.5627C63.6889 19.5982 63.4231 19.6158 63.1925 19.6158C62.3951 19.6158 61.7838 19.4564 61.3585 19.1374C60.9511 18.8184 60.6942 18.3842 60.5879 17.8349L60.5079 17.2236C59.8878 18.021 59.1436 18.6324 58.2751 19.0577C57.4245 19.4653 56.5298 19.669 55.5905 19.669C54.6691 19.669 53.8362 19.474 53.0919 19.0842C52.3655 18.6945 51.7895 18.1629 51.3642 17.4894C50.9389 16.8159 50.7263 16.063 50.7263 15.2301ZM59.1789 15.7617C59.3739 15.6022 59.5334 15.4251 59.6573 15.2301C59.7815 15.0351 59.8434 14.849 59.8434 14.6719V13.4226C59.4891 13.2807 59.0904 13.1744 58.6475 13.1036C58.2222 13.0149 57.8233 12.9707 57.4511 12.9707C56.6716 12.9707 56.0247 13.1478 55.5107 13.5023C54.997 13.8389 54.7399 14.2908 54.7399 14.8579C54.7399 15.1769 54.8286 15.4693 55.0057 15.7351C55.1831 16.0009 55.4223 16.2135 55.7234 16.373C56.0426 16.5325 56.4145 16.6122 56.8398 16.6122C57.2651 16.6122 57.6904 16.5325 58.1156 16.373C58.5409 16.2135 58.8954 16.0098 59.1789 15.7617Z" fill="white"/>
<path d="M26.8186 4.86216L26.7971 4.18049C26.7903 3.71847 26.5996 3.30213 26.2959 3.00007C25.9849 2.70551 25.5632 2.52742 25.1012 2.53419L24.4193 2.53298C24.4094 2.53298 24.4014 2.52501 24.4012 2.5151C24.4009 2.50519 24.4087 2.49698 24.4188 2.49673L25.1003 2.47547C25.5623 2.4687 25.9784 2.27829 26.2804 1.97455C26.575 1.6638 26.7531 1.24213 26.7461 0.780115L26.747 0.0982058C26.747 0.0882985 26.755 0.0800835 26.7649 0.0800835C26.7748 0.0798418 26.783 0.0878155 26.7833 0.0977228L26.8048 0.779149C26.8116 1.24141 27.0025 1.65752 27.306 1.95957C27.6169 2.25413 28.0384 2.43246 28.5006 2.42545L29.1825 2.4269C29.1924 2.4269 29.2004 2.43488 29.2007 2.44478C29.2009 2.45469 29.1929 2.46291 29.183 2.46315L28.5016 2.48417C28.2703 2.48779 28.0509 2.53709 27.8513 2.6236C27.652 2.70986 27.4722 2.83334 27.3214 2.98509C27.0269 3.29608 26.8488 3.71775 26.8558 4.17976L26.8548 4.86143C26.8548 4.87134 26.8468 4.87956 26.8369 4.87956C26.8273 4.8798 26.8191 4.87207 26.8186 4.86216Z" fill="#F25E57"/>
</svg>
