<svg width="86" height="86" viewBox="0 0 86 86" fill="none" xmlns="http://www.w3.org/2000/svg">
<g clip-path="url(#clip0_5_489)">
<path d="M10.5468 5.71094H75.4532C78.2504 5.71094 80.933 6.82211 82.9109 8.80001C84.8888 10.7779 86 13.4605 86 16.2577V78.8496C86 80.746 85.2467 82.5647 83.9057 83.9057C82.5647 85.2467 80.746 86 78.8496 86H7.15043C5.25402 86 3.43528 85.2467 2.09431 83.9057C0.753347 82.5647 0 80.746 0 78.8496L0 16.2577C0 13.4605 1.11117 10.7779 3.08907 8.80001C5.06697 6.82211 7.74958 5.71094 10.5468 5.71094Z" fill="#FF4343"/>
<path d="M0.21668 20.766H85.7833C85.8408 20.766 85.8959 20.7888 85.9365 20.8294C85.9772 20.8701 86 20.9252 86 20.9826V72.8984C86 74.9191 85.1973 76.8571 83.7684 78.2859C82.3396 79.7148 80.4016 80.5175 78.3809 80.5175H7.61906C5.59836 80.5175 3.66042 79.7148 2.23157 78.2859C0.80272 76.8571 0 74.9191 0 72.8984L0 20.981C0 20.9235 0.0228287 20.8684 0.063464 20.8277C0.104099 20.7871 0.159213 20.7643 0.21668 20.7643V20.766Z" fill="#252A3F"/>
<path d="M52.5457 15.1172C55.1895 15.1172 57.3328 12.9739 57.3328 10.3301C57.3328 7.68623 55.1895 5.54297 52.5457 5.54297C49.9018 5.54297 47.7585 7.68623 47.7585 10.3301C47.7585 12.9739 49.9018 15.1172 52.5457 15.1172Z" fill="#E09090"/>
<path d="M52.5457 13.9381C54.5383 13.9381 56.1537 12.3228 56.1537 10.3301C56.1537 8.33751 54.5383 6.72217 52.5457 6.72217C50.5531 6.72217 48.9377 8.33751 48.9377 10.3301C48.9377 12.3228 50.5531 13.9381 52.5457 13.9381Z" fill="#820202"/>
<path d="M52.5474 0H52.5457C51.4065 0 50.483 0.923483 50.483 2.06266V8.35141C50.483 9.49058 51.4065 10.4141 52.5457 10.4141H52.5474C53.6865 10.4141 54.61 9.49058 54.61 8.35141V2.06266C54.61 0.923483 53.6865 0 52.5474 0Z" fill="#E2E2E2"/>
<path d="M14.0254 15.1172C16.6692 15.1172 18.8125 12.9739 18.8125 10.3301C18.8125 7.68623 16.6692 5.54297 14.0254 5.54297C11.3815 5.54297 9.23828 7.68623 9.23828 10.3301C9.23828 12.9739 11.3815 15.1172 14.0254 15.1172Z" fill="#E09090"/>
<path d="M14.0254 13.9381C16.0181 13.9381 17.6334 12.3228 17.6334 10.3301C17.6334 8.33751 16.0181 6.72217 14.0254 6.72217C12.0328 6.72217 10.4175 8.33751 10.4175 10.3301C10.4175 12.3228 12.0328 13.9381 14.0254 13.9381Z" fill="#820202"/>
<path d="M14.0271 0H14.0254C12.8863 0 11.9628 0.923483 11.9628 2.06266V8.35141C11.9628 9.49058 12.8863 10.4141 14.0254 10.4141H14.0271C15.1663 10.4141 16.0898 9.49058 16.0898 8.35141V2.06266C16.0898 0.923483 15.1663 0 14.0271 0Z" fill="#E2E2E2"/>
<path d="M71.9746 15.1172C74.6185 15.1172 76.7617 12.9739 76.7617 10.3301C76.7617 7.68623 74.6185 5.54297 71.9746 5.54297C69.3308 5.54297 67.1875 7.68623 67.1875 10.3301C67.1875 12.9739 69.3308 15.1172 71.9746 15.1172Z" fill="#E09090"/>
<path d="M71.9747 13.9381C73.9673 13.9381 75.5826 12.3228 75.5826 10.3301C75.5826 8.33751 73.9673 6.72217 71.9747 6.72217C69.982 6.72217 68.3667 8.33751 68.3667 10.3301C68.3667 12.3228 69.982 13.9381 71.9747 13.9381Z" fill="#820202"/>
<path d="M71.9763 0H71.9746C70.8355 0 69.912 0.923483 69.912 2.06266V8.35141C69.912 9.49058 70.8355 10.4141 71.9746 10.4141H71.9763C73.1155 10.4141 74.039 9.49058 74.039 8.35141V2.06266C74.039 0.923483 73.1155 0 71.9763 0Z" fill="#E2E2E2"/>
<path d="M33.1184 15.1172C35.7623 15.1172 37.9055 12.9739 37.9055 10.3301C37.9055 7.68623 35.7623 5.54297 33.1184 5.54297C30.4746 5.54297 28.3313 7.68623 28.3313 10.3301C28.3313 12.9739 30.4746 15.1172 33.1184 15.1172Z" fill="#E09090"/>
<path d="M33.1183 13.9381C35.111 13.9381 36.7263 12.3228 36.7263 10.3301C36.7263 8.33751 35.111 6.72217 33.1183 6.72217C31.1257 6.72217 29.5104 8.33751 29.5104 10.3301C29.5104 12.3228 31.1257 13.9381 33.1183 13.9381Z" fill="#820202"/>
<path d="M33.1184 0H33.1167C31.9776 0 31.0541 0.923483 31.0541 2.06266V8.35141C31.0541 9.49058 31.9776 10.4141 33.1167 10.4141H33.1184C34.2576 10.4141 35.1811 9.49058 35.1811 8.35141V2.06266C35.1811 0.923483 34.2576 0 33.1184 0Z" fill="#E2E2E2"/>
<path d="M0.21668 20.766H85.7833C85.8408 20.766 85.8959 20.7888 85.9365 20.8294C85.9772 20.8701 86 20.9252 86 20.9826V71.9981C86 74.0188 85.1973 75.9567 83.7684 77.3856C82.3396 78.8145 80.4016 79.6172 78.3809 79.6172H7.61906C6.61851 79.6172 5.62776 79.4201 4.70337 79.0372C3.77899 78.6543 2.93907 78.0931 2.23157 77.3856C1.52408 76.6781 0.96286 75.8382 0.579967 74.9138C0.197073 73.9894 0 72.9987 0 71.9981L0 20.981C0 20.9235 0.0228287 20.8684 0.063464 20.8277C0.104099 20.7871 0.159213 20.7643 0.21668 20.7643V20.766Z" fill="#EDF5FF"/>
<path d="M11.2119 63.1143C11.2119 58.915 12.3877 56.3535 15.8311 52.7422C19.3584 49.0049 20.3662 46.7793 20.3662 44.0498C20.3662 41.4043 19.4424 40.6904 17.9727 40.6904C16.5029 40.6904 15.5791 41.4883 15.5791 43.5879V46.7373H11.2119V43.8818C11.2119 39.1787 13.5635 36.4912 18.0986 36.4912C22.6338 36.4912 24.9854 39.1787 24.9854 43.8818C24.9854 47.3672 23.5576 50.4746 19.2744 55.0098C16.5029 57.9492 15.7891 59.4189 15.7891 61.4766V62.1064H24.5654V66.3057H11.2119V63.1143Z" fill="#252A3F"/>
<path d="M35.8193 60.9727H27.001V56.7734L35.3994 36.9111H40.4385V56.7734H42.6221V60.9727H40.4385V66.3057H35.8193V60.9727ZM35.8193 56.7734V45.3096H35.7354L31.2002 56.7734H35.8193Z" fill="#252A3F"/>
<path d="M55.1357 36.9111H59.125L47.5352 66.3057H43.5459L55.1357 36.9111Z" fill="#252A3F"/>
<path d="M70.2529 41.1104H60.9307V36.9111H74.7881V40.9424L67.5654 66.3057H62.8623L70.2529 41.1104Z" fill="#252A3F"/>
</g>
<defs>
<clipPath id="clip0_5_489">
<rect width="86" height="86" fill="white"/>
</clipPath>
</defs>
</svg>
