<svg width="80" height="80" viewBox="0 0 80 80" fill="none" xmlns="http://www.w3.org/2000/svg">
<path d="M9.54758 47.728C8.88086 47.728 8.34033 48.3289 8.34033 49.0703V73.5315C8.34033 74.2729 8.88086 74.8738 9.54758 74.8738C10.2143 74.8738 10.7548 74.2729 10.7548 73.5315V49.0705C10.7548 48.3291 10.2143 47.728 9.54758 47.728Z" fill="#9D91A0"/>
<path d="M70.4525 47.728C69.7858 47.728 69.2452 48.3289 69.2452 49.0703V73.5315C69.2452 74.2729 69.7858 74.8738 70.4525 74.8738C71.1192 74.8738 71.6597 74.2729 71.6597 73.5315V49.0705C71.6597 48.3291 71.1192 47.728 70.4525 47.728Z" fill="#9D91A0"/>
<path d="M65.7545 76.0563H14.2455V25.7545C14.2455 11.5308 25.7761 0 40 0C54.2238 0 65.7545 11.5306 65.7545 25.7545V76.0563Z" fill="#EAE9EB"/>
<path d="M43.2194 9.82049V76.0561H59.3159V25.7543C59.3159 17.3561 53.9279 10.1934 46.4274 7.53928C44.8614 6.98508 43.2194 8.15932 43.2194 9.82049Z" fill="#B5E9FF"/>
<path d="M36.7807 43.6423V9.82049C36.7807 8.15932 35.1386 6.98508 33.5726 7.53928C26.0721 10.1934 20.6841 17.3561 20.6841 25.7543V76.0561H36.7807V50.3016" fill="#B5E9FF"/>
<path d="M40.0001 0C39.1856 0 38.3806 0.0395976 37.5856 0.113642C50.6769 1.33103 60.9256 12.3451 60.9256 25.7545V76.0563H65.7546V25.7545C65.7546 11.5306 54.224 0 40.0001 0Z" fill="#DAD9DB"/>
<path d="M46.4274 7.53964C45.364 7.16346 44.2662 7.58439 43.6707 8.4132C50.0715 11.5627 54.4869 18.1523 54.4869 25.7547V76.0565H59.3159V25.7547C59.3159 17.3565 53.928 10.1938 46.4274 7.53964Z" fill="#93DDFE"/>
<path d="M33.5726 7.53928C32.8618 7.79071 32.1703 8.08318 31.5004 8.41284C31.7819 8.80463 31.9519 9.28721 31.9519 9.82049V43.6423V50.3016V76.0561H36.7809V50.3016V43.6423V9.82049C36.7807 8.15932 35.1387 6.98508 33.5726 7.53928Z" fill="#93DDFE"/>
<path d="M28.2515 37.3957C27.8687 37.3548 27.4948 37.3635 27.1349 37.4158C26.5066 37.5069 25.8834 37.2837 25.4267 36.8426C24.6322 36.0753 23.5511 35.603 22.3592 35.603C21.1674 35.603 20.0862 36.0753 19.2916 36.8426C18.835 37.2837 18.2117 37.5069 17.5835 37.4158C17.2236 37.3637 16.8495 37.3548 16.4667 37.3957C14.4205 37.614 12.7711 39.2611 12.5554 41.3077C12.2755 43.9626 14.3497 46.2052 16.9477 46.2052H27.7708C30.3688 46.2052 32.4432 43.9625 32.163 41.3073C31.9473 39.261 30.2977 37.614 28.2515 37.3957Z" fill="#9BDEAD"/>
<path d="M4.82947 77.5856V75.037C4.82947 73.7036 5.91051 72.6226 7.24395 72.6226H72.7561C74.0895 72.6226 75.1706 73.7036 75.1706 75.037V77.5856C75.1706 78.9191 74.0895 80.0001 72.7561 80.0001H7.24395C5.91051 80.0001 4.82947 78.9191 4.82947 77.5856Z" fill="#9D91A0"/>
<path d="M72.7561 72.6226H67.9271C69.2606 72.6226 70.3416 73.7036 70.3416 75.037V77.5856C70.3416 78.9191 69.2606 80.0001 67.9271 80.0001H72.7561C74.0895 80.0001 75.1706 78.9191 75.1706 77.5856V75.037C75.1706 73.7034 74.0895 72.6226 72.7561 72.6226Z" fill="#877D89"/>
<path d="M69.6502 49.9262H72.2463C73.8613 49.9262 75.1706 48.617 75.1706 47.0019C75.1706 45.3868 73.8613 44.0776 72.2463 44.0776H7.75373C6.13876 44.0776 4.82947 45.3868 4.82947 47.0019C4.82947 48.617 6.13876 49.9262 7.75373 49.9262H46.0102" fill="#9D91A0"/>
<path d="M32.163 41.3073C31.9472 39.261 30.2976 37.614 28.2514 37.3957C27.8686 37.355 27.4947 37.3635 27.1348 37.4158C26.5065 37.5069 25.8833 37.2837 25.4266 36.8426C24.6321 36.0753 23.551 35.603 22.3591 35.603C21.4678 35.603 20.6385 35.8673 19.9446 36.3213C20.1786 36.4745 20.3972 36.649 20.5976 36.8425C21.0543 37.2835 21.6402 38.1054 22.1041 38.5389C22.5855 38.9888 23.0396 38.9645 23.4224 39.0052C25.4686 39.2235 27.1182 39.2608 27.334 41.3072C27.6141 43.9623 25.5399 46.205 22.9419 46.205H27.7709C30.3689 46.205 32.4431 43.9623 32.163 41.3073Z" fill="#86D69A"/>
<path d="M30.3542 53.1371H14.3643C12.5863 53.1371 11.145 51.6959 11.145 49.9178V46.4951C11.145 45.1616 12.2261 44.0806 13.5595 44.0806H31.159C32.4925 44.0806 33.5735 45.1616 33.5735 46.4951V49.9178C33.5735 51.6959 32.1322 53.1371 30.3542 53.1371Z" fill="#DC9465"/>
<path d="M51.7485 37.3957C52.1313 37.3548 52.5052 37.3635 52.8651 37.4158C53.4934 37.5069 54.1167 37.2837 54.5733 36.8426C55.3678 36.0753 56.4489 35.603 57.6408 35.603C58.8326 35.603 59.9138 36.0753 60.7084 36.8426C61.165 37.2837 61.7883 37.5069 62.4165 37.4158C62.7765 37.3637 63.1505 37.3548 63.5333 37.3957C65.5795 37.614 67.2289 39.2611 67.4446 41.3077C67.7245 43.9626 65.6503 46.2052 63.0524 46.2052C61.4672 46.2052 53.8144 46.2052 52.2292 46.2052C49.6312 46.2052 47.5568 43.9625 47.8371 41.3073C48.0528 39.261 49.7023 37.614 51.7485 37.3957Z" fill="#9BDEAD"/>
<path d="M67.4447 41.3077C67.229 39.2613 65.5794 37.6141 63.5334 37.3957C63.1505 37.355 62.7765 37.3635 62.4166 37.4158C61.7884 37.5069 61.1651 37.2837 60.7085 36.8426C59.9139 36.0753 58.8329 35.603 57.6409 35.603C56.7497 35.603 55.9204 35.8673 55.2264 36.3213C55.4605 36.4745 55.6791 36.649 55.8795 36.8425C56.3361 37.2835 56.9805 38.0199 57.4602 38.4357C57.9761 38.8829 58.3217 38.9645 58.7044 39.0052C60.7506 39.2236 62.4 39.261 62.6157 41.3075C62.8957 43.9625 60.8214 46.205 58.2236 46.205H63.0526C65.6504 46.2052 67.7246 43.9626 67.4447 41.3077Z" fill="#86D69A"/>
<path d="M49.6458 53.1371H65.6357C67.4137 53.1371 68.855 51.6959 68.855 49.9178V46.4951C68.855 45.1616 67.774 44.0806 66.4405 44.0806H48.841C47.5076 44.0806 46.4265 45.1616 46.4265 46.4951V49.9178C46.4265 51.6959 47.8678 53.1371 49.6458 53.1371Z" fill="#DC9465"/>
<path d="M31.1589 44.0806H26.33C27.6634 44.0806 28.7445 45.1616 28.7445 46.4951V49.9178C28.7445 51.6957 27.3032 53.1371 25.5251 53.1371H30.3541C32.1321 53.1371 33.5734 51.6957 33.5734 49.9178V46.4951C33.5734 45.1616 32.4926 44.0806 31.1589 44.0806Z" fill="#D78C57"/>
<path d="M66.4406 44.0806H61.6116C62.945 44.0806 64.0261 45.1616 64.0261 46.4951V49.9178C64.0261 51.6957 62.5848 53.1371 60.8068 53.1371H65.6357C67.4138 53.1371 68.8551 51.6957 68.8551 49.9178V46.4951C68.8551 45.1616 67.774 44.0806 66.4406 44.0806Z" fill="#D78C57"/>
</svg>
