<svg width="29" height="29" viewBox="0 0 29 29" fill="none" xmlns="http://www.w3.org/2000/svg">
<g clip-path="url(#clip0_23_172)">
<path d="M26.6731 19.0352C24.8976 19.0352 23.1542 18.7575 21.5022 18.2115C20.6927 17.9354 19.6976 18.1887 19.2035 18.6962L15.9428 21.1577C12.1612 19.1391 9.83183 16.8105 7.8408 13.0573L10.2299 9.88152C10.8506 9.26165 11.0732 8.35615 10.8065 7.50654C10.2582 5.84584 9.9797 4.10335 9.9797 2.3271C9.97978 1.04392 8.93585 0 7.65275 0H2.32702C1.04392 0 0 1.04392 0 2.32702C0 17.0347 11.9654 29 26.6731 29C27.9562 29 29.0001 27.9561 29.0001 26.673V21.3621C29 20.0791 27.9561 19.0352 26.6731 19.0352Z" fill="white"/>
</g>
<defs>
<clipPath id="clip0_23_172">
<rect width="29" height="29" fill="white"/>
</clipPath>
</defs>
</svg>
