<svg width="80" height="80" viewBox="0 0 80 80" fill="none" xmlns="http://www.w3.org/2000/svg">
<rect width="80" height="79.0026" fill="#FAFAFA"/>
<path d="M74.8399 17.9348L74.8497 17.9251C75.1442 18.0382 75.4624 18.0782 75.7762 18.0416C76.0901 18.005 76.39 17.8929 76.6497 17.7151C76.9095 17.5373 77.121 17.2993 77.2659 17.0219C77.4107 16.7445 77.4844 16.4363 77.4805 16.1242C77.4765 15.8121 77.3951 15.5058 77.2434 15.2321C77.0916 14.9583 76.8741 14.7256 76.61 14.5542C76.3459 14.3828 76.0432 14.2781 75.7285 14.2492C75.4139 14.2203 75.0968 14.2681 74.8052 14.3884C72.7846 15.2378 71.3147 11.6094 73.3064 10.741C73.5932 10.6138 73.8442 10.4195 74.0377 10.1748C74.2312 9.93016 74.3613 9.64255 74.4167 9.33696C74.4721 9.03138 74.4511 8.71706 74.3556 8.4213C74.2601 8.12553 74.0929 7.85726 73.8686 7.63977C73.6443 7.42228 73.3696 7.26215 73.0684 7.17327C72.7672 7.0844 72.4486 7.06946 72.1402 7.12977C71.8318 7.19008 71.543 7.32381 71.2989 7.51934C71.0547 7.71487 70.8625 7.96631 70.7391 8.25181C69.8746 10.2874 66.2434 8.65254 67.0367 6.79293C67.1577 6.50324 67.2046 6.18856 67.1732 5.87671C67.1418 5.56486 67.0331 5.26546 66.8566 5.00498C66.6802 4.7445 66.4415 4.53098 66.1616 4.38328C65.8817 4.23559 65.5693 4.15829 65.2519 4.1582C64.9346 4.15812 64.6221 4.23526 64.3421 4.38281C64.0622 4.53036 63.8233 4.74376 63.6467 5.00414C63.4702 5.26453 63.3613 5.56388 63.3297 5.87571C63.2981 6.18754 63.3449 6.50225 63.4658 6.792C64.2496 8.64199 60.6712 10.2741 59.776 8.28196C59.6479 7.99997 59.4524 7.75293 59.2062 7.5621C58.9601 7.37127 58.6707 7.24237 58.3629 7.18649C58.0551 7.1306 57.7381 7.14941 57.4393 7.24129C57.1406 7.33317 56.8688 7.49537 56.6476 7.71394C56.4263 7.93251 56.2622 8.20089 56.1692 8.49599C56.0763 8.7911 56.0574 9.10408 56.1141 9.40801C56.1708 9.71195 56.3014 9.99772 56.4947 10.2408C56.688 10.4838 56.9382 10.6768 57.2238 10.8031C59.2344 11.6824 57.6006 15.1913 55.7442 14.4589C55.45 14.3454 55.132 14.305 54.8182 14.3411C54.5044 14.3772 54.2044 14.4887 53.9445 14.666C53.6845 14.8432 53.4725 15.0807 53.3272 15.3577C53.1818 15.6346 53.1074 15.9426 53.1106 16.2545C53.1137 16.5665 53.1944 16.8729 53.3453 17.1469C53.4963 17.4209 53.7131 17.6542 53.9766 17.8262C54.2401 17.9983 54.5423 18.1039 54.8568 18.1337C55.1712 18.1636 55.4883 18.1169 55.7802 17.9976C57.6807 17.208 59.1377 20.8321 57.276 21.6479C56.9901 21.7764 56.7403 21.9718 56.5482 22.2171C56.356 22.4625 56.2274 22.7504 56.1735 23.056C56.1195 23.3615 56.1418 23.6755 56.2385 23.9706C56.3352 24.2657 56.5034 24.533 56.7284 24.7495C56.9534 24.9659 57.2284 25.1248 57.5297 25.2125C57.8309 25.3002 58.1493 25.314 58.4572 25.2527C58.7651 25.1914 59.0532 25.0569 59.2965 24.8607C59.5398 24.6646 59.731 24.4128 59.8535 24.1272C60.6979 22.1253 64.2291 23.8087 63.5273 25.6628C63.42 25.9496 63.3842 26.2577 63.423 26.5611C63.4619 26.8644 63.5742 27.1541 63.7504 27.4055C63.9267 27.6569 64.1617 27.8627 64.4355 28.0053C64.7094 28.148 65.0141 28.2234 65.3237 28.2251C65.6333 28.2268 65.9388 28.1548 66.2143 28.0152C66.4898 27.8756 66.7271 27.6724 66.9062 27.423C67.0853 27.1736 67.2009 26.8852 67.2432 26.5823C67.2855 26.2793 67.2532 25.9708 67.1491 25.6828C66.6409 24.6141 66.4757 23.4174 66.6759 22.2534C66.876 21.0893 67.4319 20.0135 68.2688 19.1703C69.1058 18.3271 70.1838 17.7569 71.3584 17.536C72.5329 17.3152 73.7477 17.4543 74.8399 17.9348Z" fill="#EF5275"/>
<path d="M0.940166 78.3554C-1.42932 75.5831 1.01285 63.3596 4.56512 56.2593L5.86834 56.895C1.87749 64.8722 0.55516 75.6792 2.05106 77.4294L1.97838 78.3554L0.940166 78.3554Z" fill="#706683"/>
<path d="M7.97668 25.9438H10.679C11.0645 25.9438 11.4343 26.0951 11.7069 26.3643C11.9795 26.6335 12.1327 26.9987 12.1327 27.3794V32.8872H6.52301V27.3794C6.52301 26.9987 6.67616 26.6335 6.94878 26.3643C7.2214 26.0951 7.59115 25.9438 7.97668 25.9438Z" fill="#A19EB6"/>
<path d="M16.6532 57.501H5.80402C5.30474 57.501 4.81035 57.4039 4.34908 57.2153C3.88781 57.0266 3.46869 56.75 3.11564 56.4014C2.7626 56.0528 2.48255 55.6389 2.29148 55.1833C2.10042 54.7278 2.00208 54.2396 2.00208 53.7466V36.0527C2.00208 27.4798 16.653 29.0663 16.653 35.2124L16.6532 57.501Z" fill="#B8B8CF"/>
<path d="M17.9816 62.5577C17.8643 62.5575 17.7488 62.5293 17.6449 62.4755C17.541 62.4217 17.4518 62.3439 17.3849 62.2488C17.318 62.1536 17.2754 62.0439 17.2607 61.9289C17.246 61.814 17.2597 61.6973 17.3006 61.5887C17.5454 60.9392 17.7815 60.2996 18.0153 59.666C19.2225 56.0926 20.7636 52.6379 22.6188 49.3465C22.6657 49.2634 22.7289 49.1904 22.8046 49.1317C22.8804 49.073 22.9672 49.0297 23.06 49.0044C23.1529 48.9791 23.2499 48.9723 23.3454 48.9843C23.4409 48.9963 23.5331 49.027 23.6165 49.0745C23.7 49.122 23.773 49.1854 23.8314 49.261C23.8898 49.3367 23.9324 49.423 23.9567 49.515C23.981 49.6071 23.9866 49.7029 23.9731 49.7971C23.9595 49.8913 23.9272 49.9818 23.8779 50.0636C22.0664 53.2838 20.561 56.6629 19.3809 60.1576C19.146 60.7947 18.9089 61.4372 18.6627 62.0901C18.611 62.2273 18.518 62.3457 18.3963 62.4292C18.2746 62.5128 18.1299 62.5576 17.9816 62.5577Z" fill="#F9B851"/>
<path d="M53.276 71.4761C56.6267 67.606 53.6894 52.091 50.3365 41.5213L12.2485 41.0786C5.79559 52.6678 0.010407 61.8439 11.3733 65.483V71.4742L53.276 71.4761Z" fill="#FBD85C"/>
<path d="M33.2035 48.7015C36.0664 48.7015 46.2066 43.7469 50.3362 41.5213C50.0147 40.5077 49.6893 39.5368 49.3655 38.6286L13.6996 38.4404C13.2165 39.3329 12.7326 40.2121 12.248 41.0783C32.8613 49.1244 31.9833 48.7015 33.2035 48.7015Z" fill="#F9B851"/>
<path d="M35.7888 26.4005L39.6971 14.0008C36.6153 5.4969 23.3246 5.34933 19.286 15.6259C17.7313 19.5818 18.1225 23.9894 17.5071 28.189C16.9708 31.8299 15.6744 35.321 13.6999 38.4411C19.7028 40.7851 25.4178 42.9272 31.4207 45.2709C32.8914 45.8452 33.4055 45.9053 35.1015 45.2527C40.0174 43.361 44.8003 41.1483 49.4186 38.6293C46.5008 35.346 48.8859 37.5592 35.7888 26.4005Z" fill="#FBD85C"/>
<path d="M54.0553 69.9839H11.2991C10.4962 69.9839 9.8454 70.6266 9.8454 71.4194V77.626C9.8454 78.4189 10.4962 79.0616 11.2991 79.0616H54.0553C54.8581 79.0616 55.5089 78.4189 55.5089 77.626V71.4194C55.5089 70.6266 54.8581 69.9839 54.0553 69.9839Z" fill="#807792"/>
<path d="M42.8286 14.9041C40.6662 13.7056 38.2281 13.0762 35.7483 13.0762C33.2686 13.0762 30.8305 13.7056 28.6681 14.9041C28.1122 15.1995 27.6641 15.6597 27.3869 16.2198C27.1096 16.7799 27.0173 17.4118 27.1227 18.0264C27.4301 19.7441 27.7887 24.7773 27.9852 26.5105L35.7483 33.2184L43.3959 27.336C43.5921 25.6026 44.0669 19.744 44.3742 18.0264C44.4797 17.4117 44.3873 16.7799 44.11 16.2198C43.8327 15.6596 43.3846 15.1995 42.8286 14.9041Z" fill="#E6E5F2"/>
<path d="M35.7215 34.1487L27.2944 26.8673L27.2632 26.5903C27.1943 25.984 27.1056 24.9761 27.0066 23.8469C26.8263 21.7948 26.602 19.2409 26.4071 18.1512C26.2746 17.3886 26.3879 16.6041 26.731 15.9085C27.0742 15.2129 27.6299 14.6412 28.3197 14.2742C30.5884 13.0162 33.1466 12.3555 35.7485 12.3555C38.3504 12.3555 40.9086 13.0162 43.1773 14.2742C43.8671 14.6413 44.4229 15.213 44.766 15.9087C45.1092 16.6044 45.2224 17.3889 45.0898 18.1516C44.8883 19.278 44.598 22.3937 44.3857 24.668C44.2772 25.8337 44.1827 26.8462 44.1181 27.4157L44.084 27.7161L35.7215 34.1487ZM28.6778 26.1551L35.7755 32.2877L42.7059 26.9566C42.7674 26.3713 42.8476 25.5074 42.9381 24.5366C43.1645 22.1088 43.4463 19.087 43.6582 17.9017C43.7377 17.4349 43.6668 16.9552 43.4555 16.5304C43.2441 16.1055 42.903 15.757 42.4803 15.5339C40.4354 14.3964 38.1291 13.7962 35.7822 13.7906C33.4352 13.785 31.1261 14.3743 29.0756 15.502C28.6386 15.7209 28.2833 16.0712 28.061 16.5025C27.8387 16.9338 27.7609 17.4236 27.8389 17.9014C28.045 19.0533 28.2626 21.534 28.4549 23.7225C28.5389 24.6806 28.615 25.5498 28.6778 26.1551Z" fill="#706683"/>
<path d="M39.7808 35.1343C45.1012 37.8551 46.6068 39.2243 48.4507 36.5099C51.4591 32.0813 49.0066 25.8826 45.4184 25.4912C43.7766 25.3118 42.2881 26.3699 40.9847 27.3722L38.2409 31.1255L39.7808 35.1343Z" fill="#B8B8CF"/>
<path d="M36.5318 36.5402C39.7886 36.5402 42.4287 33.933 42.4287 30.7169C42.4287 27.5007 39.7886 24.8936 36.5318 24.8936C33.2751 24.8936 30.635 27.5007 30.635 30.7169C30.635 33.933 33.2751 36.5402 36.5318 36.5402Z" fill="#706683"/>
<path d="M36.5318 33.3646C38.0126 33.3646 39.2131 32.1791 39.2131 30.7167C39.2131 29.2543 38.0126 28.0688 36.5318 28.0688C35.0509 28.0688 33.8505 29.2543 33.8505 30.7167C33.8505 32.1791 35.0509 33.3646 36.5318 33.3646Z" fill="#807792"/>
<path d="M24.8736 36.55C26.0761 37.0381 28.4501 37.6213 29.6339 37.0907C32.8478 35.6502 33.0191 26.9413 30.4856 25.4705C29.3545 24.8138 27.0052 25.0122 25.4788 25.2183L24.8736 36.55Z" fill="#A19EB6"/>
<path d="M60.9791 48.3942L55.3887 43.7565C55.0057 43.4389 54.527 43.2555 54.0274 43.2349C53.5278 43.2142 53.0352 43.3575 52.6267 43.6423C46.7052 47.7736 32.8724 57.3434 32.2757 57.7418C32.2757 57.7418 27.1422 61.1022 27.7283 62.6055C28.3803 64.278 34.5593 61.6962 34.5593 61.6962L53.8132 48.2877L58.0643 51.8142L61.0034 51.5691L60.9791 48.3942Z" fill="#807792"/>
<path d="M3.81708 79.6779C3.69635 79.6779 3.57926 79.673 3.465 79.6635C2.97554 79.6292 2.49857 79.4952 2.06406 79.2701C1.62955 79.0449 1.24691 78.7335 0.940186 78.3552L2.05108 77.4293C2.23479 77.6631 2.46669 77.8556 2.73143 77.9942C2.99618 78.1328 3.28772 78.2143 3.58675 78.2332C6.31377 78.4691 12.0753 74.8319 21.6735 66.8115L22.6126 67.9071C12.7884 76.116 7.11227 79.6779 3.81708 79.6779Z" fill="#706683"/>
<path d="M25.6439 36.7001C27.5206 36.7001 29.0419 34.128 29.0419 30.955C29.0419 27.7821 27.5206 25.21 25.6439 25.21C23.7673 25.21 22.246 27.7821 22.246 30.955C22.246 34.128 23.7673 36.7001 25.6439 36.7001Z" fill="#B8B8CF"/>
<path d="M57.463 52.5341L61.3505 47.9737C61.5988 47.6824 61.9541 47.5005 62.3382 47.4679C62.7223 47.4354 63.1038 47.5548 63.3988 47.8L64.9268 49.0703C65.0743 49.1929 65.1664 49.3683 65.1829 49.558C65.1994 49.7477 65.1389 49.936 65.0147 50.0816L60.191 55.7403C60.0669 55.8859 59.8892 55.9769 59.6972 55.9932C59.5051 56.0094 59.3144 55.9497 59.1669 55.8271L57.6389 54.5568C57.3439 54.3116 57.1597 53.9608 57.1267 53.5814C57.0937 53.2021 57.2147 52.8254 57.463 52.5341Z" fill="#A19EB6"/>
<path d="M44.2158 79.9997H37.4853C36.9071 79.9991 36.3529 79.772 35.9441 79.3683C35.5353 78.9647 35.3054 78.4173 35.3047 77.8464V71.1992C35.3054 70.6283 35.5353 70.081 35.9441 69.6773C36.3529 69.2736 36.9071 69.0465 37.4853 69.0459H44.2158C44.7939 69.0465 45.3481 69.2736 45.7569 69.6773C46.1657 70.081 46.3956 70.6283 46.3963 71.1992V77.8464C46.3956 78.4173 46.1657 78.9647 45.7569 79.3683C45.3481 79.772 44.7939 79.9991 44.2158 79.9997ZM37.4853 70.4814C37.2926 70.4817 37.1079 70.5574 36.9716 70.692C36.8354 70.8265 36.7587 71.0089 36.7584 71.1992V77.8464C36.7587 78.0367 36.8354 78.2191 36.9716 78.3537C37.1079 78.4882 37.2926 78.5639 37.4853 78.5642H44.2158C44.4085 78.5639 44.5932 78.4882 44.7294 78.3537C44.8657 78.2191 44.9424 78.0367 44.9426 77.8464V71.1992C44.9424 71.0089 44.8657 70.8265 44.7294 70.692C44.5932 70.5574 44.4085 70.4817 44.2158 70.4814H37.4853Z" fill="#B8B8CF"/>
<path d="M18.6236 54.2527C20.1131 54.2947 21.282 55.4603 22.3506 56.4859C24.2985 58.3554 25.1218 57.8449 26.5173 57.4388C28.4163 56.8927 30.4468 56.9997 32.276 57.7425C31.8566 58.0939 31.5743 58.5785 31.4776 59.1132C31.381 59.6479 31.4759 60.1991 31.7462 60.6721C32.0165 61.1451 32.4453 61.5103 32.9587 61.7049C33.4722 61.8995 34.0382 61.9114 34.5596 61.7385C34.2058 77.932 23.6303 68.5746 21.8193 68.1402C20.3355 67.7842 11.946 68.0566 11.2736 66.0658C9.96132 62.1809 14.5754 54.1387 18.6236 54.2527Z" fill="#F79646"/>
<path d="M77.3563 67.7068L64.4351 54.9471C64.3022 54.8118 64.2286 54.6303 64.23 54.4418C64.2314 54.2534 64.3079 54.073 64.4428 53.9397C64.5778 53.8065 64.7604 53.731 64.9513 53.7295C65.1421 53.7281 65.3259 53.8008 65.4629 53.9321L78.3842 66.6919C78.517 66.8272 78.5907 67.0086 78.5892 67.1971C78.5878 67.3856 78.5113 67.5659 78.3764 67.6992C78.2414 67.8325 78.0588 67.908 77.8679 67.9094C77.6771 67.9108 77.4933 67.838 77.3563 67.7068Z" fill="#E6E5F2"/>
<path d="M68.415 68.5312C68.2826 68.3958 68.2093 68.2145 68.211 68.0263C68.2127 67.8381 68.2891 67.658 68.4239 67.525C68.5586 67.3919 68.7409 67.3164 68.9315 67.3148C69.1221 67.3131 69.3057 67.3855 69.4428 67.5162C69.6472 67.7135 69.9221 67.8232 70.2078 67.8216C70.4936 67.82 70.7672 67.7071 70.9693 67.5076C71.1714 67.3081 71.2857 67.0379 71.2874 66.7557C71.2891 66.4735 71.1781 66.202 70.9784 66.0001L64.2442 59.3497C64.1118 59.2143 64.0385 59.033 64.0402 58.8448C64.0418 58.6566 64.1183 58.4766 64.2531 58.3435C64.3878 58.2105 64.5701 58.135 64.7607 58.1333C64.9513 58.1317 65.1349 58.204 65.2719 58.3348L72.0062 64.9851C74.3852 67.3344 70.7879 70.8745 68.415 68.5312Z" fill="#E6E5F2"/>
<path d="M75.6278 61.4077L68.8935 54.7574C68.7601 54.6222 68.6859 54.4406 68.6871 54.2518C68.6884 54.063 68.7648 53.8823 68.9 53.7488C69.0352 53.6153 69.2182 53.5398 69.4094 53.5386C69.6005 53.5374 69.7845 53.6106 69.9214 53.7424L76.6556 60.3927C76.8593 60.5933 77.1353 60.7059 77.423 60.7057C77.7107 60.7055 77.9865 60.5926 78.19 60.3918C78.3934 60.1909 78.5078 59.9185 78.5081 59.6344C78.5083 59.3503 78.3944 59.0777 78.1912 58.8765C78.0584 58.7412 77.9847 58.5598 77.9862 58.3713C77.9876 58.1828 78.0641 58.0025 78.199 57.8692C78.334 57.7359 78.5166 57.6604 78.7075 57.659C78.8983 57.6576 79.0821 57.7303 79.2191 57.8616C81.601 60.2141 77.994 63.7446 75.6278 61.4077Z" fill="#E6E5F2"/>
<path d="M65.2508 18.2497C66.392 18.2497 67.3172 17.3361 67.3172 16.2091C67.3172 15.0821 66.392 14.1685 65.2508 14.1685C64.1095 14.1685 63.1844 15.0821 63.1844 16.2091C63.1844 17.3361 64.1095 18.2497 65.2508 18.2497Z" fill="#F27F98"/>
<path d="M72.4471 29.724C71.1438 29.724 69.8698 29.3424 68.7862 28.6274C67.7026 27.9123 66.858 26.896 66.3593 25.707C65.8605 24.5179 65.73 23.2095 65.9843 21.9473C66.2385 20.685 66.8661 19.5255 67.7877 18.6154C68.7092 17.7054 69.8833 17.0856 71.1616 16.8345C72.4398 16.5834 73.7647 16.7123 74.9688 17.2048C76.1728 17.6973 77.202 18.5314 77.926 19.6015C78.6501 20.6716 79.0365 21.9297 79.0365 23.2168C79.0346 24.942 78.3397 26.596 77.1044 27.816C75.869 29.0359 74.1941 29.7221 72.4471 29.724ZM72.4471 18.145C71.4313 18.145 70.4384 18.4425 69.5938 18.9998C68.7493 19.5571 68.091 20.3492 67.7023 21.2759C67.3136 22.2026 67.2119 23.2224 67.41 24.2062C67.6082 25.19 68.0973 26.0937 68.8156 26.803C69.5338 27.5123 70.4489 27.9953 71.4452 28.191C72.4414 28.3867 73.474 28.2863 74.4125 27.9024C75.3509 27.5186 76.153 26.8685 76.7173 26.0345C77.2816 25.2004 77.5829 24.2199 77.5829 23.2168C77.5813 21.8721 77.0397 20.583 76.0769 19.6322C75.1141 18.6814 73.8087 18.1466 72.4471 18.145Z" fill="#F9B851"/>
<path d="M67.8328 26.7886L76.1639 18.6192L77.1888 19.6384L68.8576 27.8078L67.8328 26.7886Z" fill="#F9B851"/>
</svg>
