<svg width="231" height="74" viewBox="0 0 231 74" fill="none" xmlns="http://www.w3.org/2000/svg">
<path d="M125.455 57.2437H115.106V38.1624C115.106 35.9632 114.696 34.3462 113.877 33.3112C113.057 32.2763 112.001 31.7589 110.707 31.7589C109.327 31.7589 107.969 32.3193 106.632 33.4406C105.295 34.562 104.347 36.0061 103.786 37.7743V57.2437H93.437V38.1624C93.437 35.9203 93.0272 34.3032 92.2081 33.3112C91.3884 32.2763 90.3323 31.7589 89.0386 31.7589C87.7015 31.7589 86.3649 32.3193 85.0283 33.4406C83.6912 34.562 82.7209 36.0061 82.1176 37.7743V57.2437H71.7685V23.2855H81.0827V28.9775C82.3328 26.9506 84.0146 25.3983 86.1279 24.3204C88.2836 23.1991 90.785 22.6387 93.6311 22.6387C96.4336 22.6387 98.5898 23.3073 100.099 24.6438C101.608 25.9375 102.578 27.4681 103.01 29.2363C104.304 27.1235 106.007 25.5064 108.12 24.3851C110.276 23.2208 112.691 22.6387 115.364 22.6387C117.52 22.6387 119.266 23.0485 120.604 23.8676C121.94 24.6438 122.953 25.6787 123.644 26.9724C124.333 28.266 124.808 29.6673 125.067 31.1767C125.325 32.6427 125.455 34.0874 125.455 35.5104V57.2437Z" fill="white"/>
<path d="M132.219 57.2443V23.2861H142.568V57.2443H132.219Z" fill="white"/>
<path d="M171.644 55.4334C170.696 55.8215 169.639 56.2096 168.475 56.5976C167.353 56.9857 166.168 57.2874 164.917 57.5032C163.667 57.7619 162.438 57.8913 161.23 57.8913C159.506 57.8913 157.91 57.6108 156.444 57.0504C155.021 56.4465 153.878 55.4763 153.016 54.1397C152.197 52.8032 151.787 51.035 151.787 48.8358V31.1129H147.453V23.2863H151.787V12.4844H162.136V23.2863H169.057V31.1129H162.136V45.2783C162.136 46.3996 162.416 47.2187 162.977 47.7362C163.537 48.2107 164.249 48.4477 165.111 48.4477C165.845 48.4477 166.621 48.3183 167.44 48.0596C168.303 47.8009 169.035 47.5204 169.639 47.2187L171.644 55.4334Z" fill="white"/>
<path d="M175.548 10.0264H185.897V45.1488C185.897 46.5718 186.155 47.585 186.673 48.1889C187.19 48.7928 187.923 49.0944 188.872 49.0944C189.519 49.0944 190.166 49.008 190.813 48.8357C191.502 48.6199 192.106 48.3829 192.624 48.1242L193.982 55.8861C192.688 56.49 191.201 56.9639 189.519 57.3091C187.837 57.6542 186.263 57.8265 184.797 57.8265C181.865 57.8265 179.579 57.0503 177.941 55.498C176.345 53.9027 175.548 51.66 175.548 48.771V10.0264Z" fill="white"/>
<path d="M195.208 47.0886C195.208 44.8464 195.834 42.8842 197.084 41.2025C198.335 39.5207 200.059 38.2053 202.258 37.2569C204.458 36.2649 206.98 35.7692 209.826 35.7692C211.206 35.7692 212.565 35.8985 213.901 36.1573C215.238 36.3731 216.403 36.6965 217.394 37.1275V35.6398C217.394 33.7858 216.834 32.3628 215.712 31.3708C214.592 30.3788 212.888 29.8831 210.602 29.8831C208.705 29.8831 206.915 30.2065 205.234 30.8533C203.596 31.5001 201.849 32.4275 199.995 33.6347L196.89 27.0371C199.132 25.5711 201.461 24.4715 203.875 23.7383C206.334 23.005 208.921 22.6387 211.637 22.6387C216.726 22.6387 220.672 23.8676 223.474 26.3256C226.32 28.7406 227.744 32.2546 227.744 36.8688V45.7302C227.744 46.7651 227.894 47.4984 228.196 47.9294C228.541 48.3175 229.123 48.5545 229.942 48.6409V57.2437C229.08 57.416 228.261 57.5453 227.485 57.6318C226.752 57.7182 226.105 57.7611 225.544 57.7611C223.604 57.7611 222.116 57.373 221.081 56.5968C220.089 55.8207 219.464 54.764 219.206 53.4274L219.011 51.9397C217.502 53.8802 215.691 55.3679 213.578 56.4028C211.508 57.3948 209.33 57.8905 207.045 57.8905C204.803 57.8905 202.776 57.416 200.965 56.4675C199.197 55.519 197.795 54.2254 196.76 52.5865C195.725 50.9477 195.208 49.1155 195.208 47.0886ZM215.777 48.3822C216.251 47.9941 216.64 47.5631 216.941 47.0886C217.243 46.614 217.394 46.1612 217.394 45.7302V42.6902C216.532 42.345 215.562 42.0863 214.484 41.914C213.449 41.6982 212.478 41.5906 211.573 41.5906C209.676 41.5906 208.102 42.0216 206.851 42.8842C205.601 43.7033 204.975 44.8029 204.975 46.183C204.975 46.9592 205.191 47.6707 205.622 48.3175C206.053 48.9643 206.636 49.4818 207.368 49.8699C208.145 50.258 209.05 50.452 210.085 50.452C211.12 50.452 212.155 50.258 213.19 49.8699C214.225 49.4818 215.087 48.9861 215.777 48.3822Z" fill="white"/>
<path d="M50.5498 43.9257C50.5498 44.6831 50.4692 45.3999 50.3892 46.0779C48.9051 46.0379 47.502 45.9185 46.0984 45.7192C38.1178 44.6037 31.0198 41.2167 25.6865 36.4349C25.3255 36.1156 24.9644 35.7975 24.6445 35.4782C27.0095 31.5738 31.7025 29.1429 35.8722 29.1429C37.4763 29.1429 39.0404 29.4216 40.484 29.9003L49.7124 9.97461H54.8006L45.5769 32.8086C48.6246 35.5182 50.5498 39.5026 50.5498 43.9257Z" fill="white"/>
<path d="M5.07464 48.7409C7.23561 48.7409 9.35601 48.4227 11.3171 47.8271C15.0386 46.6757 18.2798 44.5312 20.7613 41.6717C21.8015 40.4804 22.7217 39.1297 23.442 37.7002C29.845 43.8156 38.8088 47.9464 48.8927 48.8197C49.4525 50.1703 49.8524 51.6004 50.0935 53.1098C50.2528 54.1818 50.3334 55.2538 50.3334 56.3663C50.2934 63.9112 46.0914 70.5041 39.8884 73.9593C39.328 73.9999 38.7688 73.9999 38.1684 73.9999C36.0468 73.9999 34.0064 73.8405 31.9654 73.5224C33.2455 72.0929 34.4463 70.5435 35.4071 68.7971C36.8078 66.2944 37.768 63.713 38.2878 61.0522C36.5678 65.4212 33.6865 69.3927 29.6451 72.3716C29.3646 72.5698 29.0847 72.7685 28.8042 72.9267C22.1214 71.4972 16.1594 68.5983 11.3171 64.6662C5.83495 60.2578 1.87288 54.4999 0.0723572 48.0258C1.67295 48.5027 3.35409 48.7409 5.07464 48.7409Z" fill="url(#paint0_linear_23_53)"/>
<mask id="mask0_23_53" style="mask-type:luminance" maskUnits="userSpaceOnUse" x="0" y="0" width="48" height="48">
<path d="M-1.47376e-06 7.17784L40.0965 0L47.2743 40.0965L7.17784 47.2743L-1.47376e-06 7.17784Z" fill="white"/>
</mask>
<g mask="url(#mask0_23_53)">
<path d="M26.4956 22.6023L27.6522 20.8812C28.4543 19.7286 28.7224 18.3633 28.5083 17.0784C28.2637 15.7995 27.5381 14.6117 26.3862 13.8091L24.7044 12.5966C24.6798 12.5789 24.6745 12.5448 24.6915 12.5201C24.7086 12.4954 24.7421 12.4889 24.768 12.506L26.4879 13.662C27.6404 14.4653 29.0052 14.7334 30.2895 14.5194C31.5678 14.2748 32.7556 13.5497 33.5583 12.3966L34.7702 10.7155C34.7872 10.6914 34.8213 10.6849 34.846 10.702C34.8707 10.7196 34.8772 10.7537 34.8601 10.7784L33.7047 12.4989C32.9014 13.6521 32.6339 15.0174 32.8473 16.3017C33.0931 17.5806 33.817 18.7684 34.9701 19.5711L36.6513 20.7842C36.676 20.8018 36.6813 20.8359 36.6642 20.8606C36.6471 20.8853 36.613 20.8918 36.5883 20.8747L34.8684 19.7175C34.2915 19.3159 33.6624 19.0483 33.0161 18.9084C32.3711 18.7678 31.7084 18.7537 31.0668 18.8607C29.7885 19.1059 28.6001 19.8304 27.798 20.9835L26.5861 22.6652C26.5691 22.6893 26.535 22.6952 26.5103 22.6782C26.4856 22.6611 26.4791 22.627 26.4956 22.6023Z" fill="#F25E57"/>
<path d="M36.6836 8.72558L37.6556 9.4265C37.6697 9.4365 37.6732 9.45649 37.6632 9.4706C37.6526 9.4853 37.6338 9.48825 37.6191 9.47884L36.6248 8.81025C35.9585 8.34631 35.1694 8.19107 34.4273 8.31455C33.6882 8.45626 33.002 8.87553 32.538 9.54175L31.8377 10.5138C31.8277 10.5279 31.8077 10.5314 31.793 10.5214C31.7789 10.5114 31.7754 10.4914 31.7854 10.4773L32.4534 9.48236C32.9173 8.81614 33.072 8.02701 32.9485 7.28434C32.8068 6.54579 32.3881 5.85839 31.7219 5.39503L30.7499 4.69353C30.7357 4.68353 30.7322 4.66354 30.7422 4.64943C30.7522 4.63532 30.7722 4.6312 30.7863 4.64119L31.7806 5.31036C32.4463 5.77372 33.236 5.92896 33.9781 5.80547C34.7172 5.66376 35.4034 5.24509 35.8674 4.57828L36.5683 3.60628C36.5783 3.59158 36.5977 3.58864 36.6118 3.59864C36.6265 3.60863 36.6301 3.62804 36.6207 3.64274L35.9521 4.63767C35.4881 5.30331 35.3335 6.09302 35.457 6.8351C35.5987 7.57483 36.0173 8.26163 36.6836 8.72558Z" fill="#F25E57"/>
<path d="M36.9623 26.2979L37.4863 25.5188C37.8496 24.9966 37.9708 24.378 37.8738 23.7965C37.7626 23.2173 37.4345 22.6792 36.9124 22.3158L36.1509 21.7666C36.1403 21.759 36.1373 21.7431 36.145 21.7319C36.1532 21.7208 36.1685 21.7178 36.1797 21.7255L36.9588 22.25C37.4804 22.6134 38.099 22.7345 38.6805 22.6375C39.2591 22.5269 39.7972 22.1988 40.1606 21.6767L40.7092 20.9152C40.7174 20.9034 40.7327 20.9011 40.7439 20.9087C40.7551 20.9164 40.758 20.9322 40.7503 20.9434L40.227 21.7225C39.8636 22.2447 39.7425 22.8633 39.8389 23.4443C39.9501 24.0241 40.2782 24.5621 40.8003 24.9255L41.5612 25.4747C41.5724 25.4823 41.5753 25.4982 41.5671 25.5088C41.5595 25.52 41.5442 25.5235 41.5324 25.5159L40.7539 24.9919C40.2317 24.6279 39.6137 24.5068 39.0322 24.6038C38.4535 24.7144 37.9155 25.0431 37.5521 25.5647L37.0035 26.3262C36.9953 26.3379 36.98 26.3403 36.9688 26.3326C36.9576 26.3244 36.9547 26.3091 36.9623 26.2979Z" fill="#F25E57"/>
<path d="M14.2735 21.804L14.7698 21.066C15.1138 20.5721 15.2279 19.9864 15.1367 19.4354C15.0315 18.8874 14.721 18.3776 14.2271 18.0336L13.5056 17.5138C13.4956 17.5061 13.4927 17.4914 13.5003 17.4809C13.5074 17.4703 13.522 17.4679 13.5326 17.475L14.2706 17.9707C14.7645 18.3153 15.3502 18.4299 15.9006 18.3382C16.4486 18.2335 16.9573 17.9225 17.3018 17.4285L17.8217 16.707C17.8293 16.697 17.8434 16.6941 17.8546 16.7011C17.8652 16.7088 17.8675 16.7235 17.861 16.7341L17.3648 17.472C17.0208 17.966 16.9061 18.5516 16.9972 19.102C17.1025 19.6506 17.4136 20.1605 17.9075 20.5045L18.6284 21.0249C18.639 21.0325 18.6413 21.0466 18.6337 21.0572C18.6266 21.0678 18.6119 21.0707 18.6014 21.0637L17.864 20.5674C17.3695 20.2228 16.7838 20.1081 16.2334 20.1999C15.6854 20.3045 15.1767 20.6156 14.8322 21.1101L14.3129 21.831C14.3053 21.8416 14.2906 21.8446 14.28 21.8369C14.2694 21.8293 14.2665 21.8152 14.2735 21.804Z" fill="#F25E57"/>
<path d="M20.1055 29.1591L20.7341 28.2253C21.1698 27.599 21.3151 26.857 21.1992 26.1596C21.0663 25.4651 20.6724 24.8201 20.0461 24.3838L19.1329 23.7252C19.12 23.7163 19.1171 23.6975 19.1259 23.684C19.1359 23.6705 19.1541 23.6675 19.1676 23.6764L20.102 24.3044C20.7276 24.7407 21.4692 24.8859 22.1665 24.7701C22.8604 24.6372 23.5055 24.2432 23.9418 23.617L24.5998 22.7038C24.6092 22.6908 24.628 22.6873 24.6409 22.6967C24.6544 22.7061 24.6574 22.7249 24.6486 22.7379L24.0212 23.6728C23.5848 24.2985 23.4396 25.0406 23.5554 25.738C23.6883 26.4318 24.0823 27.0775 24.7086 27.5138L25.6217 28.1718C25.6347 28.1824 25.6376 28.2 25.6288 28.2135C25.6194 28.2271 25.6006 28.2306 25.5876 28.2218L24.6527 27.5932C24.027 27.1569 23.2855 27.0116 22.5881 27.128C21.8943 27.2603 21.2492 27.6543 20.8129 28.2806L20.1549 29.1938C20.1455 29.2067 20.1273 29.2102 20.1137 29.2008C20.1002 29.1914 20.0973 29.1732 20.1055 29.1591Z" fill="#F25E57"/>
<path d="M8.07288 27.0498L8.47626 26.45C8.75557 26.0484 8.84906 25.5721 8.77438 25.124C8.68912 24.6789 8.43686 24.2649 8.03466 23.9844L7.44899 23.5622C7.44017 23.5558 7.4384 23.544 7.44428 23.5352C7.45016 23.527 7.46193 23.5246 7.47075 23.5305L8.07053 23.9339C8.47215 24.2138 8.94785 24.3067 9.39533 24.2326C9.84105 24.1467 10.255 23.8945 10.5349 23.4923L10.9571 22.906C10.9636 22.8978 10.9753 22.896 10.9842 22.9019C10.9924 22.9078 10.9953 22.9195 10.9889 22.9284L10.5861 23.5276C10.3062 23.9303 10.2127 24.4061 10.2874 24.8535C10.3726 25.2993 10.6255 25.7138 11.0271 25.9931L11.6133 26.4159C11.6216 26.4224 11.6239 26.4341 11.6175 26.443C11.6116 26.4512 11.5998 26.4535 11.591 26.4477L10.9912 26.0443C10.5902 25.765 10.1139 25.6709 9.66641 25.7456C9.22069 25.8308 8.80673 26.0837 8.52742 26.4853L8.10521 27.0716C8.09875 27.0804 8.0864 27.0821 8.07817 27.0763C8.06935 27.0704 8.067 27.0586 8.07288 27.0498Z" fill="#F25E57"/>
<path d="M12.2031 28.6675L12.7888 29.062C13.1816 29.3354 13.6473 29.4266 14.0848 29.3543C14.5199 29.2708 14.9251 29.0232 15.1979 28.6304L15.6113 28.0577C15.6172 28.0489 15.6289 28.0477 15.6372 28.053C15.6454 28.0589 15.6478 28.07 15.6419 28.0789L15.2485 28.6657C14.9745 29.0579 14.8833 29.5236 14.9568 29.9611C15.0397 30.3974 15.2867 30.8026 15.6801 31.0754L16.2528 31.4888C16.2611 31.4952 16.2628 31.5064 16.2569 31.5147C16.2511 31.5235 16.2399 31.5258 16.2311 31.5199L15.6448 31.126C15.252 30.852 14.7869 30.7608 14.3494 30.8337C13.9137 30.9172 13.5091 31.1642 13.2357 31.557L12.8229 32.1303C12.8164 32.138 12.8047 32.1403 12.7964 32.1344C12.7882 32.1285 12.7859 32.1174 12.7917 32.1086L13.1857 31.5223C13.4591 31.1295 13.5503 30.6638 13.4774 30.2263C13.3939 29.79 13.1469 29.3854 12.7547 29.112L12.1814 28.6986C12.1731 28.6922 12.1708 28.681 12.1767 28.6727C12.1825 28.6645 12.1943 28.6616 12.2031 28.6675Z" fill="#F25E57"/>
<path d="M6.16065 31.7111L6.66281 32.0486C6.99856 32.2827 7.39666 32.3609 7.77182 32.2986C8.14521 32.2268 8.49098 32.0151 8.7256 31.6794L9.07899 31.1884C9.08428 31.1813 9.09427 31.1796 9.10133 31.1843C9.10838 31.1896 9.11016 31.1996 9.10545 31.2066L8.76852 31.7088C8.5339 32.0451 8.45568 32.4444 8.5186 32.8184C8.58975 33.1918 8.80144 33.5381 9.13779 33.7727L9.62819 34.1267C9.63525 34.132 9.63702 34.142 9.63232 34.1491C9.62703 34.1561 9.61703 34.1579 9.60998 34.1532L9.10781 33.8157C8.77146 33.581 8.37337 33.5028 7.99821 33.5652C7.62541 33.6369 7.27906 33.8486 7.04503 34.1849L6.69162 34.6753C6.68574 34.6824 6.67634 34.6842 6.66869 34.6795C6.66163 34.6748 6.65988 34.6648 6.66458 34.6571L7.00211 34.1549C7.23614 33.8186 7.31434 33.4199 7.25201 33.0448C7.18027 32.6725 6.96917 32.3256 6.63282 32.091L6.14242 31.737C6.13478 31.7317 6.133 31.7223 6.13829 31.7153C6.143 31.7082 6.1536 31.7058 6.16065 31.7111Z" fill="#F25E57"/>
<path d="M8.82967 37.5117L9.33125 37.8493C9.6676 38.0833 10.0657 38.1615 10.4408 38.0992C10.8136 38.0274 11.16 37.8163 11.394 37.48L11.748 36.9896C11.7527 36.9819 11.7627 36.9802 11.7703 36.9855C11.7774 36.9902 11.7792 37.0002 11.7745 37.0072L11.4369 37.5094C11.2029 37.8457 11.1253 38.245 11.187 38.619C11.2588 38.9924 11.4699 39.3393 11.8062 39.5739L12.2972 39.9273C12.3043 39.9326 12.306 39.9426 12.3007 39.9497C12.296 39.9567 12.286 39.9585 12.2784 39.9538L11.7768 39.6163C11.4405 39.3822 11.0424 39.3034 10.6672 39.3658C10.2938 39.4375 9.94808 39.6492 9.71346 39.9855L9.36005 40.4765C9.35476 40.4836 9.34476 40.4854 9.33771 40.4807C9.33065 40.4754 9.32889 40.4654 9.3336 40.4577L9.67113 39.9556C9.90516 39.6192 9.98277 39.2211 9.92044 38.846C9.84928 38.4732 9.63759 38.1262 9.30124 37.8922L8.81084 37.5382C8.80379 37.5329 8.80203 37.5229 8.80674 37.5159C8.81203 37.5082 8.82202 37.5064 8.82967 37.5117Z" fill="#F25E57"/>
<path d="M9.68699 13.203L10.1892 13.5405C10.5249 13.7752 10.9236 13.8534 11.2982 13.7905C11.671 13.7193 12.0179 13.5076 12.2519 13.1713L12.6053 12.6803C12.6106 12.6738 12.6206 12.6715 12.6277 12.6767C12.6347 12.6814 12.6365 12.6914 12.6318 12.6991L12.2949 13.2007C12.0608 13.5376 11.982 13.9357 12.0444 14.3108C12.1161 14.6837 12.3278 15.0306 12.6642 15.2652L13.1546 15.6192C13.1616 15.6239 13.1634 15.6339 13.1581 15.641C13.1534 15.648 13.1434 15.6498 13.1363 15.6451L12.6341 15.3075C12.2978 15.0735 11.8997 14.9953 11.5251 15.0576C11.1518 15.1294 10.8054 15.3411 10.5714 15.6768L10.2174 16.1678C10.2121 16.1749 10.2021 16.1766 10.1951 16.1713C10.188 16.1666 10.1862 16.1566 10.1909 16.149L10.5285 15.6474C10.7625 15.3111 10.8407 14.9118 10.7784 14.5372C10.7066 14.1638 10.4949 13.8175 10.1592 13.5829L9.66819 13.2295C9.66113 13.2242 9.65936 13.2142 9.66406 13.2071C9.66935 13.2001 9.67935 13.1983 9.68699 13.203Z" fill="#F25E57"/>
<path d="M23.7048 13.8407L22.9257 13.3168C22.4041 12.9534 21.7855 12.8323 21.204 12.9287C20.6254 13.0399 20.0873 13.368 19.7245 13.8901L19.1753 14.6516C19.1677 14.6628 19.1518 14.6652 19.1406 14.6575C19.1294 14.6493 19.1265 14.6346 19.1347 14.6234L19.6581 13.8443C20.0215 13.3215 20.1426 12.7035 20.0456 12.1214C19.935 11.5422 19.6063 11.0047 19.0847 10.6407L18.3233 10.0921C18.3121 10.0839 18.3097 10.0686 18.3174 10.0574C18.325 10.0457 18.3403 10.0433 18.3521 10.051L19.1312 10.5749C19.6528 10.9383 20.2708 11.0594 20.8523 10.963C21.4309 10.8518 21.9696 10.5237 22.3324 10.0016L22.8816 9.24008C22.8892 9.22891 22.9045 9.22597 22.9163 9.2342C22.9269 9.24184 22.9304 9.25713 22.9222 9.2683L22.3988 10.0474C22.0354 10.5696 21.9143 11.1882 22.0107 11.7697C22.1219 12.3489 22.45 12.887 22.9716 13.251L23.7336 13.7996C23.7448 13.8078 23.7472 13.8231 23.7395 13.8343C23.7319 13.8455 23.716 13.8484 23.7048 13.8407Z" fill="#F25E57"/>
<path d="M29.755 22.7777C29.775 22.8876 29.7009 22.9935 29.5909 23.0135C29.4798 23.0335 29.3745 22.9594 29.3545 22.8494C29.3351 22.7383 29.4086 22.633 29.5192 22.6136C29.6292 22.5936 29.735 22.6671 29.755 22.7777Z" fill="#F25E57"/>
<path d="M33.4383 24.8611C33.4577 24.9711 33.3848 25.0769 33.2743 25.0969C33.1637 25.1163 33.0585 25.0428 33.039 24.9323C33.0191 24.8217 33.0925 24.7165 33.2025 24.6965C33.3131 24.6771 33.4183 24.7506 33.4383 24.8611Z" fill="#F25E57"/>
<path d="M22.3847 22.8943C22.4041 23.0043 22.3312 23.1096 22.2206 23.1295C22.1101 23.1495 22.0048 23.076 21.9848 22.9655C21.9649 22.8549 22.0384 22.7497 22.1489 22.7297C22.2594 22.7103 22.3647 22.7832 22.3847 22.8943Z" fill="#F25E57"/>
<path d="M22.3965 18.4388C22.4164 18.5494 22.3429 18.6546 22.233 18.6746C22.1218 18.6946 22.0166 18.6211 21.9972 18.5106C21.9772 18.4 22.0507 18.2942 22.1612 18.2748C22.2712 18.2548 22.377 18.3283 22.3965 18.4388Z" fill="#F25E57"/>
<path d="M17.1125 14.6477C17.1325 14.7582 17.0584 14.8635 16.9479 14.8835C16.8373 14.9034 16.7321 14.8299 16.7121 14.7194C16.6927 14.6088 16.7662 14.5036 16.8767 14.4836C16.9867 14.4642 17.0925 14.5371 17.1125 14.6477Z" fill="#F25E57"/>
<path d="M9.52587 19.9304C9.54528 20.0404 9.47177 20.1463 9.36123 20.1657C9.25127 20.1857 9.14543 20.1122 9.12602 20.0022C9.10603 19.8911 9.17952 19.7858 9.28948 19.7658C9.40062 19.7464 9.50588 19.8199 9.52587 19.9304Z" fill="#F25E57"/>
<path d="M6.37821 26.848C6.3982 26.9586 6.32469 27.0638 6.21414 27.0838C6.10359 27.1032 5.99834 27.0297 5.97834 26.9197C5.95894 26.8092 6.03187 26.7039 6.14301 26.6839C6.25297 26.664 6.35822 26.7375 6.37821 26.848Z" fill="#F25E57"/>
<path d="M14.9356 34.6478C14.955 34.7583 14.8821 34.8636 14.771 34.8836C14.661 34.903 14.5558 34.8301 14.5358 34.719C14.5158 34.609 14.5893 34.5037 14.6998 34.4837C14.8104 34.4638 14.9156 34.5373 14.9356 34.6478Z" fill="#F25E57"/>
<path d="M11.611 42.3324C11.631 42.4429 11.5575 42.5487 11.447 42.5681C11.337 42.5881 11.2312 42.5141 11.2117 42.4041C11.1918 42.2935 11.2652 42.1877 11.3752 42.1683C11.4863 42.1483 11.5916 42.2224 11.611 42.3324Z" fill="#F25E57"/>
<path d="M41.1637 5.95918C41.1837 6.06914 41.1102 6.17498 40.9997 6.19438C40.8891 6.21438 40.7839 6.14087 40.7639 6.03091C40.7445 5.92037 40.818 5.81511 40.9279 5.79512C41.0385 5.77571 41.1443 5.84863 41.1637 5.95918Z" fill="#F25E57"/>
<path d="M41.1531 15.1914C41.1725 15.3019 41.0996 15.4072 40.9891 15.4272C40.8785 15.4466 40.7733 15.3731 40.7533 15.2625C40.7333 15.152 40.8068 15.0467 40.9173 15.0267C41.0279 15.0067 41.1331 15.0802 41.1531 15.1914Z" fill="#F25E57"/>
<path d="M25.9034 18.1273C25.9234 18.2378 25.8493 18.3431 25.7394 18.3631C25.6288 18.3825 25.5236 18.309 25.5036 18.199C25.4842 18.0885 25.5571 17.9826 25.6676 17.9632C25.7782 17.9432 25.8834 18.0167 25.9034 18.1273Z" fill="#F25E57"/>
<path d="M18.2715 8.77867C18.2909 8.88863 18.218 8.99447 18.1069 9.01447C17.9969 9.03446 17.891 8.96036 17.8711 8.8504C17.8511 8.73986 17.9252 8.63401 18.0357 8.61461C18.1462 8.59461 18.2515 8.66812 18.2715 8.77867Z" fill="#F25E57"/>
<path d="M30.3018 12.2859C30.3218 12.397 30.2483 12.5023 30.1383 12.5217C30.0278 12.5417 29.9219 12.4682 29.9025 12.3576C29.8825 12.2477 29.956 12.1418 30.0666 12.1224C30.1771 12.1024 30.2824 12.1759 30.3018 12.2859Z" fill="#F25E57"/>
<path d="M19.0312 26.5199C19.0506 26.6304 18.9777 26.7363 18.8666 26.7557C18.7566 26.7756 18.6508 26.7021 18.6308 26.5916C18.6114 26.481 18.6849 26.3752 18.7954 26.3558C18.906 26.3358 19.0112 26.4099 19.0312 26.5199Z" fill="#F25E57"/>
<path d="M43.4093 19.6576C43.4287 19.7681 43.3552 19.8734 43.2453 19.8934C43.1347 19.9128 43.0289 19.8399 43.0095 19.7287C42.9895 19.6188 43.0636 19.5135 43.1735 19.4935C43.2841 19.4735 43.3893 19.547 43.4093 19.6576Z" fill="#F25E57"/>
<path d="M27.0795 30.1478C27.0995 30.2584 27.026 30.3636 26.9154 30.3836C26.8049 30.403 26.6996 30.3301 26.6796 30.2195C26.6602 30.109 26.7331 30.0037 26.8437 29.9837C26.9542 29.9638 27.0595 30.0373 27.0795 30.1478Z" fill="#F25E57"/>
<path d="M28.9935 8.3441C29.0135 8.45465 28.94 8.5599 28.8294 8.5799C28.7189 8.5993 28.6136 8.5258 28.5936 8.41525C28.5742 8.30529 28.6471 8.19944 28.7583 8.18004C28.8682 8.16004 28.9735 8.23355 28.9935 8.3441Z" fill="#F25E57"/>
<path d="M20.0414 16.4354C20.0703 16.5971 19.9621 16.7517 19.8004 16.7811C19.6381 16.8099 19.4834 16.7023 19.4546 16.54C19.4252 16.3783 19.5328 16.2231 19.6957 16.1943C19.8568 16.1649 20.012 16.2731 20.0414 16.4354Z" fill="#F25E57"/>
<path d="M35.7128 15.4483C35.7416 15.6106 35.6334 15.7652 35.4717 15.794C35.3094 15.8234 35.1547 15.7153 35.1259 15.5535C35.0971 15.3913 35.2047 15.2366 35.3664 15.2078C35.5287 15.179 35.6834 15.2866 35.7128 15.4483Z" fill="#F25E57"/>
<path d="M26.4991 25.2106C26.5279 25.3723 26.4203 25.5275 26.258 25.5564C26.0957 25.5858 25.9411 25.4776 25.9123 25.3159C25.8834 25.1536 25.9911 24.9989 26.1528 24.9695C26.3151 24.9407 26.4703 25.0483 26.4991 25.2106Z" fill="#F25E57"/>
<path d="M18.1645 29.2926C18.1939 29.4549 18.0857 29.6095 17.9234 29.6384C17.7611 29.6678 17.607 29.5602 17.5776 29.3973C17.5488 29.2356 17.6564 29.0809 17.8181 29.0515C17.9804 29.0227 18.1357 29.1309 18.1645 29.2926Z" fill="#F25E57"/>
<path d="M11.4699 34.126C11.4993 34.2883 11.3911 34.4436 11.2288 34.4724C11.0671 34.5012 10.9124 34.3936 10.883 34.2313C10.8542 34.069 10.9624 33.9143 11.1241 33.8855C11.2858 33.8567 11.441 33.9643 11.4699 34.126Z" fill="#F25E57"/>
<path d="M7.46723 37.4734C7.49604 37.6352 7.38843 37.7898 7.22614 37.8192C7.06443 37.848 6.90978 37.7404 6.88097 37.5781C6.85157 37.4164 6.95917 37.2612 7.12147 37.2324C7.28317 37.203 7.43783 37.3112 7.46723 37.4734Z" fill="#F25E57"/>
<path d="M14.6052 24.6071C14.6346 24.7694 14.527 24.9246 14.3641 24.9534C14.203 24.9822 14.0478 24.8746 14.0184 24.7123C13.9896 24.55 14.0978 24.3954 14.2595 24.366C14.4218 24.3372 14.5764 24.4454 14.6052 24.6071Z" fill="#F25E57"/>
<path d="M9.01135 28.9629C9.04016 29.1258 8.93255 29.2805 8.77026 29.3093C8.60855 29.3381 8.45331 29.2305 8.4245 29.0682C8.3951 28.9065 8.50329 28.7513 8.66559 28.7224C8.82729 28.6936 8.98195 28.8012 9.01135 28.9629Z" fill="#F25E57"/>
<path d="M12.6894 19.8737C12.7188 20.036 12.6112 20.1906 12.4489 20.2194C12.2872 20.2488 12.132 20.1412 12.1032 19.9783C12.0738 19.8166 12.182 19.662 12.3443 19.6326C12.506 19.6038 12.6606 19.712 12.6894 19.8737Z" fill="#F25E57"/>
<path d="M38.5018 18.2604C38.5306 18.4227 38.423 18.5773 38.2613 18.6067C38.099 18.6356 37.9443 18.5274 37.9155 18.3651C37.8867 18.2034 37.9937 18.0481 38.156 18.0193C38.3183 17.9905 38.473 18.0981 38.5018 18.2604Z" fill="#F25E57"/>
<path d="M38.6817 11.0905C38.7105 11.2528 38.6023 11.4074 38.4406 11.4368C38.2789 11.4656 38.1236 11.358 38.0948 11.1951C38.0654 11.0334 38.1736 10.8782 38.3353 10.8494C38.4976 10.8206 38.6523 10.9282 38.6817 11.0905Z" fill="#F25E57"/>
<path d="M25.1725 7.84634C25.2013 8.00805 25.0937 8.16328 24.9314 8.1921C24.7691 8.2215 24.6145 8.1133 24.5857 7.9516C24.5568 7.7893 24.6645 7.63465 24.8262 7.60525C24.9885 7.57644 25.1437 7.68405 25.1725 7.84634Z" fill="#F25E57"/>
</g>
<path d="M137.03 21.8576L136.978 20.1988C136.961 19.0745 136.497 18.0614 135.758 17.3264C135.001 16.6096 133.975 16.1762 132.851 16.1926L131.191 16.1897C131.167 16.1897 131.148 16.1703 131.147 16.1462C131.147 16.1221 131.166 16.1021 131.19 16.1015L132.848 16.0498C133.973 16.0333 134.985 15.5699 135.72 14.8308C136.437 14.0746 136.871 13.0485 136.853 11.9242L136.856 10.2648C136.856 10.2407 136.875 10.2207 136.899 10.2207C136.923 10.2201 136.943 10.2395 136.944 10.2636L136.996 11.9219C137.013 13.0467 137.477 14.0593 138.216 14.7943C138.973 15.5111 139.998 15.9451 141.123 15.928L142.783 15.9316C142.807 15.9316 142.826 15.951 142.827 15.9751C142.827 15.9992 142.808 16.0192 142.784 16.0198L141.125 16.0709C140.563 16.0797 140.029 16.1997 139.543 16.4102C139.058 16.6201 138.62 16.9206 138.254 17.2899C137.537 18.0467 137.103 19.0728 137.12 20.1971L137.118 21.8559C137.118 21.88 137.099 21.9 137.075 21.9C137.051 21.9006 137.031 21.8817 137.03 21.8576Z" fill="#F25E57"/>
<path d="M75.3724 73.7076C74.8544 73.7076 74.3722 73.6229 73.9253 73.453C73.4849 73.2766 73.0991 73.0314 72.7687 72.718C72.4453 72.3975 72.1924 72.0218 72.0113 71.5907C71.8296 71.1597 71.739 70.6893 71.739 70.1795C71.739 69.6697 71.8296 69.1993 72.0113 68.7682C72.1924 68.3372 72.4482 67.9644 72.7787 67.651C73.1091 67.3311 73.4943 67.0859 73.9347 66.916C74.3751 66.7396 74.8579 66.6514 75.3824 66.6514C75.9393 66.6514 76.4479 66.7496 76.9077 66.9454C77.1976 67.0647 77.4587 67.2217 77.6922 67.4164C77.925 67.611 77.9021 67.9609 77.6816 68.1702C77.4481 68.3913 77.0836 68.3701 76.819 68.1885C76.6955 68.1038 76.5661 68.032 76.4315 67.9744C76.1274 67.8374 75.797 67.7686 75.4406 67.7686C75.0843 67.7686 74.7574 67.8274 74.4592 67.945C74.1682 68.0626 73.9124 68.229 73.6919 68.4448C73.4784 68.6606 73.3096 68.9152 73.1868 69.2093C73.0703 69.5033 73.0115 69.8267 73.0115 70.1795C73.0115 70.5323 73.0703 70.8557 73.1868 71.1497C73.3096 71.4437 73.4784 71.6984 73.6919 71.9142C73.9124 72.13 74.1682 72.2964 74.4592 72.414C74.7574 72.5316 75.0843 72.5904 75.4406 72.5904C75.797 72.5904 76.1274 72.5251 76.4315 72.3946C76.5661 72.334 76.6949 72.2599 76.8178 72.1723C77.0818 71.9847 77.4511 71.963 77.6845 72.1876C77.9033 72.3969 77.9238 72.7462 77.6904 72.9397C77.4575 73.1325 77.1965 73.2901 76.9077 73.4136C76.4479 73.6094 75.9363 73.7076 75.3724 73.7076Z" fill="#F25E57"/>
<path d="M83.6482 73.6108C83.1155 73.6108 82.6845 73.1798 82.6845 72.6471V67.3825C82.6845 67.0332 82.9667 66.751 83.316 66.751C83.6647 66.751 83.9469 67.0332 83.9469 67.3825V72.533H86.9641C87.2616 72.533 87.5033 72.7741 87.5033 73.0722C87.5033 73.3697 87.2616 73.6108 86.9641 73.6108H83.6482Z" fill="#F25E57"/>
<path d="M93.0665 69.6029H95.9231C96.213 69.6029 96.4476 69.8375 96.4476 70.1268C96.4476 70.4167 96.213 70.6513 95.9231 70.6513H93.0665V69.6029ZM93.1636 72.543H96.4671C96.7622 72.543 97.0016 72.7817 97.0016 73.0769C97.0016 73.3721 96.7622 73.6108 96.4671 73.6108H92.9207C92.3574 73.6108 91.9005 73.1545 91.9005 72.5906V67.7435C91.9005 67.1955 92.345 66.751 92.8937 66.751H96.3312C96.6264 66.751 96.8651 66.9897 96.8651 67.2849C96.8651 67.5801 96.6264 67.8188 96.3312 67.8188H93.1636V72.543Z" fill="#F25E57"/>
<path d="M101.759 73.6108C101.331 73.6108 101.045 73.1704 101.219 72.7794L103.655 67.319C103.809 66.9732 104.152 66.751 104.531 66.751C104.909 66.751 105.252 66.9727 105.406 67.3178L107.844 72.7664C108.022 73.1633 107.731 73.6108 107.297 73.6108C107.057 73.6108 106.84 73.4673 106.746 73.2463L104.268 67.4272H104.773L102.303 73.251C102.21 73.4691 101.996 73.6108 101.759 73.6108ZM102.257 72.0232L102.597 71.0235H106.269L106.609 72.0232H102.257Z" fill="#F25E57"/>
<path d="M113.114 73.6108C112.768 73.6108 112.487 73.3303 112.487 72.9846V67.4542C112.487 67.0656 112.802 66.751 113.191 66.751C113.403 66.751 113.604 66.8468 113.738 67.012L117.792 72.0332H117.277V67.3772C117.277 67.0315 117.558 66.751 117.904 66.751C118.25 66.751 118.53 67.0315 118.53 67.3772V72.9075C118.53 73.2962 118.216 73.6108 117.827 73.6108C117.615 73.6108 117.413 73.515 117.279 73.3497L113.226 68.3286H113.741V72.9846C113.741 73.3303 113.46 73.6108 113.114 73.6108Z" fill="#F25E57"/>
<path d="M124.385 73.6108C124.036 73.6108 123.753 73.3286 123.753 72.9793V67.3825C123.753 67.0332 124.036 66.751 124.385 66.751C124.733 66.751 125.016 67.0332 125.016 67.3825V72.9793C125.016 73.3286 124.733 73.6108 124.385 73.6108Z" fill="#F25E57"/>
<path d="M130.883 73.6108C130.537 73.6108 130.256 73.3303 130.256 72.9846V67.4542C130.256 67.0656 130.571 66.751 130.96 66.751C131.172 66.751 131.373 66.8468 131.507 67.012L135.561 72.0332H135.046V67.3772C135.046 67.0315 135.326 66.751 135.673 66.751C136.018 66.751 136.299 67.0315 136.299 67.3772V72.9075C136.299 73.2962 135.984 73.6108 135.596 73.6108C135.383 73.6108 135.182 73.515 135.048 73.3497L130.994 68.3286H131.51V72.9846C131.51 73.3303 131.229 73.6108 130.883 73.6108Z" fill="#F25E57"/>
<path d="M144.699 73.7076C144.168 73.7076 143.679 73.6229 143.232 73.453C142.791 73.2766 142.406 73.0314 142.076 72.718C141.745 72.3975 141.489 72.0218 141.308 71.5907C141.127 71.1597 141.036 70.6893 141.036 70.1795C141.036 69.6697 141.127 69.1993 141.308 68.7682C141.489 68.3372 141.745 67.9644 142.076 67.651C142.413 67.3311 142.804 67.0859 143.251 66.916C143.698 66.7396 144.187 66.6514 144.718 66.6514C145.295 66.6514 145.813 66.746 146.273 66.9354C146.563 67.0536 146.826 67.2065 147.059 67.3929C147.296 67.5834 147.279 67.935 147.062 68.1491C146.835 68.3719 146.475 68.3619 146.209 68.1867C146.074 68.0967 145.933 68.0226 145.787 67.9644C145.483 67.8339 145.146 67.7686 144.776 67.7686C144.421 67.7686 144.09 67.8274 143.786 67.945C143.481 68.0626 143.219 68.229 142.999 68.4448C142.778 68.6606 142.607 68.9152 142.484 69.2093C142.367 69.5033 142.309 69.8267 142.309 70.1795C142.309 70.5258 142.367 70.8457 142.484 71.1397C142.607 71.4337 142.778 71.6919 142.999 71.9142C143.219 72.13 143.478 72.2964 143.776 72.414C144.074 72.5316 144.404 72.5904 144.767 72.5904C145.104 72.5904 145.427 72.538 145.738 72.4334C146.056 72.3222 146.357 72.1394 146.642 71.8847L147.361 72.8356C147.005 73.1231 146.59 73.3419 146.118 73.4918C145.651 73.6359 145.178 73.7076 144.699 73.7076ZM146.166 72.6686V70.6987C146.166 70.3688 146.434 70.1013 146.763 70.1013C147.093 70.1013 147.361 70.3688 147.361 70.6987V72.8356L146.166 72.6686Z" fill="#F25E57"/>
<path d="M160.621 73.7076C160.09 73.7076 159.582 73.6323 159.096 73.4824C158.774 73.3783 158.496 73.2554 158.262 73.1143C158.06 72.9926 158.005 72.7368 158.1 72.5222C158.24 72.2046 158.647 72.1035 158.959 72.2546C159.092 72.3193 159.235 72.3793 159.387 72.4334C159.789 72.5774 160.2 72.6492 160.621 72.6492C160.978 72.6492 161.266 72.6098 161.486 72.5316C161.706 72.4534 161.868 72.3487 161.971 72.2182C162.075 72.0806 162.127 71.9271 162.127 71.7572C162.127 71.5484 162.052 71.3814 161.904 71.2573C161.754 71.1268 161.56 71.0256 161.32 70.9539C161.088 70.8751 160.825 70.8034 160.534 70.7381C160.248 70.6728 159.96 70.5976 159.669 70.5129C159.384 70.4212 159.122 70.3071 158.882 70.1695C158.649 70.026 158.458 69.8367 158.309 69.6015C158.16 69.3663 158.085 69.0658 158.085 68.6994C158.085 68.3272 158.183 67.9873 158.377 67.6804C158.577 67.367 158.879 67.1183 159.281 66.9354C159.689 66.746 160.203 66.6514 160.825 66.6514C161.233 66.6514 161.638 66.7037 162.04 66.8084C162.281 66.8707 162.502 66.9501 162.706 67.0453C162.937 67.1541 163.02 67.4293 162.925 67.6657C162.802 67.9715 162.435 68.0908 162.128 67.9709C162.002 67.9221 161.876 67.8803 161.748 67.8468C161.424 67.7557 161.113 67.7098 160.815 67.7098C160.465 67.7098 160.181 67.7521 159.96 67.8374C159.747 67.9221 159.588 68.0332 159.485 68.1702C159.387 68.3078 159.339 68.4642 159.339 68.6406C159.339 68.85 159.41 69.0199 159.552 69.1505C159.702 69.2745 159.893 69.3727 160.126 69.4445C160.365 69.5162 160.631 69.5879 160.922 69.6603C161.214 69.7255 161.502 69.8008 161.787 69.8855C162.078 69.9702 162.341 70.0813 162.574 70.2189C162.813 70.3559 163.004 70.5423 163.147 70.7775C163.296 71.0127 163.371 71.3097 163.371 71.6689C163.371 72.0353 163.27 72.3746 163.069 72.6886C162.875 72.9955 162.574 73.2437 162.166 73.433C161.758 73.6159 161.243 73.7076 160.621 73.7076Z" fill="#F25E57"/>
<path d="M169.189 69.6029L172.08 69.6528C172.352 69.6576 172.57 69.8798 172.57 70.1521C172.57 70.4279 172.347 70.6513 172.071 70.6513H169.189V69.6029ZM169.286 72.543H172.59C172.885 72.543 173.124 72.7817 173.124 73.0769C173.124 73.3721 172.885 73.6108 172.59 73.6108H169.043C168.48 73.6108 168.023 73.1545 168.023 72.5906V67.7435C168.023 67.1955 168.468 66.751 169.016 66.751H172.454C172.749 66.751 172.988 66.9897 172.988 67.2849C172.988 67.5801 172.749 67.8188 172.454 67.8188H169.286V72.543Z" fill="#F25E57"/>
<path d="M178.564 73.6108C178.215 73.6108 177.933 73.3286 177.933 72.9793V67.927C177.933 67.2773 178.459 66.751 179.109 66.751H180.73C181.333 66.751 181.848 66.8486 182.275 67.045C182.709 67.2408 183.043 67.5219 183.276 67.8876C183.509 68.2534 183.626 68.6879 183.626 69.1912C183.626 69.694 183.509 70.1286 183.276 70.4943C183.043 70.8536 182.709 71.1317 182.275 71.3275C181.848 71.5169 181.333 71.6116 180.73 71.6116H178.632L179.196 71.0335V72.9793C179.196 73.3286 178.913 73.6108 178.564 73.6108ZM182.675 73.6108C182.491 73.6108 182.32 73.5209 182.216 73.3703L180.663 71.1217H182.013L183.134 72.7347C183.391 73.1045 183.125 73.6108 182.675 73.6108ZM179.196 71.1705L178.632 70.5631H180.672C181.229 70.5631 181.647 70.442 181.926 70.2003C182.21 69.9586 182.353 69.6223 182.353 69.1912C182.353 68.7532 182.21 68.4168 181.926 68.1816C181.647 67.9464 181.229 67.8288 180.672 67.8288H178.632L179.196 67.2014V71.1705Z" fill="#F25E57"/>
<path d="M191.072 73.6108C190.694 73.6108 190.353 73.3868 190.203 73.041L187.858 67.6277C187.678 67.2132 187.982 66.751 188.433 66.751C188.685 66.751 188.911 66.9003 189.01 67.1314L191.5 72.9546H190.713L193.243 67.1003C193.335 66.888 193.544 66.751 193.775 66.751C194.192 66.751 194.473 67.1779 194.308 67.5607L191.941 73.0398C191.791 73.3868 191.449 73.6108 191.072 73.6108Z" fill="#F25E57"/>
<path d="M199.407 73.6108C199.058 73.6108 198.776 73.3286 198.776 72.9793V67.3825C198.776 67.0332 199.058 66.751 199.407 66.751C199.756 66.751 200.039 67.0332 200.039 67.3825V72.9793C200.039 73.3286 199.756 73.6108 199.407 73.6108Z" fill="#F25E57"/>
<path d="M208.426 73.7076C207.908 73.7076 207.425 73.6229 206.978 73.453C206.538 73.2766 206.153 73.0314 205.822 72.718C205.498 72.3975 205.246 72.0218 205.064 71.5907C204.883 71.1597 204.793 70.6893 204.793 70.1795C204.793 69.6697 204.883 69.1993 205.064 68.7682C205.246 68.3372 205.502 67.9644 205.832 67.651C206.162 67.3311 206.548 67.0859 206.988 66.916C207.429 66.7396 207.911 66.6514 208.436 66.6514C208.993 66.6514 209.501 66.7496 209.962 66.9454C210.251 67.0647 210.512 67.2217 210.745 67.4164C210.979 67.611 210.955 67.9609 210.735 68.1702C210.502 68.3913 210.137 68.3701 209.872 68.1885C209.749 68.1038 209.62 68.032 209.485 67.9744C209.181 67.8374 208.85 67.7686 208.494 67.7686C208.138 67.7686 207.811 67.8274 207.513 67.945C207.221 68.0626 206.966 68.229 206.746 68.4448C206.532 68.6606 206.363 68.9152 206.24 69.2093C206.123 69.5033 206.065 69.8267 206.065 70.1795C206.065 70.5323 206.123 70.8557 206.24 71.1497C206.363 71.4437 206.532 71.6984 206.746 71.9142C206.966 72.13 207.221 72.2964 207.513 72.414C207.811 72.5316 208.138 72.5904 208.494 72.5904C208.85 72.5904 209.181 72.5251 209.485 72.3946C209.62 72.334 209.749 72.2599 209.872 72.1723C210.136 71.9847 210.505 71.963 210.738 72.1876C210.956 72.3969 210.977 72.7462 210.744 72.9397C210.511 73.1325 210.25 73.2907 209.962 73.4136C209.501 73.6094 208.989 73.7076 208.426 73.7076Z" fill="#F25E57"/>
<path d="M216.904 69.6029H219.76C220.05 69.6029 220.285 69.8375 220.285 70.1268C220.285 70.4167 220.05 70.6513 219.76 70.6513H216.904V69.6029ZM217.001 72.543H220.304C220.599 72.543 220.838 72.7817 220.838 73.0769C220.838 73.3721 220.599 73.6108 220.304 73.6108H216.758C216.194 73.6108 215.738 73.1545 215.738 72.5906V67.7435C215.738 67.1955 216.182 66.751 216.731 66.751H220.168C220.463 66.751 220.702 66.9897 220.702 67.2849C220.702 67.5801 220.463 67.8188 220.168 67.8188H217.001V72.543Z" fill="#F25E57"/>
<path d="M227.755 73.7076C227.224 73.7076 226.715 73.6323 226.23 73.4824C225.907 73.3783 225.63 73.2554 225.396 73.1143C225.195 72.9926 225.139 72.7368 225.233 72.5222C225.374 72.2046 225.78 72.1035 226.093 72.2546C226.226 72.3193 226.369 72.3793 226.521 72.4334C226.923 72.5774 227.334 72.6492 227.755 72.6492C228.111 72.6492 228.399 72.6098 228.62 72.5316C228.84 72.4534 229.002 72.3487 229.106 72.2182C229.209 72.0806 229.261 71.9271 229.261 71.7572C229.261 71.5484 229.186 71.3814 229.037 71.2573C228.889 71.1268 228.694 71.0256 228.455 70.9539C228.221 70.8751 227.959 70.8034 227.667 70.7381C227.383 70.6728 227.095 70.5976 226.803 70.5129C226.518 70.4212 226.255 70.3071 226.016 70.1695C225.783 70.026 225.592 69.8367 225.443 69.6015C225.293 69.3663 225.219 69.0658 225.219 68.6994C225.219 68.3272 225.316 67.9873 225.51 67.6804C225.712 67.367 226.013 67.1183 226.414 66.9354C226.822 66.746 227.337 66.6514 227.959 66.6514C228.367 66.6514 228.772 66.7037 229.173 66.8084C229.414 66.8707 229.637 66.9501 229.84 67.0453C230.071 67.1541 230.154 67.4293 230.059 67.6657C229.936 67.9715 229.569 68.0908 229.261 67.9709C229.137 67.9221 229.01 67.8803 228.882 67.8468C228.558 67.7557 228.247 67.7098 227.95 67.7098C227.6 67.7098 227.314 67.7521 227.095 67.8374C226.88 67.9221 226.722 68.0332 226.618 68.1702C226.521 68.3078 226.472 68.4642 226.472 68.6406C226.472 68.85 226.544 69.0199 226.686 69.1505C226.835 69.2745 227.026 69.3727 227.26 69.4445C227.499 69.5162 227.765 69.5879 228.056 69.6603C228.348 69.7255 228.636 69.8008 228.921 69.8855C229.213 69.9702 229.475 70.0813 229.708 70.2189C229.948 70.3559 230.139 70.5423 230.281 70.7775C230.43 71.0127 230.504 71.3097 230.504 71.6689C230.504 72.0353 230.404 72.3746 230.203 72.6886C230.009 72.9955 229.708 73.2437 229.3 73.433C228.892 73.6159 228.377 73.7076 227.755 73.7076Z" fill="#F25E57"/>
<defs>
<linearGradient id="paint0_linear_23_53" x1="25.2026" y1="37.7002" x2="25.2026" y2="73.9999" gradientUnits="userSpaceOnUse">
<stop stop-color="#E5524B"/>
<stop offset="1" stop-color="#ECECEC" stop-opacity="0"/>
</linearGradient>
</defs>
</svg>
