<svg width="86" height="86" viewBox="0 0 86 86" fill="none" xmlns="http://www.w3.org/2000/svg">
<g clip-path="url(#clip0_5_71)">
<path d="M41.1522 0.92395C34.5678 0.92395 28.3462 2.47296 22.8274 5.22227L5.86765 63.2625C13.0659 75.2249 26.1737 83.2281 41.1522 83.2281C63.8799 83.2281 82.3043 64.8036 82.3043 42.076C82.3043 19.3483 63.8799 0.92395 41.1522 0.92395Z" fill="#3B3868"/>
<path d="M82.3946 5.22241H22.8275C18.3078 7.47387 14.2616 10.5326 10.8755 14.2091H73.635C75.4622 14.2091 76.9485 15.6956 76.9485 17.5226V54.5679H82.3944C84.3825 54.5679 86 52.9504 86 50.9625V8.82786C86 6.83995 84.3826 5.22241 82.3946 5.22241Z" fill="#49CE8B"/>
<path d="M27.7374 5.22241H22.8275C18.3078 7.47387 14.2616 10.5326 10.8755 14.2091H30.3587C30.2905 13.9704 30.1578 13.753 29.9645 13.5911C28.7158 12.5443 28.8144 11.2498 29.0648 10.4249C29.214 9.9336 29.0443 9.40416 28.6508 9.07444C27.18 7.84256 27.4213 6.37485 27.6661 5.65896C27.7145 5.51703 27.7377 5.36938 27.7374 5.22241Z" fill="#36B277"/>
<path d="M80.1794 9.60205H15.8776C14.0857 10.9985 12.4126 12.54 10.8755 14.2089H73.635C75.4622 14.2089 76.9485 15.6955 76.9485 17.5224V50.188H80.1796C80.9754 50.188 81.6204 49.543 81.6204 48.7473V11.0429C81.6202 10.2472 80.9752 9.60205 80.1794 9.60205Z" fill="#36B277"/>
<path d="M10.8755 14.2091H30.3587C30.2905 13.9704 30.1578 13.753 29.9645 13.5911C28.7158 12.5443 28.8144 11.2498 29.0648 10.4249C29.1488 10.1482 29.1285 9.86051 29.0274 9.60217H15.8776C14.0857 10.9985 12.4126 12.5401 10.8755 14.2091Z" fill="#279B61"/>
<path d="M80.1794 9.60205H68.7966C68.6982 10.1978 68.6445 10.8087 68.6445 11.4324C68.6445 12.391 68.7657 13.3212 68.9933 14.2089H73.6348C75.462 14.2089 76.9483 15.6955 76.9483 17.5224V22.2108C77.8555 22.4493 78.8076 22.5776 79.7899 22.5776C80.4135 22.5776 81.0244 22.5241 81.6202 22.4255V11.0429C81.6202 10.2472 80.9752 9.60205 80.1794 9.60205Z" fill="#279B61"/>
<path d="M73.635 13.917H11.1451C4.23365 21.2779 0 31.1822 0 42.0759C0 49.8253 2.14345 57.0734 5.86765 63.2625H73.6348C75.6229 63.2625 77.2404 61.645 77.2404 59.6571V17.5226C77.2404 15.5345 75.6231 13.917 73.635 13.917Z" fill="#49CE8B"/>
<path d="M0 42.0759C0 49.8253 2.14345 57.0734 5.86765 63.2625H34.9904V55.2329C34.9904 54.7441 34.7586 54.2933 34.3857 53.9774C33.8519 53.5249 33.7211 52.9613 33.7322 52.4915C33.7456 51.9199 33.48 51.3859 33.0124 51.0567C31.6179 50.075 31.5654 48.6803 31.6156 48.0886C31.6337 47.8734 31.6077 47.6574 31.5422 47.4516L31.373 46.92C31.2397 46.5007 31.2754 46.0461 31.4768 45.655C32.2665 44.122 33.9866 39.9847 30.4121 38.5898C27.2524 37.3567 26.8772 34.6615 26.92 33.2238C26.937 32.6593 26.6679 32.1214 26.1999 31.8052C24.3719 30.5691 24.099 28.9085 24.1668 27.7936C24.2103 27.0805 23.7939 26.4261 23.1364 26.1471C19.1405 24.4525 19.2586 20.8571 19.5605 19.1857C19.657 18.6507 19.4761 18.1038 19.0915 17.7196C18.1583 16.7879 17.9817 15.8344 18.0375 15.1151C18.0723 14.6683 17.9241 14.2423 17.65 13.917H11.1451C4.23365 21.2779 0 31.182 0 42.0759Z" fill="#36B277"/>
<path d="M71.42 18.2968H7.56363C2.80037 25.0115 0 33.2164 0 42.0759C0 48.0633 1.28059 53.7509 3.58009 58.8827H71.4198C72.2155 58.8827 72.8606 58.2377 72.8606 57.4419V19.7376C72.8606 18.9418 72.2156 18.2968 71.42 18.2968Z" fill="#36B277"/>
<path d="M0 42.076C0 48.0634 1.28059 53.751 3.58009 58.8828H34.9904V55.233C34.9904 54.7442 34.7586 54.2933 34.3857 53.9774C33.8519 53.5249 33.7211 52.9613 33.7322 52.4915C33.7456 51.9199 33.48 51.386 33.0124 51.0568C31.6179 50.075 31.5654 48.6803 31.6156 48.0886C31.6337 47.8734 31.6077 47.6574 31.5422 47.4516L31.373 46.92C31.2397 46.5008 31.2754 46.0461 31.4768 45.655C32.2665 44.122 33.9866 39.9848 30.4121 38.5898C27.2524 37.3567 26.8772 34.6615 26.92 33.2238C26.937 32.6593 26.6679 32.1215 26.1999 31.8052C24.3719 30.5691 24.099 28.9086 24.1668 27.7936C24.2103 27.0806 23.7939 26.4262 23.1364 26.1472C19.1405 24.4525 19.2586 20.8571 19.5605 19.1857C19.6152 18.8822 19.5779 18.576 19.4677 18.2966H7.56363C2.80037 25.0115 0 33.2165 0 42.076Z" fill="#279B61"/>
<path d="M72.8606 19.7377V31.1204C72.2649 31.219 71.654 31.2726 71.0303 31.2726C64.8749 31.2726 59.8849 26.2827 59.8849 20.1274C59.8849 19.5037 59.9386 18.8928 60.0371 18.297H71.4198C72.2156 18.2968 72.8606 18.942 72.8606 19.7377Z" fill="#279B61"/>
<path d="M72.8606 57.4419V46.0592C72.2649 45.9607 71.654 45.907 71.0303 45.907C64.8749 45.907 59.8849 50.8968 59.8849 57.0522C59.8849 57.6759 59.9386 58.2868 60.0371 58.8826H71.4198C72.2156 58.8827 72.8606 58.2377 72.8606 57.4419Z" fill="#279B61"/>
<path d="M30.4121 52.021C37.83 52.021 43.8434 46.0076 43.8434 38.5897C43.8434 31.1718 37.83 25.1584 30.4121 25.1584C22.9942 25.1584 16.9808 31.1718 16.9808 38.5897C16.9808 46.0076 22.9942 52.021 30.4121 52.021Z" fill="#279B61"/>
<path d="M33.0124 51.0568C31.6179 50.075 31.5653 48.6804 31.6156 48.0886C31.6337 47.8735 31.6077 47.6574 31.5422 47.4517L31.373 46.9201C31.2397 46.5008 31.2754 46.0461 31.4768 45.6551C32.2664 44.122 33.9866 39.9848 30.4121 38.5898C27.2524 37.3568 26.8772 34.6615 26.92 33.2239C26.937 32.6593 26.6679 32.1215 26.1999 31.8052C24.3719 30.5691 24.099 28.9086 24.1668 27.7936C24.188 27.4451 24.099 27.111 23.9261 26.8276C19.7857 29.1157 16.9806 33.5244 16.9806 38.5896C16.9806 46.0077 22.9941 52.0209 30.4119 52.0209C31.4874 52.0209 32.5322 51.8909 33.5346 51.6521C33.412 51.4194 33.2361 51.2142 33.0124 51.0568Z" fill="#1C8C51"/>
<path d="M83.3036 70.7659C84.426 61.7868 78.0568 53.5979 69.0777 52.4755C60.0986 51.3531 51.9097 57.7223 50.7874 66.7014C49.665 75.6805 56.0341 83.8693 65.0132 84.9917C73.9923 86.1141 82.1812 79.745 83.3036 70.7659Z" fill="#FFDD40"/>
<path d="M50.6543 68.6869C50.6543 77.7384 57.992 85.0761 67.0435 85.0761C71.4193 85.0761 75.3914 83.358 78.3307 80.5636C78.2551 80.4983 78.1614 80.4533 78.0571 80.4397C77.035 80.307 76.8482 79.6376 76.8438 79.1813C76.8415 78.9377 76.6781 78.7287 76.4416 78.6701C75.3163 78.3915 75.1163 77.5768 75.1062 77.0724C75.1013 76.8273 74.9201 76.6246 74.6794 76.5784C70.6703 75.8091 70.9241 72.6829 71.0252 72.0191C71.0395 71.925 71.0293 71.8299 70.9928 71.7419C70.7951 71.2662 69.9664 69.7785 67.0435 68.6867C64.1864 67.6195 64.1157 64.5982 64.1911 63.4935C64.2074 63.2545 64.0571 63.0416 63.8306 62.9635C61.5557 62.1798 61.5726 60.0814 61.7026 59.1513C61.7377 58.8997 61.5867 58.6664 61.347 58.5824C60.2183 58.1867 60.1877 57.2225 60.2768 56.6647C60.3137 56.4334 60.1871 56.2146 59.9726 56.1207C59.2286 55.7946 59.1446 55.1172 59.1789 54.6771C59.188 54.5592 59.1571 54.4467 59.0973 54.3528C54.0629 57.1498 50.6543 62.5193 50.6543 68.6869Z" fill="#FFB332"/>
<path d="M75.0054 76.663C79.4105 72.2578 79.4105 65.1157 75.0054 60.7105C70.6003 56.3054 63.4581 56.3054 59.0529 60.7105C54.6478 65.1157 54.6478 72.2578 59.0529 76.663C63.4581 81.0681 70.6003 81.0681 75.0054 76.663Z" fill="#FCECA9"/>
<path d="M74.9559 76.7263C74.8823 76.6527 74.7874 76.5991 74.6794 76.5785C70.6703 75.8092 70.9241 72.6829 71.0252 72.0191C71.0395 71.9251 71.0293 71.83 70.9928 71.742C70.7951 71.2663 69.9664 69.7786 67.0436 68.6868C64.1864 67.6195 64.1157 64.5983 64.1911 63.4935C64.2074 63.2545 64.0571 63.0417 63.8306 62.9636C61.5557 62.1798 61.5726 60.0814 61.7027 59.1514C61.721 59.0209 61.6882 58.8956 61.6197 58.7931C58.1284 60.7111 55.7616 64.4221 55.7616 68.6866C55.7616 74.9174 60.8126 79.9684 67.0434 79.9684C70.1266 79.9686 72.9196 78.7306 74.9559 76.7263Z" fill="#FFDD40"/>
<path d="M67.0435 57.4052C73.2743 57.4052 78.3253 62.4562 78.3253 68.687C78.3253 74.9178 73.2743 79.9687 67.0435 79.9687C60.8127 79.9687 55.7618 74.9178 55.7618 68.687C55.7618 62.4562 60.8127 57.4052 67.0435 57.4052ZM67.0435 54.5966C59.2742 54.5966 52.9532 60.9174 52.9532 68.6868C52.9532 76.4562 59.274 82.7772 67.0435 82.7772C74.8129 82.7772 81.1338 76.4563 81.1338 68.6868C81.1338 60.9172 74.8129 54.5966 67.0435 54.5966Z" fill="#FFB332"/>
<path d="M67.0435 82.7772C70.8032 82.7772 74.221 81.2942 76.7501 78.8858C76.6789 78.7814 76.5721 78.7024 76.4416 78.6702C75.3163 78.3915 75.1163 77.5769 75.1062 77.0725C75.1035 76.9374 75.0461 76.8166 74.9559 76.7264C72.9196 78.7308 70.1266 79.9687 67.0435 79.9687C60.8127 79.9687 55.7617 74.9178 55.7617 68.687C55.7617 64.4224 58.1286 60.7113 61.6198 58.7934C61.5565 58.6985 61.4624 58.6231 61.3472 58.5826C60.2185 58.1869 60.1879 57.2227 60.2769 56.6649C60.2942 56.5566 60.2744 56.4516 60.2277 56.3602C55.8939 58.766 52.9533 63.3887 52.9533 68.687C52.9533 76.4563 59.2741 82.7772 67.0435 82.7772Z" fill="#FF9100"/>
<path d="M54.9901 85.0762C64.0416 85.0762 71.3793 77.7385 71.3793 68.6869C71.3793 59.6354 64.0416 52.2977 54.9901 52.2977C45.9386 52.2977 38.6009 59.6354 38.6009 68.6869C38.6009 77.7385 45.9386 85.0762 54.9901 85.0762Z" fill="#FFDD40"/>
<path d="M38.6009 68.6869C38.6009 77.7384 45.9386 85.0761 54.9901 85.0761C59.3659 85.0761 63.3378 83.358 66.2773 80.5636C66.2017 80.4983 66.108 80.4533 66.0036 80.4397C64.9816 80.307 64.7948 79.6376 64.7904 79.1813C64.7881 78.9377 64.6246 78.7287 64.3881 78.6701C63.2629 78.3915 63.0629 77.5768 63.0528 77.0724C63.0479 76.8273 62.8665 76.6246 62.626 76.5784C58.6169 75.8091 58.8707 72.6829 58.9718 72.0191C58.9861 71.925 58.9758 71.8299 58.9394 71.7419C58.7419 71.2662 57.9129 69.7785 54.9901 68.6867C52.133 67.6195 52.0622 64.5982 52.1377 63.4935C52.154 63.2545 52.0038 63.0416 51.7772 62.9635C49.5024 62.1798 49.5192 60.0814 49.6492 59.1513C49.6843 58.8997 49.5333 58.6664 49.2936 58.5824C48.1649 58.1867 48.1343 57.2225 48.2233 56.6647C48.2603 56.4334 48.1336 56.2146 47.9191 56.1207C47.1752 55.7946 47.0912 55.1172 47.1253 54.6771C47.1344 54.5592 47.1035 54.4467 47.0437 54.3528C42.0095 57.1498 38.6009 62.5193 38.6009 68.6869Z" fill="#FFB332"/>
<path d="M65.3348 73.1703C67.8209 67.4567 65.2045 60.8095 59.4908 58.3235C53.7772 55.8374 47.1301 58.4538 44.644 64.1674C42.1579 69.881 44.7744 76.5282 50.488 79.0143C56.2016 81.5003 62.8487 78.8839 65.3348 73.1703Z" fill="#FCECA9"/>
<path d="M62.9025 76.7263C62.8289 76.6527 62.734 76.5991 62.626 76.5785C58.6169 75.8092 58.8707 72.6829 58.9718 72.0191C58.9861 71.9251 58.9758 71.83 58.9394 71.742C58.7419 71.2663 57.9129 69.7786 54.9901 68.6868C52.133 67.6195 52.0623 64.5983 52.1377 63.4935C52.154 63.2545 52.0038 63.0417 51.7772 62.9636C49.5024 62.1798 49.5192 60.0814 49.6492 59.1514C49.6675 59.0209 49.6348 58.8956 49.5662 58.7931C46.075 60.7111 43.7082 64.4221 43.7082 68.6866C43.7082 74.9174 48.7591 79.9684 54.9899 79.9684C58.0732 79.9686 60.8662 78.7306 62.9025 76.7263Z" fill="#FFDD40"/>
<path d="M54.9901 57.4052C61.2209 57.4052 66.2719 62.4562 66.2719 68.687C66.2719 74.9178 61.2209 79.9687 54.9901 79.9687C48.7593 79.9687 43.7083 74.9178 43.7083 68.687C43.7083 62.4562 48.7593 57.4052 54.9901 57.4052ZM54.9901 54.5966C47.2207 54.5966 40.8997 60.9174 40.8997 68.6868C40.8997 76.4562 47.2206 82.7772 54.9901 82.7772C62.7595 82.7772 69.0803 76.4563 69.0803 68.6868C69.0803 60.9172 62.7595 54.5966 54.9901 54.5966Z" fill="#FFB332"/>
<path d="M54.9901 82.7772C58.7498 82.7772 62.1674 81.2942 64.6967 78.8858C64.6255 78.7814 64.5187 78.7024 64.3882 78.6702C63.2629 78.3915 63.0629 77.5769 63.0528 77.0725C63.0501 76.9374 62.9927 76.8166 62.9025 76.7264C60.8662 78.7308 58.0732 79.9687 54.9901 79.9687C48.7593 79.9687 43.7083 74.9178 43.7083 68.687C43.7083 64.4224 46.0752 60.7113 49.5664 58.7934C49.5029 58.6985 49.409 58.6231 49.2938 58.5826C48.1651 58.1869 48.1345 57.2227 48.2235 56.6649C48.2408 56.5566 48.221 56.4516 48.1743 56.3602C43.8405 58.766 40.8999 63.3887 40.8999 68.687C40.8999 76.4563 47.2207 82.7772 54.9901 82.7772Z" fill="#FF9100"/>
<path d="M59.2195 70.795C60.3781 61.8159 54.0383 53.5976 45.0592 52.439C36.0801 51.2804 27.8619 57.6202 26.7033 66.5993C25.5447 75.5784 31.8845 83.7966 40.8636 84.9552C49.8427 86.1138 58.0609 79.7741 59.2195 70.795Z" fill="#FFDD40"/>
<path d="M26.5475 68.6869C26.5475 77.7384 33.8852 85.0761 42.9367 85.0761C47.3124 85.0761 51.2845 83.358 54.2238 80.5636C54.1481 80.4983 54.0545 80.4533 53.9502 80.4397C52.9281 80.307 52.7413 79.6376 52.737 79.1813C52.7346 78.9377 52.5712 78.7287 52.3347 78.6701C51.2095 78.3915 51.0094 77.5768 50.9993 77.0724C50.9945 76.8273 50.8132 76.6246 50.5725 76.5784C46.5635 75.8091 46.8173 72.6829 46.9184 72.0191C46.9326 71.925 46.9224 71.8299 46.886 71.7419C46.6884 71.2662 45.8595 69.7785 42.9367 68.6867C40.0795 67.6195 40.0088 64.5982 40.0842 63.4935C40.1005 63.2545 39.9502 63.0416 39.7238 62.9635C37.4488 62.1798 37.4658 60.0814 37.5958 59.1513C37.6309 58.8997 37.4799 58.6664 37.2402 58.5824C36.1114 58.1867 36.0809 57.2225 36.1699 56.6647C36.2067 56.4334 36.0802 56.2146 35.8657 56.1207C35.1218 55.7946 35.0378 55.1172 35.0719 54.6771C35.0809 54.5592 35.05 54.4467 34.9904 54.3528C29.956 57.1498 26.5475 62.5193 26.5475 68.6869Z" fill="#FFB332"/>
<path d="M50.9009 76.6604C55.3061 72.2553 55.3061 65.1131 50.9009 60.708C46.4958 56.3028 39.3536 56.3028 34.9485 60.708C30.5433 65.1131 30.5433 72.2553 34.9485 76.6604C39.3536 81.0656 46.4958 81.0656 50.9009 76.6604Z" fill="#FCECA9"/>
<path d="M50.849 76.7263C50.7754 76.6527 50.6805 76.5991 50.5725 76.5785C46.5635 75.8092 46.8173 72.6829 46.9184 72.0191C46.9327 71.9251 46.9224 71.83 46.886 71.742C46.6884 71.2663 45.8595 69.7786 42.9367 68.6868C40.0795 67.6195 40.0088 64.5983 40.0842 63.4935C40.1005 63.2545 39.9502 63.0417 39.7238 62.9636C37.4488 62.1798 37.4658 60.0814 37.5958 59.1514C37.6141 59.0209 37.5813 58.8956 37.5128 58.7931C34.0216 60.7111 31.6547 64.4221 31.6547 68.6866C31.6547 74.9174 36.7057 79.9684 42.9365 79.9684C46.0197 79.9686 48.8127 78.7306 50.849 76.7263Z" fill="#FFDD40"/>
<path d="M42.9367 57.4052C49.1675 57.4052 54.2185 62.4562 54.2185 68.687C54.2185 74.9178 49.1675 79.9687 42.9367 79.9687C36.7059 79.9687 31.6549 74.9178 31.6549 68.687C31.6549 62.4562 36.7059 57.4052 42.9367 57.4052ZM42.9367 54.5966C35.1673 54.5966 28.8463 60.9174 28.8463 68.6868C28.8463 76.4562 35.1671 82.7772 42.9367 82.7772C50.7061 82.7772 57.0269 76.4563 57.0269 68.6868C57.0269 60.9172 50.7061 54.5966 42.9367 54.5966Z" fill="#FFB332"/>
<path d="M42.9367 82.7772C46.6963 82.7772 50.1141 81.2942 52.6432 78.8858C52.572 78.7814 52.4652 78.7024 52.3347 78.6702C51.2095 78.3915 51.0094 77.5769 50.9993 77.0725C50.9966 76.9374 50.9392 76.8166 50.849 76.7264C48.8127 78.7308 46.0197 79.9687 42.9367 79.9687C36.7059 79.9687 31.6549 74.9178 31.6549 68.687C31.6549 64.4224 34.0217 60.7113 37.5129 58.7934C37.4496 58.6985 37.3556 58.6231 37.2403 58.5826C36.1116 58.1869 36.081 57.2227 36.17 56.6649C36.1873 56.5566 36.1675 56.4516 36.1208 56.3602C31.7871 58.766 28.8464 63.3887 28.8464 68.687C28.8464 76.4563 35.1673 82.7772 42.9367 82.7772Z" fill="#FF9100"/>
<path d="M42.9367 77.1897C42.1612 77.1897 41.5325 76.561 41.5325 75.7855V73.943C41.5325 73.1675 42.1612 72.5388 42.9367 72.5388C43.7122 72.5388 44.3409 73.1675 44.3409 73.943V75.7855C44.3409 76.561 43.7122 77.1897 42.9367 77.1897Z" fill="#FF9100"/>
<path d="M42.9367 64.7194C42.1612 64.7194 41.5325 64.0907 41.5325 63.3151V61.5884C41.5325 60.8129 42.1612 60.1842 42.9367 60.1842C43.7122 60.1842 44.3409 60.8129 44.3409 61.5884V63.3151C44.3409 64.0907 43.7122 64.7194 42.9367 64.7194Z" fill="#FF9100"/>
<path d="M42.7657 75.3475C41.4979 75.3475 40.7054 75.2002 39.5126 74.42C38.8636 73.9956 38.6817 73.1251 39.1062 72.4763C39.5306 71.8269 40.4009 71.6452 41.0499 72.0698C41.7239 72.5107 41.944 72.5441 42.8651 72.5388C43.7495 72.5329 44.1021 71.8387 44.1708 71.4295C44.2603 70.8972 44.029 70.5295 43.4838 70.3369C43.4742 70.3335 43.4648 70.33 43.4554 70.3264L41.4379 69.564C39.6255 68.9158 38.6192 67.2298 38.9328 65.3635C39.2669 63.3766 40.973 61.9247 42.9894 61.9112C44.3288 61.9033 45.1315 62.0342 46.3609 62.8384C47.0099 63.263 47.1918 64.1333 46.7672 64.7823C46.3426 65.4312 45.4722 65.6132 44.8233 65.1886C44.1494 64.7477 43.9297 64.7134 43.0082 64.7197C42.1239 64.7255 41.7713 65.4197 41.7026 65.8291C41.6133 66.3614 41.8444 66.7289 42.3896 66.9217C42.3992 66.9251 42.4086 66.9286 42.418 66.9321L44.4355 67.6945C46.248 68.3427 47.2542 70.0288 46.9404 71.8951C46.6065 73.882 44.9002 75.3339 42.8838 75.3474C42.844 75.3474 42.8047 75.3475 42.7657 75.3475Z" fill="#FFB332"/>
<path d="M56.8054 40.0497H51.8473C51.041 40.0497 50.3873 39.3962 50.3873 38.5897C50.3873 37.7833 51.0408 37.1298 51.8473 37.1298H56.8054C57.6116 37.1298 58.2653 37.7833 58.2653 38.5897C58.2653 39.3962 57.6118 40.0497 56.8054 40.0497Z" fill="#49CE8B"/>
<path d="M8.97676 40.0497H4.01882C3.21257 40.0497 2.55884 39.3962 2.55884 38.5897C2.55884 37.7833 3.2124 37.1298 4.01882 37.1298H8.97692C9.78317 37.1298 10.4369 37.7833 10.4369 38.5897C10.4367 39.3962 9.78301 40.0497 8.97676 40.0497Z" fill="#36B277"/>
<path d="M30.4121 48.5008C29.6058 48.5008 28.9521 47.8472 28.9521 47.0408V44.8473C28.9521 44.0409 29.6057 43.3873 30.4121 43.3873C31.2183 43.3873 31.8721 44.0409 31.8721 44.8473V47.0408C31.8719 47.8472 31.2183 48.5008 30.4121 48.5008Z" fill="#49CE8B"/>
<path d="M30.4121 33.6546C29.6058 33.6546 28.9521 33.0011 28.9521 32.1946V30.1387C28.9521 29.3323 29.6057 28.6787 30.4121 28.6787C31.2183 28.6787 31.8721 29.3323 31.8721 30.1387V32.1946C31.8719 33.0011 31.2183 33.6546 30.4121 33.6546Z" fill="#49CE8B"/>
<path d="M30.2006 46.3076C28.7121 46.3078 27.8336 46.142 26.4516 45.238C25.7768 44.7966 25.5877 43.8918 26.0291 43.2172C26.4704 42.5421 27.3752 42.3532 28.0501 42.7946C28.8965 43.3484 29.192 43.3922 30.3284 43.3875C31.3672 43.3806 31.97 42.6065 32.0904 41.8901C32.1615 41.4676 32.1316 40.7067 31.1342 40.3542C31.1243 40.3508 31.1144 40.3471 31.1046 40.3432L28.7012 39.435C26.642 38.6993 25.4985 36.7857 25.8546 34.6679C26.181 32.7267 27.8734 30.7522 30.4766 30.7349C32.0536 30.7193 32.9459 30.8706 34.3728 31.804C35.0475 32.2455 35.2367 33.1503 34.7952 33.8249C34.3538 34.4996 33.449 34.6884 32.7742 34.2475C31.928 33.6939 31.6309 33.648 30.4959 33.6547C29.4572 33.6616 28.8543 34.4358 28.7339 35.1522C28.6629 35.5744 28.6928 36.3353 29.6902 36.6879C29.7001 36.6913 29.71 36.695 29.7197 36.6987L32.1232 37.6069C34.1823 38.3426 35.3258 40.2562 34.9698 42.374C34.6434 44.3154 32.9508 46.29 30.3478 46.3071C30.298 46.3076 30.249 46.3076 30.2006 46.3076Z" fill="#67E8A4"/>
</g>
<defs>
<clipPath id="clip0_5_71">
<rect width="86" height="86" fill="white"/>
</clipPath>
</defs>
</svg>
