<svg width="80" height="80" viewBox="0 0 80 80" fill="none" xmlns="http://www.w3.org/2000/svg">
<g clip-path="url(#clip0_5_914)">
<path d="M13.3664 80H3.99308C2.94278 80 2.09127 79.1485 2.09127 78.0982V74.427L9.49264 72.8174L15.2684 74.427V78.0982C15.2683 79.1485 14.4169 80 13.3664 80Z" fill="#537983"/>
<path d="M76.0069 80H66.6334C65.5831 80 64.7316 79.1485 64.7316 78.0982V74.427L69.7104 72.8174L77.9086 74.427V78.0982C77.9087 79.1485 77.0572 80 76.0069 80Z" fill="#537983"/>
<path d="M77.9087 17.6502L38.8101 16.0405L2.09127 17.6502V74.427H77.9087V17.6502Z" fill="#CBE5E8"/>
<path d="M73.0798 17.6502V64.8C73.0798 67.4498 70.9317 69.5979 68.2818 69.5979H2.09127V74.4268H77.9087V17.6502L75.5994 16.0405L73.0798 17.6502Z" fill="#A8D3D8"/>
<path d="M68.1235 66.2965H11.8765C10.7338 66.2965 9.80733 65.3701 9.80733 64.2273V61.2966L11.417 58.5547L9.80733 55.8128V28.3597C9.80733 27.217 10.7337 26.2905 11.8765 26.2905H68.1235C69.2662 26.2905 70.1927 27.2169 70.1927 28.3597V55.8129L68.583 58.5548L70.1927 61.2967V64.2274C70.1927 65.3701 69.2662 66.2965 68.1235 66.2965Z" fill="#FFD15B"/>
<path d="M53.5358 55.8133L40 57.4229L26.4642 55.8133C22.0905 55.8133 18.5449 52.2677 18.5449 47.8939V44.6678C18.5449 43.7104 19.321 42.9341 20.2786 42.9341H59.7217C60.6791 42.9341 61.4554 43.7103 61.4554 44.6678V47.8939C61.4553 52.2677 57.9095 55.8133 53.5358 55.8133Z" fill="#FE7D43"/>
<path d="M36.3152 40.3408C35.6483 40.3408 35.1079 39.8002 35.1079 39.1335C35.1079 37.9865 35.7294 37.3582 36.1008 36.9829C36.3957 36.6847 36.3957 36.6643 36.3957 36.5302C36.3957 36.3963 36.3957 36.3757 36.1008 36.0776C35.7294 35.7022 35.1079 35.074 35.1079 33.9269C35.1079 32.7799 35.7294 32.1516 36.1009 31.7763C36.3957 31.4783 36.3957 31.4577 36.3957 31.3239C36.3957 30.6572 36.936 30.1167 37.6029 30.1167C38.2698 30.1167 38.8101 30.6572 38.8101 31.3239C38.8101 32.471 38.1886 33.0992 37.8171 33.4746C37.5224 33.7726 37.5224 33.7932 37.5224 33.9269C37.5224 34.0608 37.5224 34.0814 37.8173 34.3796C38.1886 34.7549 38.8101 35.3832 38.8101 36.5302C38.8101 37.6773 38.1886 38.3055 37.8173 38.6809C37.5224 38.979 37.5224 38.9994 37.5224 39.1335C37.5224 39.8004 36.9821 40.3408 36.3152 40.3408Z" fill="#FFF9DF"/>
<path d="M42.3969 40.3408C41.7301 40.3408 41.1897 39.8002 41.1897 39.1335C41.1897 37.9865 41.8112 37.3582 42.1825 36.9829C42.4774 36.6847 42.4774 36.6643 42.4774 36.5302C42.4774 36.3963 42.4774 36.3757 42.1825 36.0776C41.8112 35.7022 41.1897 35.074 41.1897 33.9269C41.1897 32.7799 41.8112 32.1516 42.1827 31.7763C42.4774 31.4783 42.4774 31.4577 42.4774 31.3239C42.4774 30.6572 43.0178 30.1167 43.6847 30.1167C44.3515 30.1167 44.8919 30.6572 44.8919 31.3239C44.8919 32.471 44.2704 33.0992 43.8989 33.4746C43.6042 33.7726 43.6042 33.7932 43.6042 33.9269C43.6042 34.0608 43.6042 34.0814 43.8991 34.3796C44.2704 34.7549 44.8919 35.3832 44.8919 36.5302C44.8919 37.6773 44.2704 38.3055 43.8991 38.6809C43.6042 38.979 43.6042 38.9994 43.6042 39.1335C43.6042 39.8004 43.0638 40.3408 42.3969 40.3408Z" fill="#FFF9DF"/>
<path d="M77.9087 17.6502H2.09127V1.89634C2.09127 0.849095 2.94037 0 3.98761 0H76.0124C77.0598 0 77.9087 0.849095 77.9087 1.89634V17.6502Z" fill="#8EBAC5"/>
<path d="M76.0124 0H71.1834C72.2307 0 73.0797 0.849095 73.0797 1.89634V17.6502H77.9087V1.89634C77.9087 0.849095 77.0596 0 76.0124 0Z" fill="#7CA1B1"/>
<path d="M14.4889 11.0771H12.2413C10.9977 11.0771 9.98938 10.0689 9.98938 8.82515C9.98938 7.58153 10.9975 6.57324 12.2413 6.57324H14.4889C15.7325 6.57324 16.7408 7.58137 16.7408 8.82515C16.7408 10.0688 15.7326 11.0771 14.4889 11.0771Z" fill="#537983"/>
<path d="M26.0955 11.0771H23.8479C22.6043 11.0771 21.596 10.0689 21.596 8.82515C21.596 7.58153 22.6041 6.57324 23.8479 6.57324H26.0955C27.3391 6.57324 28.3474 7.58137 28.3474 8.82515C28.3472 10.0688 27.3391 11.0771 26.0955 11.0771Z" fill="#537983"/>
<path d="M56.1523 11.0771H53.9047C52.6611 11.0771 51.6528 10.0689 51.6528 8.82515C51.6528 7.58153 52.6609 6.57324 53.9047 6.57324H56.1523C57.3959 6.57324 58.4042 7.58137 58.4042 8.82515C58.404 10.0688 57.3959 11.0771 56.1523 11.0771Z" fill="#537983"/>
<path d="M67.7587 11.0771H65.5112C64.2675 11.0771 63.2592 10.0689 63.2592 8.82515C63.2592 7.58153 64.2674 6.57324 65.5112 6.57324H67.7587C69.0023 6.57324 70.0106 7.58137 70.0106 8.82515C70.0106 10.0688 69.0023 11.0771 67.7587 11.0771Z" fill="#537983"/>
<path d="M9.80733 55.813H70.1927V61.2966H9.80733V55.813Z" fill="#678D98"/>
</g>
<defs>
<clipPath id="clip0_5_914">
<rect width="80" height="80" fill="white"/>
</clipPath>
</defs>
</svg>
