<svg width="80" height="80" viewBox="0 0 80 80" fill="none" xmlns="http://www.w3.org/2000/svg">
<mask id="mask0_5_954" style="mask-type:luminance" maskUnits="userSpaceOnUse" x="0" y="0" width="80" height="80">
<path d="M0 7.62939e-06H80V80H0V7.62939e-06Z" fill="white"/>
</mask>
<g mask="url(#mask0_5_954)">
<path d="M11.3773 70.2798H7.65405C6.63655 70.2798 5.81171 69.4549 5.81171 68.4374V62.8718H13.2197V68.4374C13.2197 69.4549 12.3948 70.2798 11.3773 70.2798Z" fill="#394949"/>
<path d="M72.346 70.2798H68.6227C67.6052 70.2798 66.7803 69.4549 66.7803 68.4374V62.8718H74.1883V68.4374C74.1883 69.4549 73.3635 70.2798 72.346 70.2798Z" fill="#394949"/>
<path d="M76.0183 65.6489H3.98172C1.78266 65.6489 0 63.8663 0 61.6672V13.7016C0 11.5025 1.78266 9.71987 3.98172 9.71987H76.0183C78.2173 9.71987 80 11.5025 80 13.7016V61.6672C80 63.8663 78.2173 65.6489 76.0183 65.6489Z" fill="#557981"/>
<path d="M6.1214 57.725V17.6444C6.1214 16.6488 6.92859 15.8417 7.92421 15.8417H55.0714C56.067 15.8417 56.8742 16.6488 56.8742 17.6444V57.725C56.8742 58.7206 56.067 59.5278 55.0714 59.5278H7.92421C6.92859 59.5278 6.1214 58.7206 6.1214 57.725Z" fill="#E8F3FF"/>
<path d="M55.0715 15.8417H48.6823C49.6779 15.8417 50.4851 16.6489 50.4851 17.6446V57.725C50.4851 58.7206 49.6779 59.5278 48.6823 59.5278H55.0715C56.0671 59.5278 56.8743 58.7206 56.8743 57.725V17.6446C56.8743 16.6489 56.0671 15.8417 55.0715 15.8417Z" fill="#D8EAFB"/>
<path d="M6.1214 53.0722V57.725C6.1214 58.7206 6.92859 59.5278 7.92421 59.5278H55.0714C56.067 59.5278 56.8742 58.7206 56.8742 57.725V53.0722H6.1214Z" fill="#C1E2FF"/>
<path d="M50.4851 57.725C50.4851 58.7206 49.6779 59.5278 48.6823 59.5278H55.0715C56.0671 59.5278 56.8743 58.7206 56.8743 57.725V53.0722H50.4851V57.725Z" fill="#B3D8FB"/>
<path d="M76.0183 9.71987H62.7944V65.6489H76.0183C78.2173 65.6489 80 63.8663 80 61.6672V13.7016C80 11.5025 78.2173 9.71987 76.0183 9.71987Z" fill="#688B96"/>
<path d="M76.0182 9.71987H69.629C71.8281 9.71987 73.6107 11.5025 73.6107 13.7016V61.6672C73.6107 63.8663 71.8281 65.6489 69.629 65.6489H76.0182C78.2173 65.6489 80 63.8663 80 61.6672V13.7016C80 11.5025 78.2173 9.71987 76.0182 9.71987Z" fill="#557981"/>
<path d="M75.1069 39.7017H67.6875C67.0203 39.7017 66.4794 39.1607 66.4794 38.4935C66.4794 37.8262 67.0203 37.2853 67.6875 37.2853H75.1069C75.7741 37.2853 76.315 37.8262 76.315 38.4935C76.315 39.1607 75.7741 39.7017 75.1069 39.7017Z" fill="#E8F3FF"/>
<path d="M75.1069 44.2002H67.6875C67.0203 44.2002 66.4794 43.6593 66.4794 42.9921C66.4794 42.3249 67.0203 41.7839 67.6875 41.7839H75.1069C75.7741 41.7839 76.315 42.3249 76.315 42.9921C76.315 43.6593 75.7741 44.2002 75.1069 44.2002Z" fill="#E8F3FF"/>
<path d="M67.6875 31.7135V17.1441C67.6875 16.4247 68.2708 15.8414 68.9902 15.8414H73.8041C74.5236 15.8414 75.1069 16.4247 75.1069 17.1441V31.7135C75.1069 32.4328 74.5236 33.0161 73.8041 33.0161H68.9902C68.2708 33.0161 67.6875 32.4328 67.6875 31.7135Z" fill="#62D8F9"/>
<path d="M75.1069 55.8181C75.1069 57.8669 73.4459 59.5278 71.3972 59.5278C69.3484 59.5278 67.6875 57.8669 67.6875 55.8181C67.6875 53.7694 69.3484 52.1085 71.3972 52.1085C73.4459 52.1085 75.1069 53.7694 75.1069 55.8181Z" fill="#FBD307"/>
<path d="M42.2072 53.0723H20.7885L16.3994 45.7773C15.549 44.3634 16.5671 42.5624 18.2169 42.5624H44.7786C46.4286 42.5624 47.4468 44.3634 46.5963 45.7773L42.2072 53.0723Z" fill="#FD7E42"/>
<path d="M44.7786 42.5624H38.5118C40.1618 42.5624 41.1799 44.3634 40.3293 45.7771L35.9404 53.0723H42.2072L46.5963 45.7771C47.4468 44.3634 46.4286 42.5624 44.7786 42.5624Z" fill="#FC5327"/>
<path d="M33.2127 37.1908C32.7081 36.7542 32.653 35.9912 33.0895 35.4866C33.6228 34.8706 33.9249 34.6661 33.9249 34.0047C33.9249 33.4709 33.7485 33.2547 33.3136 32.7742C32.792 32.1978 32.0775 31.4086 32.0775 29.9223C32.0775 28.3633 32.8164 27.6464 33.4885 26.8752C33.9267 26.3722 34.6899 26.3195 35.1931 26.758C35.6963 27.1963 35.7486 27.9594 35.3103 28.4625C34.7833 29.0675 34.4939 29.2698 34.4939 29.9223C34.4939 30.4561 34.6705 30.6723 35.1052 31.1528C35.6269 31.7292 36.3413 32.5186 36.3413 34.0047C36.3413 35.5839 35.5722 36.3097 34.9169 37.0677C34.4795 37.5731 33.7164 37.6267 33.2127 37.1908Z" fill="#688B96"/>
<path d="M25.9844 37.1908C25.4799 36.7542 25.4247 35.9912 25.8613 35.4866C26.3917 34.8733 26.6967 34.6717 26.6967 34.0047C26.6967 33.4709 26.5202 33.2547 26.0853 32.7742C25.5638 32.198 24.8492 31.4086 24.8492 29.9223C24.8492 28.3661 25.5835 27.653 26.2603 26.8752C26.6986 26.372 27.4619 26.3195 27.9649 26.758C28.468 27.1962 28.5203 27.9595 28.0822 28.4627C27.548 29.0752 27.2656 29.273 27.2656 29.9223C27.2656 30.4561 27.4421 30.6723 27.8769 31.1528C28.3986 31.7292 29.113 32.5186 29.113 34.0047C29.113 35.5839 28.3464 36.3067 27.6886 37.0677C27.2513 37.5731 26.488 37.6267 25.9844 37.1908Z" fill="#688B96"/>
</g>
</svg>
