<svg width="32" height="22" viewBox="0 0 32 22" fill="none" xmlns="http://www.w3.org/2000/svg">
<path d="M14.7276 21.1812C14.6871 21.3436 14.5935 21.4878 14.4617 21.5909C14.3299 21.6939 14.1674 21.7499 14.0001 21.75C13.9385 21.7498 13.8773 21.7423 13.8176 21.7275L9.81756 20.7275C9.73439 20.7062 9.65538 20.6711 9.58381 20.6237L6.5838 18.6237C6.50173 18.5691 6.43122 18.4988 6.37631 18.4169C6.3214 18.335 6.28316 18.243 6.26378 18.1464C6.22463 17.9511 6.26466 17.7483 6.37505 17.5825C6.48545 17.4167 6.65717 17.3016 6.85245 17.2625C6.94914 17.2431 7.0487 17.2429 7.14544 17.262C7.24219 17.2811 7.33423 17.3191 7.41631 17.3737L10.3076 19.3012L14.1826 20.27C14.2782 20.294 14.3682 20.3365 14.4474 20.3953C14.5266 20.4541 14.5934 20.5279 14.6441 20.6126C14.6947 20.6972 14.7281 20.791 14.7424 20.8886C14.7568 20.9862 14.7517 21.0856 14.7276 21.1812ZM31.3188 9.10625C31.247 9.32428 31.1328 9.52592 30.9826 9.69949C30.8324 9.87307 30.6493 10.0151 30.4438 10.1175L27.4438 11.6175L20.5301 18.5312C20.3893 18.6715 20.1987 18.7502 20.0001 18.75C19.9385 18.7499 19.8773 18.7424 19.8176 18.7275L11.8176 16.7275C11.7277 16.7041 11.6429 16.6643 11.5676 16.61L4.61256 11.645L1.55881 10.1175C1.14379 9.90991 0.828221 9.54599 0.681481 9.10577C0.53474 8.66555 0.568849 8.18508 0.776305 7.77L3.88256 1.55875C4.09014 1.14374 4.45406 0.828165 4.89428 0.681425C5.3345 0.534685 5.81498 0.568793 6.23005 0.776249L9.07506 2.19875L15.7938 0.278749C15.9286 0.240193 16.0715 0.240193 16.2063 0.278749L22.9251 2.19875L25.7701 0.776249C26.1851 0.568793 26.6656 0.534685 27.1058 0.681425C27.546 0.828165 27.91 1.14374 28.1176 1.55875L31.2238 7.77C31.3271 7.97543 31.3886 8.19927 31.405 8.42862C31.4213 8.65797 31.392 8.88828 31.3188 9.10625ZM2.23005 8.77625L4.66505 10L8.00005 3.335L5.5588 2.1175C5.49946 2.08803 5.43084 2.08332 5.36802 2.10441C5.30521 2.12551 5.25333 2.17068 5.2238 2.23L2.11756 8.44125C2.08849 8.50045 2.084 8.56875 2.10505 8.63125C2.11483 8.6627 2.13097 8.69181 2.15247 8.71675C2.17398 8.7417 2.20039 8.76195 2.23005 8.77625ZM23.8751 13.0612L20.0338 9.985C17.6588 12.0325 14.5863 12.335 12.0588 10.72C11.8377 10.5794 11.6509 10.3909 11.5124 10.1684C11.3739 9.946 11.2871 9.69528 11.2584 9.4348C11.2297 9.17431 11.2599 8.91071 11.3467 8.66346C11.4336 8.41621 11.5748 8.19161 11.7601 8.00625L17.4751 2.46125C17.5582 2.38108 17.6587 2.32119 17.7688 2.28625L16.0001 1.78L9.52381 3.625L5.95755 10.7625L12.3201 15.3062L19.7701 17.1687L23.8751 13.0612ZM26.0851 10.8512L22.5363 3.75H18.3038L12.8151 9.075C12.7907 9.10053 12.7723 9.13117 12.7613 9.16468C12.7503 9.1982 12.7469 9.23375 12.7513 9.26875C12.7552 9.30692 12.7678 9.34369 12.7882 9.37621C12.8086 9.40872 12.8361 9.43611 12.8688 9.45625C14.5301 10.5175 17.1363 10.815 19.4676 8.46625C19.598 8.33529 19.7722 8.25712 19.9568 8.24674C20.1413 8.23635 20.3232 8.29449 20.4676 8.41L24.9451 12L26.0851 10.8512ZM29.8801 8.44125L26.7763 2.23C26.7468 2.17068 26.6949 2.12551 26.6321 2.10441C26.5693 2.08332 26.5007 2.08803 26.4413 2.1175L24.0063 3.335L27.3351 10L29.7701 8.7825C29.7997 8.7682 29.8261 8.74795 29.8476 8.723C29.8691 8.69806 29.8853 8.66895 29.8951 8.6375C29.9063 8.60564 29.9111 8.57183 29.9089 8.53809C29.9068 8.50436 29.8978 8.47142 29.8826 8.44125H29.8801Z" fill="white"/>
</svg>
