<svg width="80" height="80" viewBox="0 0 80 80" fill="none" xmlns="http://www.w3.org/2000/svg">
<rect width="80" height="80" fill="#FAFAFA"/>
<g clip-path="url(#clip0_5_668)">
<path d="M20.0471 13.3883L43.3814 36.7226L40.2328 40.1367L37.0839 43.617L24.7538 31.287L13.5176 20.1171C13.4512 20.0506 13.4512 19.9844 13.4512 19.9844L10.8326 11.2671L11.5287 11.4327L20.0471 13.3883Z" fill="#7A869A"/>
<path d="M11.5287 11.4327L40.2328 40.1368L37.0839 43.6171L24.7538 31.2872L13.5176 20.1171C13.4512 20.0506 13.4512 19.9844 13.4512 19.9844L10.8326 11.2671L11.5287 11.4327Z" fill="#5C697C"/>
<path d="M43.3817 43.2856L43.3486 43.3187C38.0783 48.7876 39.4042 55.8808 43.3155 59.7919L60.0092 76.5564C64.5832 81.1304 71.9746 81.1637 76.5819 76.5564C81.1228 72.0154 81.1559 64.5577 76.5819 59.9836L59.8882 43.2192C55.9439 39.3412 48.8506 38.0153 43.3817 43.2856Z" fill="#E9336D"/>
<path d="M53.4246 50.014L69.8863 66.5465C70.8143 67.4744 70.7813 68.966 69.8863 69.861C69.4222 70.325 68.8257 70.5903 68.229 70.59C67.5991 70.5571 67.0358 70.325 66.5716 69.861L50.1101 53.3285C49.2151 52.4335 49.182 50.9421 50.1101 50.014C51.0051 49.119 52.5296 49.119 53.4246 50.014Z" fill="#FFAF3E"/>
<path d="M21.9364 9.17895C22.6989 9.67598 22.765 10.6704 22.1685 11.2669L11.3298 22.1056C10.7332 22.7022 9.73882 22.6361 9.30789 21.8737L0.32792 7.60083C-0.20239 6.67287 -0.103016 5.51272 0.725887 4.75022L4.73634 0.739766C5.49868 -0.0888243 6.69196 -0.221324 7.5868 0.342111L21.9364 9.17895Z" fill="#D9E3ED"/>
<path d="M43.3486 43.3188L43.3817 43.2856L76.5817 76.5566C71.9744 81.1639 64.583 81.1307 60.009 76.5566L43.3153 59.7921C39.4042 55.8809 38.0783 48.7877 43.3486 43.3188Z" fill="#B12E65"/>
<path d="M2.74782 2.72852L16.7659 16.6699L11.33 22.1058C10.7334 22.7023 9.73904 22.6362 9.3081 21.8739L0.327981 7.601C-0.202329 6.67303 -0.102955 5.51288 0.725948 4.75038L2.74782 2.72852Z" fill="#B8C7D5"/>
<path d="M50.1101 50.0142L69.8863 69.8613C69.4222 70.3253 68.8257 70.5906 68.229 70.5903C67.5991 70.5574 67.0358 70.3253 66.5716 69.8613L50.1101 53.3287C49.2151 52.4337 49.182 50.9423 50.1101 50.0142Z" fill="#FF9500"/>
<path d="M75.8759 23.9998C73.2509 26.6247 69.6414 28.1247 65.9384 28.1247C64.4853 28.1247 63.6416 27.9371 62.2355 27.7027L27.7022 62.2341L27.8895 63.4529C29.4365 72.1246 22.7803 79.9995 14.0615 79.9995C12.6552 79.9995 11.296 79.8122 9.98334 79.3905C9.04585 79.1089 8.71788 77.8905 9.42084 77.1872L14.0927 72.5466V65.9371H7.4521L2.81149 70.578C2.10822 71.281 0.889471 70.9528 0.608222 70.0155C-0.891772 65.0935 0.42088 59.703 4.12383 55.9996C6.74882 53.3746 10.3583 51.8746 14.0613 51.8746C15.5144 51.8746 16.3582 52.0623 17.7646 52.2967L52.2979 17.7654L52.1102 16.5467C51.3135 12 52.7664 7.35935 56.001 4.12498C58.626 1.45312 62.1884 0 65.9384 0C67.3447 0 68.7042 0.187343 70.0165 0.609373C70.954 0.890622 71.2823 2.10937 70.579 2.81233L65.9072 7.45294V14.0623H72.5476L77.1885 9.42168C77.8915 8.7184 79.1103 9.04653 79.3915 9.98418C80.8915 14.906 79.579 20.2965 75.8759 23.9998Z" fill="#D9E3ED"/>
<path d="M75.876 23.9999C73.251 26.6249 69.6415 28.1249 65.9385 28.1249C64.4854 28.1249 63.6416 27.9373 62.2355 27.7029L27.7022 62.2343L27.8896 63.4531C29.4366 72.1248 22.7804 79.9997 14.0615 79.9997C12.6553 79.9997 11.2961 79.8124 9.9834 79.3907C9.0459 79.1091 8.71793 77.8907 9.4209 77.1874L14.0928 72.5468V65.9373L65.9073 14.0625H72.5477L77.1886 9.42187C77.8916 8.71859 79.1103 9.04672 79.3916 9.98437C80.8916 14.9062 79.5791 20.2967 75.876 23.9999Z" fill="#B8C7D5"/>
</g>
<defs>
<clipPath id="clip0_5_668">
<rect width="80" height="80" fill="white"/>
</clipPath>
</defs>
</svg>
