<svg width="86" height="86" viewBox="0 0 86 86" fill="none" xmlns="http://www.w3.org/2000/svg">
<path d="M84.6562 43V55.0938C84.6541 55.8059 84.3703 56.4882 83.8667 56.9917C83.3632 57.4953 82.6809 57.7791 81.9688 57.7812H63.1562C62.4441 57.7791 61.7618 57.4953 61.2583 56.9917C60.7547 56.4882 60.4709 55.8059 60.4688 55.0938V47.0312C60.4709 46.3191 60.7547 45.6368 61.2583 45.1333C61.7618 44.6297 62.4441 44.3459 63.1562 44.3438H79.2812V40.3125H81.9688C82.6809 40.3146 83.3632 40.5985 83.8667 41.102C84.3703 41.6055 84.6541 42.2879 84.6562 43ZM69.875 51.0625C69.875 50.531 69.7174 50.0114 69.4221 49.5694C69.1268 49.1274 68.707 48.783 68.216 48.5796C67.7249 48.3762 67.1845 48.3229 66.6632 48.4266C66.1419 48.5303 65.663 48.7863 65.2871 49.1621C64.9113 49.538 64.6553 50.0169 64.5516 50.5382C64.4479 51.0595 64.5012 51.5999 64.7046 52.091C64.908 52.582 65.2524 53.0018 65.6944 53.2971C66.1364 53.5924 66.656 53.75 67.1875 53.75C67.8996 53.7479 68.582 53.464 69.0855 52.9605C69.589 52.457 69.8729 51.7746 69.875 51.0625Z" fill="#E03E3E"/>
<path d="M73.4225 1.34375L84.6562 33.2981L79.2812 35.2197V26.875C79.2791 26.1629 78.9953 25.4805 78.4917 24.977C77.9882 24.4735 77.3059 24.1896 76.5938 24.1875H74.3766L70.5872 13.4106C69.9441 13.6397 69.2621 13.7394 68.5804 13.7039C67.8986 13.6683 67.2307 13.4983 66.6149 13.2035C65.9992 12.9088 65.4478 12.4951 64.9926 11.9864C64.5374 11.4777 64.1873 10.8839 63.9625 10.2394L24.8325 24.1337V24.1875H13.4375C13.1044 24.1879 12.7718 24.1609 12.4431 24.1069L12.0938 23.1394L57.835 6.88L73.4225 1.34375Z" fill="#36CE94"/>
<path d="M6.85313 18.7722C7.12023 20.1297 7.80094 21.3712 8.80181 22.3264C9.80268 23.2815 11.0747 23.9035 12.4431 24.1069C12.7718 24.161 13.1044 24.1879 13.4375 24.1875H76.5938C77.3059 24.1897 77.9882 24.4735 78.4917 24.977C78.9953 25.4806 79.2791 26.1629 79.2812 26.875V44.3438H63.1562C62.4441 44.3459 61.7618 44.6297 61.2583 45.1333C60.7547 45.6368 60.4709 46.3192 60.4688 47.0313V55.0938C60.4709 55.8059 60.7547 56.4882 61.2583 56.9918C61.7618 57.4953 62.4441 57.7792 63.1562 57.7813H79.2812V72.5625C79.2812 74.1885 76.8759 76.5938 73.9062 76.5938H55.0938V55.0938C55.0916 54.3817 54.8078 53.6993 54.3042 53.1958C53.8007 52.6922 53.1184 52.4084 52.4062 52.4063H9.40625C8.69413 52.4084 8.01179 52.6922 7.50825 53.1958C7.00471 53.6993 6.72088 54.3817 6.71875 55.0938V76.5938C5.29321 76.5938 3.92606 76.0275 2.91805 75.0195C1.91004 74.0115 1.34375 72.6443 1.34375 71.2188V18.8125C1.34375 16.6742 2.19319 14.6235 3.7052 13.1115C5.21721 11.5995 7.26794 10.75 9.40625 10.75H13.7197C12.0146 10.7227 10.3595 11.3263 9.07227 12.4448C7.78505 13.5634 6.95646 15.1181 6.74563 16.8103C6.67927 17.4659 6.71554 18.1278 6.85313 18.7722Z" fill="#FEBD55"/>
<path d="M70.5872 13.4106L74.3766 24.1875H24.8325V24.1338L63.9625 10.2394C64.1873 10.884 64.5374 11.4777 64.9926 11.9864C65.4479 12.4951 65.9992 12.9088 66.615 13.2035C67.2307 13.4983 67.8987 13.6683 68.5804 13.7039C69.2621 13.7394 69.9442 13.6398 70.5872 13.4106Z" fill="#2FB380"/>
<path d="M67.1875 53.75C68.6718 53.75 69.875 52.5468 69.875 51.0625C69.875 49.5782 68.6718 48.375 67.1875 48.375C65.7032 48.375 64.5 49.5782 64.5 51.0625C64.5 52.5468 65.7032 53.75 67.1875 53.75Z" fill="#2B2B37"/>
<path d="M29.0519 10.75L55.0938 1.34375L57.7813 6.71875L57.835 6.88L12.0938 23.1394L12.4432 24.1069C11.0747 23.9035 9.80271 23.2815 8.80184 22.3263C7.80096 21.3712 7.12025 20.1297 6.85315 18.7722L29.0519 10.75Z" fill="#2FB380"/>
<path d="M29.0519 10.75L6.8531 18.7722C6.71551 18.1278 6.67925 17.4659 6.7456 16.8103C6.95644 15.1181 7.78503 13.5634 9.07225 12.4448C10.3595 11.3263 12.0146 10.7227 13.7197 10.75H29.0519Z" fill="#BD6F08"/>
<path d="M55.0938 76.5938V81.9688C55.0916 82.6809 54.8078 83.3632 54.3042 83.8667C53.8007 84.3703 53.1184 84.6541 52.4062 84.6562H9.40625C8.69413 84.6541 8.01179 84.3703 7.50825 83.8667C7.00471 83.3632 6.72088 82.6809 6.71875 81.9688V64.5H55.0938V76.5938Z" fill="#FF6161"/>
<path d="M55.0938 60.4688V64.5H53.75H8.0625H6.71875V60.4688H8.0625H53.75H55.0938Z" fill="#EDF4FA"/>
<path d="M55.0938 55.0938V60.4688H6.71875V55.0938C6.72088 54.3816 7.00471 53.6993 7.50825 53.1958C8.01179 52.6922 8.69413 52.4084 9.40625 52.4062H52.4062C53.1184 52.4084 53.8007 52.6922 54.3042 53.1958C54.8078 53.6993 55.0916 54.3816 55.0938 55.0938Z" fill="#CB3541"/>
<path d="M52.4062 80.625H37.625C32.6266 80.622 27.752 79.0698 23.6721 76.1821C19.5923 73.2943 16.5077 69.2131 14.8431 64.5H6.71875V81.9688C6.72088 82.6809 7.00471 83.3632 7.50825 83.8667C8.01179 84.3703 8.69413 84.6541 9.40625 84.6562H52.4062C53.1184 84.6541 53.8007 84.3703 54.3042 83.8667C54.8078 83.3632 55.0916 82.6809 55.0938 81.9688V77.9375C55.0938 78.6503 54.8106 79.3338 54.3066 79.8379C53.8026 80.3419 53.119 80.625 52.4062 80.625Z" fill="#E03E3E"/>
<path d="M14.8431 64.5C14.3794 63.189 14.0305 61.8402 13.8003 60.4688H6.71875V64.5H14.8431Z" fill="#C1CFE8"/>
<path d="M13.8003 60.4688C13.5675 59.1374 13.4462 57.789 13.4375 56.4375V52.4062H9.40625C8.69413 52.4084 8.01179 52.6922 7.50825 53.1958C7.00471 53.6993 6.72088 54.3816 6.71875 55.0938V60.4688H13.8003Z" fill="#A81E29"/>
<path d="M57.7813 6.71875L56.6902 4.5365L15.8805 19.2734C15.225 19.5101 14.5033 19.4829 13.8675 19.1976C13.2317 18.9123 12.7316 18.3912 12.4727 17.7442L12.122 16.8681L6.85315 18.7722C7.12025 20.1297 7.80096 21.3712 8.80184 22.3264C9.80271 23.2815 11.0747 23.9035 12.4432 24.1069L12.0938 23.1394L57.835 6.88L57.7813 6.71875Z" fill="#2AA173"/>
<path d="M36.034 20.1562H20.4855L12.0938 23.1394L12.4431 24.1069C12.7718 24.1609 13.1044 24.1879 13.4375 24.1875H24.8325V24.1337L36.034 20.1562Z" fill="#2FB380"/>
<path d="M84.6563 33.2981L80.0365 20.1562H72.9656L74.3833 24.1875H76.5938C77.3059 24.1896 77.9882 24.4735 78.4918 24.977C78.9953 25.4805 79.2791 26.1629 79.2813 26.875V35.2197L84.6563 33.2981Z" fill="#2FB380"/>
<path d="M36.034 20.1562L24.8325 24.1337V24.1875H74.3766L72.9589 20.1562H36.034Z" fill="#2AA173"/>
<path d="M83.3125 55.0938H69.875C69.3036 55.0924 68.7392 54.9688 68.2196 54.7312C67.6999 54.4936 67.2371 54.1476 66.8623 53.7164C66.2109 53.6415 65.6098 53.3297 65.1734 52.8403C64.7371 52.351 64.4959 51.7182 64.4959 51.0625C64.4959 50.4068 64.7371 49.774 65.1734 49.2847C65.6098 48.7953 66.2109 48.4835 66.8623 48.4086C67.2371 47.9774 67.6999 47.6314 68.2196 47.3938C68.7392 47.1562 69.3036 47.0326 69.875 47.0312H79.2812C79.994 47.0312 80.6776 46.7481 81.1816 46.2441C81.6856 45.7401 81.9688 45.0565 81.9688 44.3438V40.3125H79.2812V44.3438H63.1562C62.4441 44.3459 61.7618 44.6297 61.2583 45.1333C60.7547 45.6368 60.4709 46.3191 60.4688 47.0312V55.0938C60.4709 55.8059 60.7547 56.4882 61.2583 56.9917C61.7618 57.4953 62.4441 57.7791 63.1562 57.7812H81.9688C82.6809 57.7791 83.3632 57.4953 83.8667 56.9917C84.3703 56.4882 84.6541 55.8059 84.6562 55.0938V53.75C84.6562 54.1064 84.5147 54.4482 84.2627 54.7002C84.0107 54.9522 83.6689 55.0938 83.3125 55.0938Z" fill="#CB3541"/>
<path d="M64.5 61.8125H79.2812V57.7813H63.1562C62.6829 57.7784 62.219 57.6489 61.8125 57.4064V59.125C61.8125 59.8378 62.0956 60.5214 62.5996 61.0254C63.1037 61.5294 63.7872 61.8125 64.5 61.8125Z" fill="#FC9E20"/>
<path d="M6.71875 60.4688V55.0938C6.72088 54.3817 7.00471 53.6993 7.50825 53.1958C8.01179 52.6922 8.69413 52.4084 9.40625 52.4063H12.0938V24.0263C10.799 23.766 9.61032 23.128 8.67767 22.193C7.74501 21.2579 7.11014 20.0676 6.85313 18.7722C6.71554 18.1278 6.67927 17.4659 6.74563 16.8103C6.95646 15.1181 7.78505 13.5634 9.07227 12.4448C10.3595 11.3263 12.0146 10.7227 13.7197 10.75H9.40625C7.26794 10.75 5.21721 11.5995 3.7052 13.1115C2.19319 14.6235 1.34375 16.6742 1.34375 18.8125V71.2188C1.34375 72.6443 1.91004 74.0115 2.91805 75.0195C3.92606 76.0275 5.29321 76.5938 6.71875 76.5938V60.4688Z" fill="#FC9E20"/>
<path d="M75.25 71.2188H64.5C63.0745 71.2188 61.7073 70.6525 60.6993 69.6444C59.6913 68.6364 59.125 67.2693 59.125 65.8438V59.125C59.125 58.4122 58.8419 57.7287 58.3379 57.2246C57.8338 56.7206 57.1503 56.4375 56.4375 56.4375H55.0938V76.5938H73.9062C76.8759 76.5938 79.2812 74.1884 79.2812 72.5625V67.1875C79.2812 68.2567 78.8565 69.282 78.1005 70.038C77.3445 70.794 76.3192 71.2188 75.25 71.2188Z" fill="#FC9E20"/>
</svg>
