<svg width="86" height="86" viewBox="0 0 86 86" fill="none" xmlns="http://www.w3.org/2000/svg">
<g clip-path="url(#clip0_5_513)">
<path d="M48.5705 45.5385C44.5327 45.5385 41.689 45.1835 41.3649 45.1415C40.2331 44.9932 39.3421 44.1022 39.1938 42.9697C39.0711 42.0308 36.3121 19.8412 47.2595 8.89309C58.1762 -2.0229 80.8848 0.139038 81.846 0.236145C83.0362 0.356872 83.9777 1.29842 84.0985 2.48863C84.1962 3.45051 86.3582 26.1591 75.4415 37.0751C68.2648 44.2525 56.2557 45.5385 48.5705 45.5385Z" fill="#A7D533"/>
<path d="M84.0986 2.48938C84.0382 1.89427 83.7731 1.3615 83.3742 0.961914L39.911 44.4251C40.2935 44.8076 40.7994 45.0675 41.365 45.1416C41.6891 45.1836 44.5328 45.5386 48.5706 45.5386C56.2558 45.5386 68.2649 44.2525 75.4423 37.0752C86.3583 26.1592 84.1963 3.45061 84.0986 2.48938Z" fill="#49BA6E"/>
<path d="M82.1248 25.0352C82.6228 23.3621 83.0139 21.6667 83.319 19.9962H67.9013L84.1956 3.70254C84.151 3.0287 84.1103 2.60353 84.0985 2.48936C83.9784 1.29849 83.0368 0.356949 81.846 0.236877C81.7318 0.225067 81.3066 0.184387 80.6328 0.139771L57.1172 23.6554V2.92831C55.3699 3.56082 53.6725 4.32652 52.0781 5.24707V28.6944L40.1274 40.6451C39.1432 41.6287 39.1432 43.2244 40.1274 44.2079C40.6189 44.7 41.2638 44.9461 41.9088 44.9461C42.5531 44.9461 43.1981 44.7 43.6895 44.2079L62.8629 25.0352H82.1248Z" fill="#148253"/>
<path d="M82.1248 25.0352C82.6228 23.3621 83.0139 21.6667 83.319 19.9962H67.9013L84.1956 3.70256C84.151 3.02872 84.1103 2.60354 84.0985 2.48938C84.0381 1.89427 83.773 1.3615 83.3741 0.961914L40.1274 44.2086C40.6195 44.7 41.2639 44.9461 41.9088 44.9461C42.5531 44.9461 43.1981 44.7 43.6896 44.2079L62.8629 25.0352H82.1248Z" fill="#148253"/>
<path d="M37.6126 50.5776C29.9273 50.5776 17.9189 49.2916 10.7409 42.1135C-0.175124 31.1975 1.98682 8.48898 2.08392 7.52775C2.20465 6.33688 3.14619 5.39599 4.33706 5.27527C5.29829 5.1775 28.0069 3.01556 38.9229 13.9316C49.871 24.8797 47.112 47.0693 46.9893 48.0082C46.841 49.1407 45.95 50.0317 44.8175 50.18C44.494 50.2226 41.6491 50.5776 37.6126 50.5776Z" fill="#C5ED4E"/>
<path d="M44.8175 50.1799C45.3837 50.1058 45.8896 49.846 46.2728 49.4634L2.8096 6.00024C2.41002 6.39917 2.14429 6.9326 2.08392 7.52771C1.98682 8.48893 -0.175124 31.1975 10.7409 42.1142C17.9189 49.2915 29.9273 50.5775 37.6126 50.5775C41.6491 50.5775 44.494 50.2226 44.8175 50.1799Z" fill="#A7D533"/>
<path d="M26.8829 26.5108V7.24884C25.2097 6.75084 23.5143 6.35979 21.8438 6.05403V21.4717L5.5502 5.1781C4.87636 5.22272 4.45118 5.2634 4.33702 5.27521C3.14615 5.39593 2.2046 6.33682 2.08388 7.52769C2.07272 7.64186 2.03204 8.06703 1.98743 8.74087L25.503 32.2571H4.77597C5.40848 34.0037 6.17418 35.7011 7.09472 37.2955H30.5414L43.561 50.3151C44.2617 50.2508 44.702 50.195 44.8175 50.1799C45.9499 50.0323 46.841 49.1413 46.9892 48.0088C47.0043 47.8927 47.0594 47.453 47.1244 46.7523L26.8829 26.5108Z" fill="#49BA6E"/>
<path d="M2.80955 6.00024C2.40997 6.39917 2.14424 6.9326 2.08388 7.52771C2.07272 7.64188 2.03204 8.06705 1.98743 8.74089L25.503 32.2572H4.77597C5.40848 34.0038 6.17418 35.7012 7.09472 37.2956H30.5414L43.561 50.3151C44.2617 50.2508 44.702 50.195 44.8175 50.1799C45.3837 50.1064 45.8896 49.846 46.2727 49.4634L2.80955 6.00024Z" fill="#49BA6E"/>
<path d="M13.9099 68.474H20.292C21.3838 68.474 22.0137 69.5238 22.0137 70.6576C22.0137 71.6234 21.4678 72.7572 20.292 72.7572H13.9099V81.1963H25.7923C26.8841 81.1963 27.514 82.3301 27.514 83.6319C27.514 84.7657 26.9681 85.9834 25.7923 85.9834H10.8444C9.62666 85.9834 8.45154 85.3955 8.45154 84.2618V57.0115C8.45154 55.8777 9.62666 55.2898 10.8444 55.2898H25.7923C26.9681 55.2898 27.514 56.5076 27.514 57.6414C27.514 58.9425 26.8841 60.0762 25.7923 60.0762H13.9099V68.474Z" fill="#49BA6E"/>
<path d="M42.378 59.8414C39.5645 59.8414 37.9695 61.3945 37.9695 64.6699V76.3844C37.9695 79.6598 39.5645 81.2135 42.462 81.2135C46.2833 81.2135 46.6185 78.484 46.7445 76.7203C46.8285 75.4192 48.0043 74.9993 49.432 74.9993C51.3217 74.9993 52.2035 75.5452 52.2035 77.6861C52.2035 82.7672 48.0463 85.9999 42.168 85.9999C36.8777 85.9999 32.5105 83.3964 32.5105 76.3844V64.6699C32.5105 57.6578 36.9197 55.0543 42.21 55.0543C48.0463 55.0543 52.2035 58.1617 52.2035 63.0322C52.2035 65.2158 51.3217 65.7197 49.474 65.7197C47.9203 65.7197 46.7865 65.2578 46.7445 63.998C46.6605 62.6962 46.3673 59.8414 42.378 59.8414Z" fill="#49BA6E"/>
<path d="M57.6611 76.3844V64.6699C57.6611 57.6578 61.9443 55.0543 67.4866 55.0543C73.0289 55.0543 77.3541 57.6578 77.3541 64.6699V76.3844C77.3541 83.3964 73.0289 85.9999 67.4866 85.9999C61.9443 85.9999 57.6611 83.3964 57.6611 76.3844ZM71.8952 64.6699C71.8952 61.3525 70.2161 59.8414 67.4866 59.8414C64.7152 59.8414 63.1195 61.3525 63.1195 64.6699V76.3844C63.1195 79.7017 64.7152 81.2135 67.4866 81.2135C70.2161 81.2135 71.8952 79.7017 71.8952 76.3844V64.6699Z" fill="#148253"/>
<path d="M49.432 74.9993C48.0042 74.9993 46.8284 75.4192 46.7445 76.7203C46.6185 78.484 46.2832 81.2135 42.4619 81.2135C42.4265 81.2135 42.3924 81.2121 42.3569 81.2115V85.9966C48.1348 85.9277 52.2034 82.712 52.2034 77.6861C52.2034 75.5452 51.3216 74.9993 49.432 74.9993Z" fill="#148253"/>
<path d="M42.3569 55.057V59.8415H42.3779C46.3672 59.8415 46.6605 62.6963 46.7445 63.9981C46.7864 65.2578 47.9202 65.7197 49.4739 65.7197C51.3216 65.7197 52.2034 65.2158 52.2034 63.0322C52.2034 58.2031 48.1151 55.1088 42.3569 55.057Z" fill="#148253"/>
</g>
<defs>
<clipPath id="clip0_5_513">
<rect width="86" height="86" fill="white"/>
</clipPath>
</defs>
</svg>
