<svg width="23" height="22" viewBox="0 0 23 22" fill="none" xmlns="http://www.w3.org/2000/svg">
<path d="M22.2962 8.32554C22.1532 7.88602 21.7634 7.57485 21.304 7.53328L15.0382 6.96442L12.5619 1.16691C12.379 0.74097 11.963 0.466064 11.5 0.466064C11.037 0.466064 10.6208 0.74097 10.4391 1.16691L7.96284 6.96442L1.69599 7.53328C1.2366 7.57567 0.847595 7.88685 0.70385 8.32554C0.560932 8.76505 0.69292 9.24713 1.04036 9.55185L5.77684 13.7051L4.38029 19.856C4.27811 20.3083 4.45366 20.7759 4.82892 21.0472C5.03063 21.1937 5.26761 21.2669 5.50542 21.2669C5.70977 21.2669 5.9143 21.2126 6.09696 21.1033L11.5 17.8727L16.9021 21.1033C17.2984 21.3401 17.7967 21.3184 18.1711 21.0472C18.5464 20.7759 18.7219 20.3083 18.6197 19.856L17.2232 13.7051L21.9597 9.55185C22.3069 9.24713 22.4391 8.76605 22.2962 8.32554Z" fill="#FFC73B"/>
</svg>
